<?xml version="1.0" encoding="utf-8"?>
<!-- Generator: Adobe Illustrator 24.2.3, SVG Export Plug-In . SVG Version: 6.00 Build 0)  -->
<svg version="1.1" id="Capa_1" xmlns="http://www.w3.org/2000/svg" xmlns:xlink="http://www.w3.org/1999/xlink" x="0px" y="0px"
	 viewBox="0 0 564 145" style="enable-background:new 0 0 564 145;" xml:space="preserve">
<style type="text/css">
	.st0{fill:#2A377A;stroke:#FFFFFF;stroke-width:3;stroke-miterlimit:10;}
	.st1{fill:#2A377A;}
	.st2{fill:#51A6DA;}
	.st3{fill:#FFFFFF;}
	.st4{fill:#7BC1EA;}
	.st5{fill:#262B4E;}
	.st6{fill:#5FB5E6;}
	.st7{fill:#49A2CC;}
	.st8{fill:#FCFBFB;}
	.st9{fill:#B4DEF4;}
	.st10{fill:#F8F7F8;}
	.st11{fill:#5CAFE0;}
	.st12{fill:#ECEDF0;}
	.st13{fill:#A8D6EF;}
	.st14{fill:#98CEED;}
	.st15{fill:#2C2C3E;}
	.st16{fill:#52BEE9;}
	.st17{fill:#29273B;}
	.st18{fill:#25263F;}
	.st19{fill:#222236;}
	.st20{fill:#161727;}
	.st21{fill:#479FD7;}
	.st22{fill:#3B394E;}
	.st23{fill:#242442;}
	.st24{fill:#262440;}
	.st25{fill:#232240;}
	.st26{fill:#242147;}
	.st27{fill:#FAFAFA;}
	.st28{fill:#486794;}
</style>
<g>
	<circle class="st0" cx="73" cy="72.7" r="69.7"/>
	<g>
		<path class="st1" d="M136,117.5c-1.4,1.4-3.1,0.7-4.8,0.6c-0.5,0-1-0.1-1.5-0.2c-0.7-0.1-1.1-0.6-1.7-1.1
			c-1.3-1.3-2.8-2.4-4.3-3.4c-1.8-1.2-1.9-1.1-3.4,0.4c-3.8,3.8-7.8,7.3-12.4,10.2c-5.5,3.5-11.4,5.9-17.7,7.5
			c-4.7,1.2-9.5,2-14.5,2.1c-0.3,0-0.7,0.1-1,0.2c-4.8-0.3-9.7-0.5-14.5-1c-2-0.2-4-0.7-5.9,0.3c-2.6,0.2-5.1,0.6-7.7,0.4
			c-6.1-0.3-11.7-2.3-16.7-5.8c-4.4-3-7.8-6.9-10.8-11.3c-0.9-1.4-1.9-2.7-2.8-4.1c-0.2-0.2-0.3-0.5-0.5-0.7
			c-0.1-0.1-0.1-0.1-0.2-0.2c0.1-0.1,0.4-0.1,0.4-0.2c0.1-0.9-1.1-2.3-2.2-2.5c-3.8-5.9-6.6-12.2-8.5-19c-1.9-6.9-2.7-13.9-2.4-21
			c0.4-8.5,2.4-16.6,6-24.4c3.5-7.7,8.2-14.5,14.1-20.5C29.7,17.2,37.4,12.2,46,8.6c6.7-2.8,13.7-4.7,21-5.3
			c6.7-0.5,13.2-0.2,19.8,1.1c6.9,1.4,13.3,3.8,19.5,7c11,5.8,19.8,14,26.6,24.5c5.2,8,8.5,16.7,9.8,26.2c0,0.3,0.1,0.5,0.2,0.8
			c-0.5,0-1,0-1.4-0.1c-2.9-1-5.7-2.4-8.7-3.1c-3.8-0.9-7.7-1.4-11.6-2c-0.4,0-0.7,0-1.1,0c-1.7-0.1-3.4-0.2-5-0.3c0,0,0,0,0,0
			c0-3.7,0-7.4,0-11.1c-0.7-0.2-1.4-0.6-2.1-0.6c-2.4,0-4.7,0.2-7.1,0.2c-6.2,0-12.5,0-18.7,0c-1.5,0-2.9,0.2-4.4,0.2
			c-7.4,0-14.8,0-22.2,0c-2.1,0-4.2-0.3-6.4-0.5c0,0-0.1-0.1-0.2-0.3c0.3-0.3,0.6-0.6,0.9-1c0.2,1,0.5,1.2,1.7,0.6
			c-1-1.3-1-1.3,0.2-2c0.3,0.1,0.7,0.4,1,0.4c2.1,0,4.2,0,6.3,0c-0.3,0.2-0.7,0.4-1,0.4c-1.7,0-3.5,0-5.2,0c-0.3,0-0.6,0.1-0.9,0.1
			c0,0.1,0,0.1,0,0.2c19.3,0,38.7,0,58,0c-0.4-0.3-0.7-0.3-1.1-0.3c-1.7,0-3.3,0-5,0c-0.3,0-0.7-0.3-1-0.4c2.1,0,4.2,0,6.3,0
			c0.3,0,0.7-0.3,1-0.4c0-0.2,0-0.3,0-0.5c0-0.1,0-0.3,0-0.4c0-0.2,0-0.3,0-0.5c0-0.1,0-0.3,0-0.4c0.3-2.8-0.4-5.2-2.9-6.9
			c-0.3-0.4-0.6-0.9-1-1.2c-1.5-1.1-3.3-1.4-5.1-1.5c-0.2-0.1-0.5-0.2-0.7-0.2c-2.8-0.1-5.7-0.2-8.5-0.2c-3.2,0-6.5,0.1-9.7,0.2
			c-1.5,0-3-0.1-4.5,0c-2.8,0-5.6,0.1-8.5,0.1c-0.1,0-0.1,0.1-0.2,0.1c-0.2,0-0.5,0-0.7,0c-0.9-0.1-1.8-0.2-2.6-0.2
			c-1.5,0-3,0.1-4.4,0.2c-1.9,0-3.8,0-5.7,0c-0.6-0.1-1.2-0.3-1.8-0.4c-1.8,0-3.7,0-5.6,0c-0.1-0.4-0.1-0.7-0.2-1.1
			c0-0.4,0-0.7,0-1.1c0-0.3,0-0.5,0-0.8c0-0.3,0-0.7,0-1c0.4-0.9,0.6-1.7-0.3-2.4c-0.3-0.3-0.6-0.6-0.8-0.9
			c-0.5-0.7-1.1-0.9-1.9-0.9c-1.8-0.2-3.7,0.7-5.5,0c-0.1-0.1-0.4,0.1-0.9,0.3c0.8,0.2,1.3,0.3,2.1,0.5c-0.8,0.5-1.4,0.9-2,1.3
			c-0.4-0.5-0.6-0.8-0.8-1.1c-0.1,0.1-0.4,0.2-0.4,0.3c0.1,0.4,0.3,0.7,0.4,1.1c0.2,0.6,0.3,1.1,0.4,1.7c-0.2,0.7,0.5,1.7-0.5,2.3
			c0-0.9,0-1.7,0-2.6c-0.2,0-0.3,0-0.5,0c0,1.6,0,3.2,0,4.8c-1.1-0.2-1.9-1.1-2.7,0.1c-5.3,1.6-7.4,5-7,10.9c0.2,0,0.5,0,0.8,0
			c1.8,0,3.6,0,5.3,0.1c-0.8,0.1-1.5,0.2-2.3,0.4c-0.5,0.1-0.9,0.3-1.4,0.4c-0.4,0.2-0.9,0.3-1.3,0.5c0.4,0.2,0.9,0.3,1.3,0.5
			c0.1,0.4,0.2,0.8,0.3,1.5c-0.7,0-1.5,0.2-2.1,0.1c-1.3-0.2-2.1,0.2-1.8,1.1c0.1,0.4,0.6,0.6,0.9,0.9c0,0.2,0,0.3,0,0.5
			c-0.1,0.3-0.4,0.6-0.4,0.9c-0.1,0.8,0,1.7,0,2.5c0,11.8,0,23.6,0,35.4c0,0.5,0.3,0.9,0.4,1.4c0.1,0.2,0.1,0.5,0.2,0.7
			c0,4.4-0.1,8.9,0,13.3c0,1.4,0.3,3,0.9,4.3c1.5,3.2,4.4,4.3,7.7,4.3c7.9,0.1,15.9,0,23.8,0c2.3,0,4.4-0.3,6.6-0.9
			c7.5-1.8,14.6-4.6,21.6-7.7c4.1-1.8,8.3-3.5,12.8-3.8c3.1-0.2,6.2,0,9.3,0c0-7,0-14.3,0-21.8c-0.8,0-1.5-0.1-2.2-0.1
			c-4.8-0.1-9.5,0.8-14.2,1.6c-1.8,0-4.1-1.7-4.6-3.4c0.3-0.1,0.7-0.2,1-0.2c1.2-0.2,2.5-0.3,3.7-0.5c1.1-0.2,2.3-0.4,3.4-0.6
			c1.3-0.2,2.5-0.5,3.8-0.8c0.5-0.1,1,0,1.5-0.1c2-0.3,4-0.7,6-0.8c1.2-0.1,2.4,0.2,3.6,0.4c1.2,0.2,2.4,0.1,3.5,0.6
			c1.6,0.6,3.2,0.9,4.9,0.8c0.9,0.3,1.7,0.6,2.6,0.9c2.2,1.3,4.4,2.5,6.5,4c1.8,1.2,3.4,2.7,5.1,4c1.6,1.7,3.2,3.4,4.8,5.1
			c0.3,0.4,0.5,0.8,0.8,1.2c1,1.3,1.2,2.6,0,3.9c-0.1,0.1-0.2,0.1-0.3,0.2c0,0,0,0,0,0c-1-0.1-2.1-0.2-3.1-0.2c-0.4,0-0.9,0-1.3,0
			c-0.2,0.3-0.5,0.6-0.6,1c-0.6,1.5-1,3.1-1.6,4.6c-0.9,2.1-1.9,4.2-2.9,6.4c-5.2-3.6-10.7-5.8-16.7-7.1c0,0.8-0.1,1.4-0.1,2
			c0,0.3,0.3,0.6,0.6,0.8c0.9,0.4,1.8,0.6,2.7,1c2.8,1.3,5.6,2.7,8.4,4.1c-0.3,0.8-0.1,1.2,0.8,1.4c0.7,0.2,1.3,0.6,1.9,1
			c0.1,0.1,0.3,0.5,0.2,0.6c-0.1,0.2-0.4,0.3-0.6,0.3c-0.4,0.1-0.8,0.1-1.2,0.1c-0.4-0.2-0.7-0.3-1.1-0.5c-2.4-1.2-4.6-2.6-7.1-3.5
			c-3.3-1.1-6.7-1.8-10-2.6c-1.5-0.1-3-0.3-4.5-0.4c-5-0.2-9.6,1.4-14,3.5c-6.6,3.2-13.2,6.1-20.3,7.9c-8.4,2.2-16.9,3.7-25.6,3.3
			c-5.1-0.2-9.9-1.2-14.5-3.5c-2.9-1.5-5.1-3.7-6-7c0-2.5,0-5,0-7.6c0-0.3,0-0.5-0.1-0.9c-0.4,0.6-0.7,1-1,1.4
			c-0.7-0.1-1.3-0.1-1.3,0.9c0,0.4-0.4,0.8-0.5,1.2c-0.4,1.6-1.4,3.3-1.1,4.7c0.3,1.6-0.5,3.6,1.2,4.8c0.1,1.8,1.4,2.8,2.4,4
			c0.9,1.2,2.2,2.2,3.4,3.2c0.5,0.4,1.1,0.8,1.7,1c1.2,0.5,2.3,0.9,3.5,1.2c1.3,0.3,2.7,0.4,4,0.6c2.5,0.3,4.9,0.8,7.4,0.9
			c5.3,0.3,10.6-0.2,15.8-1.1c6.3-1.2,12.6-2.8,18.4-5.7c2.7-1.4,5.4-2.9,8.1-4.4c6.1,0,12.3,0.1,18.4,0c2.3,0,4.2-1.7,4.5-3.4
			c-0.7-0.1-1.3-0.3-2-0.4c1-0.6,2.6,0,3.2-1.4c0.4,0.1,0.7,0.1,1.1,0.2c5,1.2,9.7,3.1,14.3,5.4c1.4,0.8,2.7,1.7,4.1,2.5
			c0.7,0.8,1.5,1.5,2.2,2.3c0,0.2,0.1,0.5,0.1,0.7C136.3,117,136.1,117.2,136,117.5z M57.5,21.8c1,0,2.4-1.4,2.7-2.5
			c-1-0.9-2.1-1.8-3-2.5c-0.8,0.8-1.7,1.7-2.6,2.5c1,0.4,2.1,1,2.5,2.4C57.2,21.7,57.4,21.7,57.5,21.8z M131,90.6
			c-0.3,0-0.8-0.2-0.9,0c-0.6,0.6-0.6,1.8-1.9,1.6c0,0-0.1,0.2-0.2,0.3c-0.8,0.9-0.8,1.8,0,2.6c0.6,0.1,1.3,0.4,1.9,0.6
			c0.3,0.1,0.6,0.1,0.9,0.1c0.1,0.1,0.2,0.3,0.4,0.6c0.4-1.6,1.6-2.3,3.1-2.9C132.6,93.1,131.8,91.8,131,90.6z M127.7,86.5
			c-1.4-0.7-2.7-1.5-3.2-3.1c-0.3-0.1-0.6-0.4-0.8-0.3c-0.7,0.4-1.5,0.9-1,2c-0.3,0-0.7,0-0.8,0.1c-0.5,0.4-1.2,0.8-1.3,1.3
			c-0.1,0.6,0.5,1,1.2,1.2c0.5,0.1,1.1,0.7,1.3,1.2c0.5,1.2,1.6,1.6,2.5,0.6c0.5-0.5,0.9-1.1,1.5-1.5
			C127.7,87.5,127.8,87.1,127.7,86.5z M93.8,19c-0.2-0.1-0.5-0.2-0.7-0.3c-0.6-0.9-1.2-1.7-1.8-2.5c-0.1-0.2-0.8-0.2-1,0
			c-1.1,0.8-2.1,1.6-3.1,2.6c-0.6,0.6-0.2,1.5,0.5,1.9c1,0.6,2,1.2,3,1.8c0.6,0.4,1.5,0.3,1.4-0.3c-0.1-1.3,0.6-1.4,1.6-1.3
			c0.7,0.1,1.2-0.3,1.2-1C94.9,19,94.3,19,93.8,19z M20.9,79.7c-0.1-0.1-0.2-0.1-0.3-0.2c-0.4-0.9-1-0.2-1.4-0.1
			c-0.3,0.1-0.8,0.6-0.8,0.9c0.1,1.2-0.1,2-1.4,2.5c-0.3,0.1-0.5,0.5-0.8,0.8c0.2,0.1,0.3,0.3,0.5,0.4c0.8,0.4,1.7,0.7,2.3,1.3
			c0.7,0.7,1.2,1.7,1.8,2.6c0.6-2.2,1.9-3.6,4.2-4.1c0.1,0,0.1-0.2,0.1-0.3c-0.4-0.5-0.9-1.5-1.3-1.5c-0.6,0-0.7-0.3-0.9-0.6
			C22.2,80.9,21.6,80.3,20.9,79.7z M12.4,62.2c-0.1,0.1-0.2,0.2-0.4,0.4c1,0.7,1.9,1.5,3,2c0.8,0.4,1.5,0.5,1.4,1.6
			c0,0.2,0.1,0.6,0.3,0.7c1.2,0.4,1.3,1.7,1.7,2.6c0.1,0.2,0.3,0.4,0.4,0.6c0.2-0.2,0.7-0.4,0.7-0.6c-0.1-1.7,1-2.9,1.9-4
			c0.3-0.4,0.8-0.9,1.2-0.9c1.6-0.1,2-1.4,2.7-2.4c-0.3-0.3-0.6-0.7-1-0.8c-1.2-0.3-1.9-0.9-2.8-1.7c-0.9-0.9-1.5-1.5-1.5-2.8
			c0-0.8-0.9-1.3-1.7-1c-1.6,0.6-1.5,2-1.7,3.1c-0.6,0.4-1.1,0.6-1.5,0.9c-0.9,0.6-1.7,1.2-2.5,1.8C12.5,61.7,12.5,62,12.4,62.2
			L12.4,62.2L12.4,62.2z M67.8,22.7c0.2,0.1,0.5,0.1,0.7,0.2c0.1,1,1.3,1.7,2.5,1.4c0.1,0,0.1,0,0.2,0.1c0,0.8-0.3,1.8,0.8,2.2
			c0.1,0,0.1,0.3,0.1,0.4c0.2,1.3,0.8,2,1.9,2.1c0.8,0.1,1.7-0.8,1.8-1.9c0.2-1.3,1-1.9,1.9-2.5c0.7-0.4,1.5-0.7,2.2-1.1
			c0.5-0.2,1-0.5,0.3-1.1c0-0.1,0-0.1,0-0.2c-0.3-0.4-0.6-0.8-1-1c-0.5-0.3-1.3-0.2-1.5-0.6c-1-1.4-1.9-2.9-2.9-4.3
			c-0.3-0.5-1-0.9-1.6-0.9c-0.3,0-0.9,0.6-1.1,1.1c-0.2,0.4-0.1,1-0.1,1.5c0,0.7-0.3,1.1-0.9,1.4c-1.1,0.7-2.2,1.4-3.2,2.2
			C67.8,21.7,67.9,22.3,67.8,22.7z M17,45.9c0.4,0.2,1,0.4,1.4,0.8c0.4,0.4,0.7,0.9,0.9,1.2c0.9-0.7,1.7-1.5,2.4-2.1
			c-0.8-0.8-1.6-1.6-2.3-2.2C18.6,44.3,17.8,45.1,17,45.9z M123.4,43.9c0.7,0.6,1.6,1.4,2.3,2c0.8-0.7,1.6-1.4,2.3-2
			c-0.7-0.7-1.6-1.5-2.3-2.2C125,42.5,124.2,43.3,123.4,43.9z M123.7,52.9c0.7,0.7,1.5,1.4,2.1,2.1c0.7-0.7,1.6-1.4,2.2-2
			c-0.7-0.7-1.5-1.4-2.1-2.1C125.2,51.6,124.4,52.3,123.7,52.9z M102.1,23.3c0.5,0.4,0.9,0.8,1.3,1.2c0.4-0.4,0.8-0.8,1.2-1.3
			c-0.4-0.4-0.8-0.8-1.2-1.2C102.9,22.5,102.5,22.9,102.1,23.3z M22.6,71.9c0.4,0.4,0.7,0.7,0.9,0.8c0.3-0.2,0.7-0.5,1.1-0.8
			c-0.3-0.4-0.6-0.7-0.9-1C23.3,71.3,23,71.6,22.6,71.9z M32.9,45c-0.8-0.5-1.3-0.8-2-1.2c0.1,0.5,0.1,1.2,0.4,1.2
			C31.7,45.2,32.3,45,32.9,45z M91,15.5c0,0-0.1-0.1-0.1-0.1c0,0-0.1,0-0.1,0c0,0,0,0.1,0,0.1C90.9,15.6,91,15.5,91,15.5z"/>
		<path class="st1" d="M144.6,70.8c1,1.2,1.3,2.4,0.4,3.8c-0.9,0.3-1.9,0.7-2.8,1c-0.5,0-1-0.1-1.6-0.1c0,0.3,0,0.7,0.1,0.7
			c1.5,0.3,2.2,2.2,3.9,2c0,0,0,0,0,0c0.2,0.1,0.3,0.3,0.5,0.4c0,0,0,0,0,0c0,0.3,0,0.6,0,0.9c-0.8,0-1.5,0-2.3,0
			c-1.3-0.8-2.6-1.7-3.9-2.5c-0.7-0.5-1.5-1.1-2.2-1.6c-8.5-5.5-17.9-8.2-28-7.9c-6.5,0.1-12.8,1.6-19.1,3.3
			c-8.2,2.2-16.3,4.9-24.7,5.9c-5.9,0.7-11.7,0.7-17.5-0.6c1.4,0,2.8,0.1,4.2,0.1c0.4,0,0.9,0,1.3-0.1c0.1,0,0.2-0.7,0.1-0.8
			c-0.3-0.2-0.8-0.3-1.1-0.3c-2,0.2-4.1,0.4-6.1,0.7c-1.8-0.6-3.6-1.1-5.5-1.7c11.8,1.2,23.3,0,34.6-3.6c2-0.6,4-1.2,6-1.8
			c0.3,0,0.5,0,0.8-0.1c4.9-1.4,9.8-2.9,14.7-4.3c7.9-2.3,16-4,24.3-3.2c3,0.7,6.1,1.1,9,2.1c3.2,1,6.2,2.6,9.3,3.9
			c0.3,0.2,0.6,0.3,0.9,0.5c0.4,0.3,0.9,0.5,1.3,0.8c0.3,0.2,0.6,0.4,0.9,0.5C142.9,69.5,143.7,70.1,144.6,70.8z"/>
		<path class="st2" d="M291.8,65.6c0.5-0.2,1-0.3,1.5-0.5c1.3,3.3,3.3,5.7,7.1,5.8c0,6.6-0.1,12.9,0,19.3c0.1,3,0.1,6.1,0.9,9
			c2.6,9.2,11.8,14.1,22.4,12.4c5.9-0.9,7.4-2.6,7.7-8.4c3.8,0.8,6.8,2.6,8.2,6.5c1.7,4.6,0,9.2-4.2,11.7c-8.7,5.1-24.8,2.2-31-5.6
			c-1.3-1.6-2.3-3.3-3.4-5c-0.2,0.1-0.5,0-0.5,0.1c-5.6,11.1-15.7,13.3-26.7,12.6c-4.1-0.3-8-2.2-12.1-3.4c-0.6-0.2-1.5-0.2-1.9,0.1
			c-5.6,4.4-11.9,4-18.2,2.2c-2.2-0.6-3.9-0.4-6.1,0.1c-13.5,3.1-22.5,0.2-28.8-11.6c-2-3.8-2.9-8.3-4.3-12.4c0.7,0.3,1.8,0.5,2,0.9
			c1,2.7,1.7,5.6,2.7,8.3c0.3,0.7,1.2,1.2,1.8,1.7c0.2-0.7,0.4-1.4,0.8-2c0.2-0.5,0.7-0.8,1.1-1.2c0.2,0.2,0.4,0.3,0.5,0.5
			c0.3,0.2,0.7,0.5,1,0.7l0,0c-0.2,2.1,1.3,3.3,2.9,3.8c2.4,0.8,4.9,1.4,7.3,1.6c2.9,0.2,5.7,0.4,8.2-2c1-1,1.6-1.4,1.2-2.6l0.1-0.1
			c1-0.2,2-0.4,3-0.5c1.4,4.2,1.4,4.2,6.4,4.2c0.8,0,1.6,0,2.5,0c6.2,0.1,7.1-1.8,7.8-6.6c0.2-5,0.4-10,0.5-15.1
			c0.1-5.4,0.1-10.8,0-16.2c0-0.6-0.8-1.2-1.2-1.8c-0.1-0.4-0.1-0.9-0.2-1.3c-0.1-0.7-0.2-1.4-0.3-2.1l-0.1,0.1l-0.1-0.1
			c2.5,1.1,5,2.2,7.4,3.3c-0.2,0.1-0.7,0.2-0.7,0.3c-0.6,3.1-0.2,6.2,1.3,8.8c1.4,2.6,3.5,4.8,5.4,7.2c0.2,0.2,0.9,0,1.3,0.1
			c3.5,1.4,7.6,1.6,9.8,5.5c0.9,1.7,0.5,2.8-0.9,3.3c-2.1,0.7-4.4,0.9-6.6,1.4c-1.6-0.6-3.2-1.3-4.9-1.8c-0.8-0.3-1.6-0.5-2.4-0.4
			c-1.9,0.3-5.1,4.1-5.5,6.2c-0.5,3.1,1.5,4.6,3.8,5.7c5.4,2.8,11.2,3.7,17.1,2.9c8.6-1.1,14.8-6.7,16-14.1
			c1.2-7.2-2.1-12.4-10.6-16.8c-2.2-1.1-4.5-2.2-6.7-3.3c-1.7-0.9-2.7-2.7-1.9-4.4c0.7-1.3,2.6-2.8,3.9-2.7c2.7,0.1,5.3,1,7.9,1.9
			c3,1,5.8-0.1,6.9-3.1C291.5,67.8,291.6,66.7,291.8,65.6z"/>
		<path class="st2" d="M490.8,65.5c0.7,0.1,1.4,0.2,2.1,0.4c1.5,0.6,2.9,1.1,4.4,1.7c-0.4,1.8-1,3.7-1,5.5
			c-0.1,10.9-0.1,21.9,0,32.8c0,0.5,0.7,1.1,1.1,1.6c0.5,0.2,0.9,0.4,1.4,0.5c0.2,0,0.3,0.1,0.2,0.3c-0.6,1.7,0.5,2.5,1.8,3
			c2.4,0.8,2.4,2.5,2,4.6c-0.1,0.7,0.1,1.5,0.2,2.2c0.3,0,0.6,0,0.9-0.1c0.1-0.4,0.2-0.9,0.2-1.3c-0.5-3,0.6-4.2,3.7-3.9
			c1.7,0.2,4.8-2.8,5.1-4.7c0.4-2.7,0.7-5.4,1.2-8c0.2-0.9,1.1-1.7,1.6-2.6c0.9,1,2.6,2,2.6,2.8c-0.1,2,0.6,3,2.2,3.5
			c2.3,0.8,2.4,2.2,2,4.3c-0.2,1.3-1.7,3,0.4,4.2c0,0.4,0,0.7,0,1.1c0.1,0.5,0.1,1.1,0.2,1.6c1,2.5-0.8,4-2.3,5.3
			c-5.9,5.2-16.3,3.9-20.8-2.5c-0.7-1-1.4-2.1-2.1-3.2c-10.3,10.3-27.3,12.2-39.2,4.4c-7.1,5.6-14.8,5.5-22.9,2.6
			c-0.5-0.2-1.1-0.2-1.5-0.1c-17.5,6.1-27.8-1.9-32.8-14.5c-0.9-2.3-1.1-5-1.6-7.5c0.3,0.3,0.9,0.5,1,0.8c0.9,2.5,1.7,5,2.3,6.8
			c2,0.1,3.7,0.2,5.4,0.2c2.1,1,4.1,2.1,6.2,2.8c7.6,2.4,11.9,0.8,16.3-5.7c0.4-0.5,0.7-1,1.2-1.8c0.2,1.2,0.3,1.9,0.6,2.7
			c1,3.4,4.8,5.9,8.6,5.5c4.2-0.4,6.2-2.5,6.2-6.9c0-11.8-0.3-23.6-0.4-35.3c3.3,0.9,6.7,1.7,10,2.6c-0.5,3.5,0.2,6.9,1.8,10
			c0.2,1.2,0.2,2.4,0.5,3.5c0.2,0.7,0.6,1.7,1.1,2c2.2,1.1,4.6,1.8,6.9,2.9c2.4,1.2,4.7,2.5,7,3.9c0.4,0.2,0.6,1.5,0.4,1.7
			c-1.1,1.2-2.3,2.6-3.8,3.1c-1.5,0.5-3.3,0.1-4.9,0.1c-0.9-0.3-1.9-0.7-2.8-1c-4.4-1.9-6-1.4-8.9,2.4c-1.8,2.5-1.5,5.1,1,7
			c7,5.4,20.3,6,27.8,1.3c10-6.3,10.2-19.4,0.3-25.8c-2.2-1.4-4.5-2.4-6.8-3.7c-1.3-0.7-2.6-1.6-4-2.4c-0.1-1.4-0.2-2.8-0.2-4.2
			c1.4-0.5,2.7-1.2,4-1.2c2.3,0.1,4.6,0.6,6.8,0.9C487.9,72.8,490.1,70.9,490.8,65.5z"/>
		<path class="st3" d="M251,70.9c0.1,0.4,0.1,0.9,0.2,1.3c0,11,0.1,22,0.1,33c-1.2,4.3-3,6.1-6.7,5.7c-2-0.2-4.3-0.9-5.7-2.1
			c-1.5-1.3-2.1-3.6-3-5.3c-1.1,1.4-2.4,3.1-3.6,4.7c0,0-0.1,0.1-0.1,0.1c-2.7,2.3-5.9,3.7-9.3,2.9c-3.5-0.8-6.9-2.4-10.3-3.6
			c0,0,0,0,0,0c-0.3-0.2-0.7-0.5-1-0.7c-0.2-0.2-0.4-0.3-0.5-0.5c-1.5-2.1-3.2-4-4.5-6.3c-2.5-4.4-2.3-9.3-1.5-14.1c0,0,0,0,0,0
			c0.7-1.7,1.4-3.4,2.1-5.1c0.4-0.7,0.8-1.4,1.2-2.1c1.8-1.7,3.7-3.3,5.5-5c5.7-3.9,12.1-4.9,18.9-4.5c-1.5-0.7-3-1.2-4.4-1.2
			c-4.9-0.1-9.7,0.1-14.6,0.1c-1.2-0.6-2.3-1.2-3.5-1.7c-1.3-3.4-0.8-5.5,2.1-7.3c1.3-0.8,3.1-1,4.6-1.5c6.1,0.4,12.3,0.3,18.4,1.2
			c6.4,1,12.1,3.7,15.4,9.9c0,0,0.1,0.1,0.1,0.1s0.1-0.1,0.1-0.1C250.8,69.5,250.9,70.2,251,70.9z M236.5,88.2
			c0.1-5.2-2.7-8.3-7.6-8.5c-5.9-0.2-10,3.8-10.1,10c-0.1,5,3,8.7,7.5,8.8C232.1,98.7,236.4,94.3,236.5,88.2z"/>
		<path class="st3" d="M502.3,41.1c1.1,0,2.2-0.1,3.3,0c3.8,0.1,5.5,1.7,6.2,5.7c0,9.8,0,19.5,0,29.3c0,0.1,0.3,0.3,0.4,0.4
			c0.4-0.4,0.7-0.7,1.1-1.1c1.5-1.7,3.2-3.2,4.6-5c1.8-2.1,3.4-4.4,5.1-6.6c1.1-0.8,2.4-1.5,3.3-2.6c2.1-2.3,4.5-3.3,7.6-3
			c3.4,0.4,5.3,2.5,5.6,6.5c-0.1,0.2-0.1,0.5-0.2,0.7c-4.8,5.3-9.6,10.5-14.5,15.7c-1.1,1.1-1.3,2-0.3,3.3c2,2.6,4,5.2,5.9,7.9
			c3,4.3,6,8.7,9.1,13c0.3,3.7-1.4,5.7-5,6.1c-4,0.4-7.2-0.8-9.5-4.2c-2.9-4.3-6-8.5-9-12.8c-3.2,2.1-4.9,4.5-4.2,8.2
			c0.1,0.8,0,1.7,0,2.5c-0.1,3.7-1.5,5.3-5.2,5.9c-3,0.5-5.6-0.3-7.7-2.6c0-0.2,0-0.3-0.2-0.3c-0.3-0.6-0.5-1.1-0.8-1.7
			c0-13-0.1-25.9-0.1-38.9c0-5.9-0.1-11.8,0.2-17.7c0.1-2.6,1.1-5.1,1.6-7.6c0,0,0,0,0,0C500.5,41.8,501.4,41.5,502.3,41.1z"/>
		<path class="st3" d="M447.2,68.8c0.2,11.8,0.4,23.6,0.4,35.3c0,4.4-2.1,6.5-6.2,6.9c-3.7,0.4-7.6-2.1-8.6-5.5
			c-0.2-0.8-0.3-1.5-0.6-2.7c-0.5,0.8-0.9,1.3-1.2,1.8c-4.5,6.5-8.8,8.1-16.3,5.7c-2.2-0.7-4.2-1.9-6.2-2.8
			c-5.5-4.5-8.1-10.4-8.2-17.5c0.9-6.7,3.7-12.2,9.3-16.2c5.8-3.9,12.3-5,19.2-4.6c-1.4-0.6-2.8-1.1-4.2-1.1
			c-4.8-0.1-9.5-0.1-14.3-0.1c-1.1-0.7-2.2-1.4-3.3-2.1c-1.1-2.8-0.1-4.9,2.2-6.5c0.4,0.5,0.9,1.5,1.2,1.4c2.4-0.7,5,1.6,7.3-0.4
			c0.3-0.3,1.1-0.2,1.6-0.1c2.2,0.5,4.4,1.4,6.6,1.6c5.3,0.5,10.6,0.8,15.9,1.2C443.6,65.1,445.4,67,447.2,68.8z M432.8,87.9
			c-0.1-5.2-3.1-8.2-8.3-8.1c-5.7,0-9.8,4.4-9.7,10.4c0,4.9,3.3,8.4,7.7,8.4C428.3,98.5,432.8,93.9,432.8,87.9z M413.7,66.1
			c-1.2-1.4-2-2.3-2.8-3.2c-0.2,0.2-0.5,0.4-0.7,0.6C410.3,65.1,410.3,66.8,413.7,66.1z"/>
		<path class="st3" d="M161.7,43.3c2.1-0.7,4.3-1.9,6.5-1.9c9.9-0.1,19.7,0.1,29.6,0.2c6.1,0,6.5,0.3,8.8,5.9
			c-0.6,2.7-1.3,5.3-4,6.8c-0.7,0.2-1.5,0.4-2.2,0.6c-0.2,0-0.4,0.1-0.6,0.1c-0.2,0-0.4,0-0.5-0.1c0,0,0,0,0,0c-8.2,0-16.5,0-24.6,0
			c0,5.3,0,10.4,0,15.5c4.5,0,8.7,0,13,0c2.7,0.1,5.3,0.3,8,0.4c3.1,0.2,5.1,1.8,6.1,4.7c0.2,2.5,0,5-2.3,6.4
			c-1.6,0.9-3.7,1.4-5.7,1.5c-6.3,0.2-12.7,0.1-19.2,0.1c0,1,0,1.7,0,2.4c0,6.5,0,13.1,0,19.6c0,3.3-2.1,5.2-5.3,5.5
			c-4.1,0.4-6.9-1.1-8.6-4.9c0-18.9-0.1-37.7,0-56.6C160.5,47.3,161.3,45.3,161.7,43.3z"/>
		<path class="st3" d="M368.9,105.9c0-12,0-23.9,0-35.9c0-0.9-0.1-1.8-0.2-2.7c0-4.2,0-8.4,0-12.7c-1.4,0-2.8,0-4.2,0
			c-4.1-0.2-8.2-0.4-12.3-0.5c-1.6-1.8-3.7-3.2-3.5-6.2c0.3-3.3,2.1-5.9,5.5-6.2c3.6-0.3,7.2-0.1,10.7-0.1c10.4,0,20.8,0,31.2,0
			c5.4,0,6.5,1,7.8,6.2c-0.3,3.4-1.9,5.7-5.2,6.7c-5.1,0-10.2,0-15.5,0c0,1.4,0,2.3,0,3.2c0,15.3,0,30.6,0,45.9
			c0,5.9-3.2,8.5-8.9,7.1c-1.6-0.4-2.9-1.7-4.4-2.6C369.6,107.4,369.2,106.6,368.9,105.9z"/>
		<path class="st3" d="M331.6,103.2c-0.3,5.8-1.8,7.5-7.7,8.4c-10.7,1.7-19.8-3.2-22.4-12.4c-0.8-2.9-0.9-6-0.9-9
			c-0.1-6.3,0-12.7,0-19.3c-3.9-0.1-5.9-2.5-7.1-5.8c0.9-3.6,2.3-6.7,7.3-6.3c0-2.1-0.1-4,0-5.8c0.3-4.2,1.7-5.9,5.1-6.8
			c3.8-1,6.5,0.2,8.7,3.5c0.1,0.2,0.3,0.5,0.4,0.7c0,2.7,0,5.4,0,8.1c4.2,0.6,8.3-1,11.7,1.8c0.4,1.3,0.8,2.6,1.3,4
			c-0.4,1.5-0.8,3-1.2,4.5c-2,0.7-3.9,1.7-5.9,2.1c-1.7,0.4-3.4,0.1-5.2,0.1c-0.1,0.2-0.3,0.3-0.4,0.5c0.1,7.2,0.1,14.4,0.2,21.6
			c0.1,0.4,0.1,0.8,0.2,1.1c0.7,1.2,1.5,2.5,2.2,3.7c2.6,2.1,5.6,1,8.4,1C329.1,99.1,330.4,101.2,331.6,103.2z"/>
		<path class="st3" d="M291.8,65.6c-0.2,1.1-0.3,2.2-0.7,3.2c-1.1,3-3.9,4.1-6.9,3.1c-2.6-0.9-5.3-1.8-7.9-1.9
			c-1.3-0.1-3.2,1.4-3.9,2.7c-0.9,1.7,0.1,3.4,1.9,4.4c2.2,1.2,4.4,2.2,6.7,3.3c8.5,4.4,11.8,9.6,10.6,16.8c-1.2,7.4-7.4,13-16,14.1
			c-6,0.8-11.8-0.1-17.1-2.9c-2.2-1.2-4.3-2.6-3.8-5.7c0.3-2.1,3.5-5.8,5.5-6.2c0.8-0.1,1.6,0.1,2.4,0.4c1.6,0.5,3.3,1.2,4.9,1.8
			c2,0.2,4,0.7,5.9,0.6c2.3-0.1,4-1.5,4.5-3.8c0.5-2.4-1.3-3.5-3-4.4c-3-1.6-6.2-2.9-9.1-4.6c-5.4-3.2-8.3-7.8-7.5-14.3
			c1.1-6.2,4.4-10.7,10.5-12.7c6.5-2.2,13.1-2.2,19.2,1.2C289.7,61.6,290.6,63.9,291.8,65.6z"/>
		<path class="st3" d="M490.8,65.5c-0.7,5.4-2.8,7.3-7.3,6.5c-2.8-0.7-5.7-1.8-8.6-2.1c-1.1-0.1-2.9,1.3-3.5,2.4
			c-0.8,1.4-0.4,3.2,1.5,4.1c1.3,0.8,2.6,1.6,4,2.4c2.3,1.2,4.6,2.3,6.8,3.7c9.9,6.4,9.7,19.5-0.3,25.8c-7.5,4.7-20.8,4.1-27.8-1.3
			c-2.5-1.9-2.8-4.5-1-7c2.9-3.9,4.4-4.3,8.9-2.4c0.9,0.4,1.9,0.7,2.8,1c2.3,0.2,4.7,0.8,6.9,0.3c1.4-0.3,2.9-2,3.5-3.4
			c0.8-1.8-0.7-3.2-2.4-4.1c-1.1-0.6-2.3-1.2-3.4-1.7c-4.5-2-8.8-4.2-11.8-8.2c-1.7-3.1-2.3-6.5-1.8-10c1.6-5.6,4.7-9.9,10.4-11.9
			c6.6-2.3,13.2-2.3,19.4,1.3C488.7,61.7,489.5,63.9,490.8,65.5z"/>
		<path class="st2" d="M368.9,105.9c0.3,0.7,0.7,1.4,1,2.1c0.1,3.3,0.6,3.8,3.9,3.9c1.9,0.1,3.8,0.3,6,0.5c4.1-1.8,4.6-5.7,4.5-10.2
			c-0.1-13.3,0-26.5,0-39.8c0-7,0-6.9,7.1-7c2.4,0,4.8-0.6,7.2-0.9c3.3-1,4.9-3.4,5.2-6.7c5.4,0.1,9,4,9.3,10
			c-1.3,0.6-2.6,1.2-3.9,1.7c-2.3,1.7-3.3,3.7-2.2,6.5c-2.3,0.2-4.5,0.4-6.8,0.6c-1.2,0.1-2.4,0.1-3.9,0.2c0,4.8,0,9.4,0,14.1
			c-0.3-0.9-0.9-1.9-0.9-2.8c-0.2-1.9,0-3.7,0-5.6c-0.4,0-0.8,0-1.1,0c0,2.8,0,5.6,0,8.4c-0.4,0.8-1,1.6-1,2.4
			c-0.1,5.1,0,10.2-0.1,15.3l0,0c-0.4,0.6-1.1,1.2-1.1,1.9c-0.1,4.8-0.1,9.5,0,14.3c0,0.4,0.3,0.8,0.5,1.2c0.2,0,0.4-0.1,0.6-0.1
			c0-3.2,0-6.4,0-9.5c0.4,0.7,1,1.4,1,2.2c0.2,1.9-0.1,3.8,0.1,5.8c0.1,0.7,0.8,1.4,1.2,2.1c-1.4,1.8-2.5,4.2-4.4,5.3
			c-7.2,4.4-16.1,1.7-20.1-5.7C369.3,112.9,368.2,109.6,368.9,105.9z"/>
		<path class="st2" d="M160.4,106c1.6,3.8,4.5,5.3,8.6,4.9c3.2-0.4,5.3-2.3,5.3-5.5c0.1-6.5,0-13.1,0-19.6c0-0.7,0-1.4,0-2.4
			c6.5,0,12.9,0.1,19.2-0.1c1.9-0.1,4-0.5,5.7-1.5c2.3-1.3,2.5-3.9,2.3-6.4c2.2,1.1,4.4,2.3,6.7,3.4c-0.4,0.7-0.8,1.4-1.2,2.1
			c-0.7,0.2-1.5,0.4-2.1,0.5c0,1.7,0,3.1,0,4.5l0,0c-1.8,0.7-2.8,1.7-1.8,3.9c0.5,1.2,0.3,2.8,0.2,4.2c-0.1,1.1-0.5,2.3-0.7,3.4
			c-0.6-0.6-1.2-1.6-1.8-1.6c-4.3-0.1-8.6-0.1-13.4-0.1c0,4.7,0.1,9,0,13.4c-0.1,2.5,0,5.3-0.8,7.6c-2,5.8-10,8.5-16.6,5.8
			c-5.4-2.2-8.1-6.6-9.5-12c-0.2-0.9-0.4-1.8-0.5-2.7C160.1,107.3,160.3,106.7,160.4,106z"/>
		<path class="st2" d="M141.1,68.3c-0.4-0.3-0.9-0.5-1.3-0.8c0.3-0.3,0.6-0.6,1.2-1.2c-0.5,0-0.9,0-1.1,0.1
			c-0.3,0.1-0.6,0.4-0.9,0.6c-3.1-1.3-6.1-2.8-9.3-3.9c-2.9-1-6-1.4-9-2.1c-0.2-0.4-0.2-1-0.5-1.1c-0.4-0.2-1-0.1-1.4,0.1
			c-1.2,0.8-2.5,0.3-3.7,0.4c0-0.1,0-0.2-0.1-0.4c1.1-0.4,2.3-0.7,3.6-1.1c-1.3-0.6-2.6,0.3-3.7-0.9c0.5-0.1,0.8-0.2,1.2-0.2
			c0.9,0.1,1.8,0.4,2.7,0.4c0.8,0,1.6-0.2,2.4-0.3c0,0-0.1-0.2-0.3-0.3c3.9,0.6,7.8,1.1,11.6,2c3,0.7,5.8,2.1,8.7,3.1
			c0.4,0.2,0.9,0.1,1.4,0.1c1.6,0,1.7,0.1,0.9,1.3c-0.7,1.1,0.1,1.3,0.9,1.8c-0.5,0.3-0.8,0.5-1.3,0.8c0.4,0.1,0.7,0.2,1.2,0.4
			c-0.5,0.7-0.9,1.3-1.2,1.8c0.5,0.7,0.9,1.3,1.3,1.9c-0.9-0.6-1.7-1.3-2.6-1.9c0,0,0.1-0.1,0.1-0.1c0.4-0.3,0.8-0.5,1.3-0.9
			C142.1,67.1,141.6,67.2,141.1,68.3L141.1,68.3z M142.6,66.4c0-0.1,0-0.3,0.1-0.4c-0.2,0-0.4,0-0.6,0c0,0-0.1,0.2-0.1,0.3
			C142.2,66.3,142.4,66.4,142.6,66.4z M143.2,63.6c0,0.1,0,0.1-0.1,0.2c0.1,0,0.1,0.1,0.2,0.1c0,0,0.1-0.1,0.1-0.2
			C143.3,63.6,143.2,63.6,143.2,63.6z"/>
		<path class="st2" d="M539.6,105.3c-3-4.3-6-8.7-9.1-13c-0.1-0.9,0.1-1.9-0.4-2.6c-1.1-1.6-2.4-3-3.6-4.5c-1-1.3-0.5-3.4,0.9-4.3
			c1-0.6,2.3-1.2,2.7-2.2c1.1-3.3,3.9-5.1,6.2-7.2c2.1-1.8,3.2-3.5,3-6.1c0.1-0.2,0.1-0.5,0.2-0.7c3.8-0.4,6.7,1.1,8.6,4.3
			c2.2,3.8,1.9,6.8-1.1,10.1c-3,3.4-6.1,6.6-9.3,9.8c-1.1,1.1-1.2,2-0.3,3.3c3.3,5.1,6.6,10.2,9.8,15.4c1.8,2.9,3.2,6,1.8,9.6
			c-1.9,4.8-7.4,7.3-13.7,6.2c-3.2-0.6-6.2-1.9-8.1-4.7c0.4-0.8,0.8-1.6,1.2-2.4c0.1,0.6,0.2,1.3,0.3,1.9c0.2,0,0.4,0,0.6,0
			c0.1-0.6,0.2-1.3,0.3-1.9c0-0.5,0-1.1,0-1.6c1.7-0.7,3.2-0.7,4.4,1c0.3,0.4,1,0.7,1.4,0.6c1.3-0.1,2.6-0.3,3.9-0.5
			c-0.7-0.9-1.3-1.8-2-2.8c1.8-1.6,3.6-3.3,5.5-5c-1.6-0.9-3.9-1.5-0.7-3c0.5-0.2,0.6-1.4,0.6-2.1c0-0.3-0.7-0.6-1.1-0.9
			c-0.3,0.5-0.7,1.1-1,1.6C540.2,104.2,539.9,104.8,539.6,105.3z"/>
		<path class="st2" d="M202.5,54.2c2.7-1.4,3.4-4.1,4-6.8c6.6,1.1,9.7,4.1,10.3,10.2c-1.6,0.5-3.3,0.7-4.6,1.5
			c-2.9,1.8-3.3,3.9-2.1,7.3c-7.5,0-14.9,0-22.4,0c-0.2,1.5-0.3,2.4-0.4,3.3c-0.7-0.2-1.5-0.7-2.2-0.7c-2.2,0.1-4.5,0.4-6.7,0.7
			c-1.8,0.2-2.5-0.5-2.4-2.3c0.1-3.2,0.1-6.5,0-9.7c-0.1-1.8,0.6-2.4,2.4-2.4c6,0.1,12,0.1,18,0c0.9,0,1.9-0.4,2.8-0.6c0,0,0,0,0,0
			c0.2,0,0.4,0,0.5,0.1c0.2,0,0.4-0.1,0.6-0.1C201.3,55.7,202.2,55.9,202.5,54.2z"/>
		<path class="st2" d="M326.7,68.8c0.4-1.5,0.8-3,1.2-4.5c4.9,0.1,8.5,3.9,9.1,9.3c0.5,4.2-2.5,8.1-7.1,9c-1.6,0.3-1.9,1.2-1.9,2.5
			c0,3.8,0,7.5,0.1,11.3c0.1,1.6-0.1,2.6-2,2.7c-2.9,0-5.8,1.1-8.4-1c-0.5-1.6-1.5-3.2-1.5-4.9c-0.1-5,0.3-9.9,0.4-14.9
			c0.1-1.8-0.5-4.2,0.4-5.4c0.8-1,3.4-0.3,5-1C323.8,71.3,326.7,72,326.7,68.8z"/>
		<path class="st2" d="M130.2,105.7c-2.8-1.4-5.6-2.8-8.4-4.1c-0.8-0.4-1.8-0.6-2.7-1c-0.3-0.1-0.6-0.5-0.6-0.8
			c-0.1-0.6,0-1.2,0.1-2c6,1.2,11.5,3.5,16.7,7.1c1-2.2,2-4.3,2.9-6.4c0.6-1.5,1.1-3.1,1.6-4.6c0.1-0.3,0.4-0.6,0.6-1
			c0.5,0.3,1,0.6,1.5,0.8c-1.8,0.1-1.8,0.2-1.9,1.9c0,0.3-0.2,0.7-0.4,1c-0.2,0.5-0.4,1-0.5,1.5c-0.2,0.4-0.3,0.9-0.5,1.3
			c-0.4,1-0.9,1.9-1.4,2.9c-0.2,0.4-0.5,0.8-0.8,1.3c0.4,0.4,0.9,0.8,1.2,1.3c0.2,0.3,0.2,0.8,0,1.2c-0.3,0.5-0.7,1-1.2,1.5
			c-0.1-0.2-0.4-0.4-0.6-0.8c-0.3,0.3-0.5,0.5-0.9,0.8c0.9,0.5,1.8,1.1,1.4,2.3C134.3,108.6,132.3,107.2,130.2,105.7z M135.4,106.5
			c0-0.1-0.1-0.2-0.1-0.4c-0.2,0.1-0.5,0.2-0.7,0.3c0,0.1,0.1,0.2,0.1,0.3C134.9,106.6,135.2,106.6,135.4,106.5z M136.6,105.3
			c0,0.1,0,0.1-0.1,0.2c0.1,0,0.1,0.1,0.2,0.1c0,0,0.1-0.1,0.1-0.2C136.7,105.4,136.6,105.3,136.6,105.3z"/>
		<path class="st2" d="M512.2,76.5c-0.2-0.1-0.4-0.3-0.4-0.4c0-9.8,0-19.5,0-29.3c1.1,0.2,2.2,0.4,3.2,0.7c4.9,1.3,7.6,4.6,7.8,9.7
			c0.1,2.2,0.1,4.4,0.2,6.6c-1.7,2.2-3.3,4.5-5.1,6.6c-1.4,1.7-3.1,3.3-4.6,5c0-9,0-18,0-27c-0.4,0-0.7,0-1.1,0
			C512.2,57.7,512.2,67.1,512.2,76.5z"/>
		<path class="st2" d="M352.1,54.1c4.1,0.2,8.2,0.4,12.3,0.5c1.4,0.1,2.7,0,4.2,0c0,4.4,0,8.6,0,12.7c-2-0.3-4.1-0.3-6.1-0.8
			c-2.6-0.7-5.3-1.3-7.5-2.7C351.5,61.6,352.2,57.6,352.1,54.1z"/>
		<path class="st4" d="M144.3,87.8c-1.6-1.7-3.2-3.4-4.8-5.1c0.4-0.2,0.8-0.4,1.3-0.5c1-0.1,1.3-0.5,0.7-1.5
			c0.6-0.2,1.1-0.4,1.6-0.6c0.5,0.3,1,0.7,1.5,1c0.8,0.9,1.6,1.7,2.4,2.6C146.1,85,145.2,86.4,144.3,87.8z"/>
		<path class="st5" d="M130.2,105.7c2,1.5,4.1,3,6.1,4.4c2.2,2.1,4.5,4.1,5.6,7.2c-0.9-0.7-1.8-1.4-2.8-2.1c-1-0.8-2.1-1.7-3.1-2.5
			c-1.6-1.2-3.2-2.4-4.8-3.6c0.4,0,0.8-0.1,1.2-0.1c0.2,0,0.5-0.2,0.6-0.3c0.1-0.1-0.1-0.5-0.2-0.6c-0.6-0.4-1.2-0.8-1.9-1
			C130.1,106.9,129.9,106.5,130.2,105.7z"/>
		<path class="st3" d="M409.2,59.5c1.3-0.6,2.6-1.2,3.9-1.7c0.9,0.1,1.8,0.2,2.7,0.2c8.4-0.1,16.9-0.4,24.6,4.1
			c0.5,0.3,1,0.8,1.5,1.2c-5.3-0.4-10.6-0.6-15.9-1.2c-2.2-0.2-4.4-1.1-6.6-1.6c-0.5-0.1-1.3-0.2-1.6,0.1c-2.4,2-4.9-0.3-7.3,0.4
			C410.1,61,409.6,60,409.2,59.5z"/>
		<path class="st2" d="M394.2,80.9c0-2.8,0-5.6,0-8.4c0.4,0,0.8,0,1.1,0c0,1.9-0.1,3.8,0,5.6c0.1,1,0.6,1.9,0.9,2.8
			c0,10.7,0,21.4,0,32.2c0,1.1-0.6,2.2-0.9,3.3c-0.4-0.7-1.1-1.4-1.2-2.1c-0.2-1.9,0-3.8-0.1-5.8c-0.1-0.7-0.7-1.4-1-2.2
			c0-2.6,0-5.2,0-7.8c0,0,0,0,0,0c0.4-0.8,1-1.6,1.1-2.4C394.3,91.1,394.2,86,394.2,80.9z"/>
		<path class="st2" d="M326.6,60.4c-3.4-2.7-7.5-1.1-11.7-1.8c0-2.7,0-5.4,0-8.1c3.2-1.2,7.2,0.1,9.4,3.5
			C325.4,55.9,325.8,58.3,326.6,60.4z"/>
		<path class="st2" d="M258.3,72.2c-0.8,6.5,2.1,11.1,7.5,14.3c2.9,1.7,6.1,3,9.1,4.6c1.7,0.9,3.6,2,3,4.4c-0.5,2.3-2.3,3.7-4.5,3.8
			c-2,0.1-3.9-0.4-5.9-0.6c2.2-0.4,4.5-0.6,6.6-1.4c1.4-0.5,1.9-1.6,0.9-3.3c-2.2-3.9-6.3-4.1-9.8-5.5c-0.4-0.2-1.1,0.1-1.3-0.1
			c-1.9-2.3-4-4.6-5.4-7.2c-1.4-2.7-1.9-5.8-1.3-8.8c0-0.2,0.5-0.2,0.7-0.3C258,72.1,258.1,72.2,258.3,72.2z"/>
		<path class="st5" d="M146.9,83.7c-0.8-0.9-1.6-1.7-2.4-2.6c0,0,0.1-0.1,0.1-0.1c0.1-0.1,0.3-0.3,0.4-0.4c0.7,0.2,0.9-0.3,1.1-0.9
			c0,0,0.1-0.1,0.1-0.1c0.7,0.6,1.5,1.2,2,2c0.3,0.4,0.3,1.2,0.1,1.6C148.2,83.5,147.4,83.5,146.9,83.7z"/>
		<path class="st6" d="M136.1,112.7c1,0.8,2.1,1.7,3.1,2.5c-0.6,0.2-1.2,0.3-1.8,0.5c0-0.1-0.1-0.2-0.1-0.3c-0.3,0.2-0.7,0.4-1,0.6
			c-0.7-0.8-1.5-1.5-2.2-2.3C134.6,113,135.2,112.6,136.1,112.7z"/>
		<path class="st2" d="M410.3,68.2c4.8,0,9.5,0,14.3,0.1c1.4,0,2.8,0.5,4.2,1.1c-6.9-0.4-13.4,0.7-19.2,4.6
			C409.8,72,410.1,70.1,410.3,68.2z"/>
		<path class="st2" d="M202.6,97.5c0.3-1.1,0.7-2.3,0.7-3.4c0.1-1.4,0.3-3-0.2-4.2c-1-2.2,0-3.2,1.8-3.9c-0.8,4.8-0.9,9.7,1.5,14.1
			c1.2,2.2,3,4.2,4.5,6.3c-0.4,0.4-0.8,0.8-1.1,1.2c-0.3,0.6-0.5,1.3-0.8,2c-0.6-0.6-1.6-1-1.8-1.7c-1-2.7-1.7-5.6-2.7-8.3
			c-0.2-0.5-1.3-0.6-2-0.9C202.6,98.3,202.6,97.9,202.6,97.5z"/>
		<path class="st2" d="M400.3,90.1c0.1,7,2.7,13,8.2,17.5c-1.7-0.1-3.4-0.2-5.4-0.2c-0.6-1.7-1.4-4.3-2.3-6.8
			c-0.1-0.3-0.6-0.5-1-0.8C400,96.5,400.1,93.3,400.3,90.1z"/>
		<path class="st2" d="M528.3,116.4c-0.4,0.8-0.8,1.6-1.2,2.4c-0.9-1.3-1.8-2.6-2.7-3.9c0-0.2-0.1-0.5-0.1-0.7
			c2.4-1.8,4.2-1.6,5,0.5c0,0.5,0,1.1,0,1.6C529,116.4,528.7,116.4,528.3,116.4z"/>
		<path class="st5" d="M144.6,78.3c-1.7,0.2-2.4-1.7-3.9-2c-0.1,0,0-0.4-0.1-0.7c0.6,0,1.1,0.1,1.6,0.1c-0.2,0.1-0.5,0.1-0.7,0.2
			c-0.1,0-0.2,0-0.3,0.1c0.1,0,0.2,0.1,0.3,0.1c0.4,0.3,0.8,0.6,1.3,0.8C143.4,77.3,144,77.8,144.6,78.3z"/>
		<path class="st5" d="M141.9,93.8c-0.5-0.3-1-0.6-1.5-0.8c0.4,0,0.9-0.1,1.3,0c1,0.1,2.1,0.2,3.1,0.2
			C143.9,93.3,142.9,93.5,141.9,93.8z"/>
		<path class="st7" d="M141.5,75.8c0.2-0.1,0.5-0.1,0.7-0.2c0.9-0.3,1.9-0.7,2.8-1c-0.1,0.3-0.2,0.8-0.4,0.8c-1,0-1.4,0.8-1.9,1.4
			c-0.4-0.3-0.8-0.6-1.3-0.8C141.5,75.9,141.5,75.9,141.5,75.8z"/>
		<path class="st5" d="M13.9,108.9c1,0.3,2.2,1.7,2.2,2.5c0,0.1-0.2,0.1-0.4,0.2C15.2,110.7,14.5,109.8,13.9,108.9z"/>
		<path class="st5" d="M145.1,79.7c0-0.3,0-0.6,0-0.9c0.4,0.3,0.8,0.6,1.2,0.9c0,0-0.1,0.1-0.1,0.1
			C145.8,79.7,145.4,79.7,145.1,79.7L145.1,79.7z"/>
		<path class="st2" d="M524.3,114.2c0,0.2,0.1,0.5,0.1,0.7c0.4-0.1-0.1,0-1.5,0.3c-0.1-0.5-0.1-1.1-0.2-1.6
			C523.3,113.8,523.8,114,524.3,114.2z"/>
		<path class="st7" d="M502.3,41.1"/>
		<path class="st5" d="M16,111.8c0.2,0.2,0.3,0.5,0.5,0.7C16.3,112.3,16.1,112.1,16,111.8z"/>
		<path class="st5" d="M145.1,78.7c-0.2-0.1-0.3-0.3-0.5-0.4C144.8,78.5,144.9,78.6,145.1,78.7z"/>
		<path class="st6" d="M136,117.5c0.1-0.3,0.2-0.5,0.3-0.8C136.3,117,136.1,117.2,136,117.5z"/>
		<path class="st5" d="M144.8,93.1c0.1-0.1,0.2-0.1,0.3-0.2C145,93,144.9,93.1,144.8,93.1z"/>
		<path class="st8" d="M47.2,76.2c5.8,1.3,11.7,1.3,17.5,0.6c8.5-1,16.6-3.6,24.7-5.9c6.3-1.7,12.6-3.2,19.1-3.3
			c10.2-0.2,19.5,2.5,28,7.9c0.8,0.5,1.5,1.1,2.2,1.6c-0.3,0-0.6,0.1-0.9,0c-0.9-0.3-1.8-0.7-2.8-0.9c-2.4-0.6-4.8-1.1-7.2-1.6
			c-0.9-0.3-1.7-0.6-2.6-0.9c-0.2-0.1-0.3-0.2-0.5-0.2c-6.8-2.1-13.7-2.4-20.6-1c-3.1,0.6-6.2,1.5-9.3,2.2c-0.3,0.1-0.7,0.2-1,0.2
			c-0.1,0-0.2,0-0.3,0.1c-5.9,1.6-11.8,3.2-17.7,4.7c-0.2,0.1-0.4,0.2-0.6,0.3c0,0.1,0,0.1-0.1,0.1c-1.9,0.3-3.8,0.8-5.7,1
			c-3.9,0.5-7.9,1-11.8,1.2c-2.7,0.2-5.5,0-8.2,0c0,0.1,0,0.1,0,0.2c1.5,0.6,2.9,1.3,4.4,1.9c0.4,1.2,0.5,2.6,1.2,3.7
			c5.3,9.1,18,12.5,27.5,7.4c0.2-0.1,0.4-0.2,0.6-0.3l0.1-0.1c0.7-0.4,1.5-0.9,2.2-1.3l0.1,0c0.7-0.6,1.5-1.2,2.2-1.8L87.6,92
			l0.1,0.1c1.7-1.5,2.9-3.4,3.7-5.5c0.3-0.7,0-1.5,0-2.3c0.8-0.3,1.6-0.8,2.5-1c2.2-0.4,4.4-0.7,6.6-0.9c1.5-0.1,3.1,0,4.9,0
			c-0.4,0.4-0.5,0.6-0.7,0.8c-5.7,4.8-11.6,9.4-18.3,12.7c-3.5,1.7-7.1,3.4-10.9,4.3c-4.1,0.9-8.2,1.8-12.3,2.7
			c-4.6,1-9.3,1-13.9,1.1c-3.7,0.1-7.3-0.1-10.9-1.1c-1.6-0.4-3.1-1.2-3.6-2.7c-0.9-2.4-1.5-4.9-1.8-7.4c-0.4-2.5-0.4-5.1-0.5-7.7
			c0-0.1-0.1-0.3-0.2-0.4c0-0.3,0-0.7,0-1c0-10.8,0-21.5,0-32.3c0-1.7,0-3.3,0-5c0.3-0.1,0.7-0.2,1-0.2c2.3,0,4.6,0,6.8,0
			c1,0,1.6,0.2,2.2,1.1c2.9,3.9,8.8,3.9,11.4-0.1c0.5-0.8,1.1-1,1.9-1c14.3,0,28.7,0,43,0c5.1,0,10.2,0,15.4,0
			c-1.9,2.3-3.4,4.8-4.3,7.7c-0.4,1.1-1.1,1.9-2.2,2.3c-1.1,0.4-2.2,0.8-3.3,1.2c-2.6,1-5.1,2-7.6,3c-0.4,0.2-0.9,0.4-1.3,0.6
			c-0.1,0-0.3,0-0.4,0.1c-0.2,0.1-0.4,0.2-0.6,0.3c-5,1.7-9.7,3.9-14.3,6.5C80,67.9,79.9,68,79.9,68l0,0c-1.7,0.8-3.3,1.6-5,2.5
			C63.5,74,52,75.3,40.2,74.1c1.8,0.6,3.6,1.1,5.5,1.7C46.2,75.9,46.7,76.1,47.2,76.2z M45.9,55.5c-2.3,0.9-3.8,3.2-3.9,5.8
			c-0.1,2.8,1.5,5.2,4.1,6.3c2.4,1,5.3,0.5,7.2-1.3c2.5-2.3,2.9-5.7,1-8.5C52.3,55,48.8,54,45.9,55.5z"/>
		<path class="st9" d="M53.9,84.5c-1.5-0.6-2.9-1.3-4.4-1.9c0-0.1,0-0.1,0-0.2c2.7,0,5.5,0.2,8.2,0c3.9-0.3,7.9-0.8,11.8-1.2
			c1.9-0.2,3.8-0.7,5.7-1c-0.2,1.3-0.4,2.7-0.6,4.1c8.2-1.3,16-3.8,23.8-5.9c4.7-0.9,9.4-1.7,14.2-1.6c0.7,0,1.4,0.1,2.2,0.1
			c0,7.4,0,14.7,0,21.8c-3.2,0-6.3-0.3-9.3,0c-4.5,0.3-8.7,2.1-12.8,3.8c-7,3.1-14.1,5.9-21.6,7.7c-2.2,0.5-4.4,0.9-6.6,0.9
			c-7.9-0.1-15.9,0-23.8,0c-3.3,0-6.2-1.1-7.7-4.3c-0.6-1.3-0.9-2.8-0.9-4.3c-0.1-4.4,0-8.9,0-13.3c0-1.4,0-2.9,0.1-4.3
			c0.1,0.1,0.1,0.3,0.2,0.4c0.2,2.6,0.2,5.2,0.5,7.7c0.4,2.5,1,5,1.8,7.4c0.5,1.5,2.1,2.2,3.6,2.7c3.6,1,7.2,1.2,10.9,1.1
			c4.6-0.1,9.3,0,13.9-1.1c4.1-0.9,8.2-1.8,12.3-2.7c3.8-0.9,7.4-2.6,10.9-4.3c6.8-3.3,12.6-7.8,18.3-12.7c0.2-0.2,0.4-0.4,0.7-0.8
			c-1.8,0-3.3-0.1-4.9,0c-2.2,0.2-4.4,0.5-6.6,0.9c-0.9,0.2-1.7,0.6-2.5,1c-0.2-0.2-0.4-0.3-0.6-0.5c-1-0.6-1.8-0.2-2.5,0.5
			c-0.1,0-0.2-0.1-0.3-0.1c-2.2,0.1-4.4,0.3-6.6,0.4c-2.8,0.2-5.5,0.4-8.3,0.5c-2.6,0.1-5.1,0.4-7.7,0.3c-2.6-0.1-5.2-0.5-7.8-0.8
			c-0.6-0.9-1.5-1.4-2.6-1C54.7,83.9,54.3,84.2,53.9,84.5z"/>
		<path class="st6" d="M112,34c2.5,1.6,3.2,4.1,2.9,6.9c-0.4-0.3-0.8-0.8-1.2-0.8c-0.4,0-0.8,0.5-1.3,0.8c-0.1,0.1-0.4,0-0.6,0
			c-2.4-0.2-4.8-0.3-7.2-0.4c-0.7,0-0.7-0.4-0.7-0.9c0.3,0.1,0.6,0.4,0.9,0.4c0.9,0.2,1.8,0,2.1-0.8c0.4-0.8,0.4-1.9-0.6-2.4
			c-0.6-0.3-1.5-0.3-2.1-0.1c-0.9,0.4-1,1.3-0.6,2.2c0.1,0.2,0.2,0.4,0.3,0.6c-0.1,0.3-0.3,0.5-0.5,0.8c-0.2,0.2-0.5,0.5-0.8,0.6
			c-0.2,0-0.4-0.3-0.6-0.6c-0.2-0.2-0.4-0.5-0.7-0.9c-0.5,1.8-1,1.9-2.3,0.8c-0.2-0.2-0.5-0.2-0.7-0.3c0.2-0.1,0.5-0.2,0.5-0.4
			c0.3-0.7,0.7-1.4,0.6-2c-0.1-0.5-0.7-1-1.3-1.2c-0.8-0.3-1.5,0-2,0.8c-0.8,1.3,0,2.5,1.7,2.8c0,0.1,0.1,0.3,0.1,0.4
			c-1.1,0.2-2.2,0.4-3.3,0.4c-1.1,0-2.1-0.4-3.2-0.4c-1.2,0-2.3,0.3-3.5,0.4c-1.7,0.1-3.4,0-5.1,0c-0.3,0-0.7,0.3-1,0.4
			c-8.5,0-17,0-25.5,0c-0.6,0-1.3-0.1-1.6,0.7c0-3.1,0-6.2,0-9.4c3,0,5.9,0,8.9,0.1c0.3,0.1,0.6,0.4,0.9,0.4c4.2,0,8.5,0,12.7,0
			c0.3,0,0.6-0.3,0.9-0.4c8.9,0,17.9,0,26.8,0c1.1,0,2.3,0.2,3.4,0.4C109.8,33.4,110.9,33.8,112,34z M88.5,38.1
			c0,0.9,0.9,1.9,1.9,1.9c1.1,0,1.9-0.7,1.9-1.8c0-1-0.7-1.8-1.7-1.9C89.5,36.3,88.6,37.1,88.5,38.1z"/>
		<path class="st10" d="M90.4,110.9c-2.7,1.5-5.3,3-8.1,4.4c-5.8,2.9-12,4.5-18.4,5.7c-5.2,1-10.5,1.4-15.8,1.1
			c-2.5-0.1-5-0.6-7.4-0.9c-0.1-0.1-0.3-0.1-0.4-0.2c-4.5-1-8.7-2.8-11.9-6.3c-2.4-2.7-3.4-5.8-3.1-9.4c0.2-2.2,1-4.1,2-6
			c0.3-0.4,0.6-0.8,1-1.4c0,0.4,0,0.7,0.1,0.9c-0.6,2.5-0.8,5,0,7.6c0.8,3.3,3,5.6,6,7c4.5,2.3,9.4,3.2,14.5,3.5
			c8.7,0.4,17.2-1.1,25.6-3.3c7.1-1.9,13.7-4.8,20.3-7.9c4.4-2.1,9-3.7,14-3.5c1.5,0.1,3,0.3,4.5,0.4c-0.3,0.1-0.7,0.4-1,0.4
			c-1.5,0.1-3,0.1-4.5,0.2c-1.9,0-3.6,0.7-5.3,1.3c-1.3,0.5-2.5,1.2-3.7,1.8c-1.6,0.8-3.1,1.5-4.7,2.3
			C92.7,109.2,91.5,110.1,90.4,110.9z"/>
		<path class="st11" d="M80.1,67.9c4.6-2.6,9.4-4.7,14.3-6.5c0.2-0.1,0.4-0.2,0.6-0.3c0.1,0,0.3,0,0.4-0.1c0.4-0.1,0.8-0.1,1.2-0.2
			c3-0.7,5.9-1.5,8.9-2.1c3.1-0.6,6.3-0.9,9.5-1.4c0,0,0,0,0,0c0.3,0.1,0.6,0.3,0.9,0.3c1.4,0,2.7,0,4.1,0c0.4,0,0.7,0,1.1,0
			c0.1,0.2,0.3,0.3,0.3,0.3c-0.8,0.1-1.6,0.3-2.4,0.3c-0.9,0-1.8-0.3-2.7-0.4c-0.3,0-0.7,0.1-1.2,0.2c1,1.2,2.4,0.3,3.7,0.9
			c-1.4,0.4-2.5,0.8-3.6,1.1c0,0.1,0,0.2,0.1,0.4c1.2-0.1,2.5,0.5,3.7-0.4c0.3-0.2,1-0.3,1.4-0.1c0.3,0.1,0.3,0.7,0.5,1.1
			c-8.3-0.7-16.4,0.9-24.3,3.2c-4.9,1.4-9.8,2.9-14.7,4.3c-0.2,0.1-0.5,0.1-0.8,0.1c-0.5,0-1,0.1-1-0.7c0,0,0,0,0,0
			C79.9,68,80,67.9,80.1,67.9z"/>
		<path class="st11" d="M98.5,78.3c-7.9,2.1-15.7,4.6-23.8,5.9c0.2-1.5,0.4-2.8,0.6-4.1c0,0,0.1-0.1,0.1-0.1
			c0.2-0.1,0.4-0.2,0.6-0.3c5.9-1.6,11.8-3.2,17.7-4.7c0.1,0,0.2,0,0.3-0.1C94.4,76.6,96.7,78.3,98.5,78.3z"/>
		<path class="st1" d="M114,46.2c-5.1,0-10.2,0-15.4,0c-14.3,0-28.7,0-43,0c-0.8,0-1.4,0.1-1.9,1c-2.7,4-8.5,4-11.4,0.1
			c-0.6-0.9-1.2-1.1-2.2-1.1c-2.3,0.1-4.6,0-6.8,0c-0.3,0-0.7,0.2-1,0.2c-0.1,0.5-0.1,0.9-0.2,1.4c-0.3-0.3-0.7-0.6-0.9-0.9
			c-0.3-1,0.5-1.3,1.8-1.1c0.7,0.1,1.4,0,2.1-0.1c-0.1-0.6-0.2-1.1-0.3-1.5l0,0c1,0,2,0,3.1,0c0.2,0,0.4,0.3,0.5,0.4
			c-0.2,0.1-0.3,0.4-0.5,0.4c-0.4,0.1-0.9,0.1-1.3,0.1c0,0.1,0,0.3,0,0.4c1.8,0.1,3.5,0.1,5.3,0.2l0,0.1l0,0l-0.1,0
			c0.1-0.3,0.2-0.6,0.2-0.9c0.2-1.5,0.1-1.6-1.4-1.6c-2,0-3.9,0-5.9,0l0,0c0.5-0.2,0.9-0.3,1.4-0.4c0.8-0.2,1.5-0.3,2.3-0.4
			c0.9,0,1.8,0,2.7,0c0-3.4,0-6.5,0-9.7c0-0.4,0-0.9,0-1.4c-0.6,0-1.2,0.1-1.8,0.1c0.8-1.2,1.6-0.2,2.7-0.1c0-1.6,0-3.2,0-4.8
			c0.2,0,0.3,0,0.5,0c0,0.9,0,1.7,0,2.6c0,4.8,0,9.6,0,14.4c0,0.8,0.1,1.5,1.2,1.6c0.1,0.1,0.1,0.3,0.2,0.4c0,0.9,0.4,1.5,1.4,1.4
			c2.3,1.2,4.4,0.7,6.3-0.9c0.3,0.7,0.6,0.7,0.9,0c0.5-1.1,1-2.1,2.1-2.7c0.1,0.3,0.1,0.6,0.2,0.9c-0.3,0.3-0.6,0.7-0.9,1
			c0.1,0.2,0.2,0.3,0.2,0.3c2.1,0.2,4.2,0.5,6.4,0.5c7.4,0.1,14.8,0,22.2,0c1.5,0,2.9-0.2,4.4-0.2c6.2,0,12.5,0,18.7,0
			c2.4,0,4.7-0.2,7.1-0.2c0.7,0,1.4,0.4,2.1,0.6C114.7,46.2,114.3,46.2,114,46.2z"/>
		<path class="st6" d="M43.8,45.4c-0.1-0.1-0.1-0.3-0.2-0.4c0-0.1-0.1-0.3-0.1-0.4c0.1-0.3,0.3-0.7,0.3-1c0-4.4,0-8.7,0-13.1
			c0-0.3-0.1-0.5-0.1-0.8c-0.1,0-0.2,0-0.4,0c0,4.8,0,9.6,0,14.4c-0.1-0.5-0.2-0.9-0.2-1.4c0-5.3,0-10.6,0-15.9c0.1,0,0.1,0,0.2-0.1
			c0,0,0.1,0,0.1,0c0,0.4,0,0.8,0,1.3c0.3-0.2,0.5-0.3,0.8-0.5c0.2,1.5,0.4,2.9,0.6,4.3c0.1,0.5,0.2,0.7,0.7,0.4c0,0.3,0,0.6,0,0.9
			c0.1,2,0,4.1,0.2,6.1c0.2,1.6,1.2,2.3,2.8,2.3c1.6,0,2.8-0.8,2.9-2.3c0.2-2.6,0.1-5.3,0.2-7.9c0-0.1-0.2-0.2-0.3-0.3
			c0-0.9,0.1-1.8,0.1-2.7c0-0.7,0-1.4,0.1-2c0.3,0,0.6,0,0.9-0.1c0.1,0.2,0.2,0.4,0.3,0.7c0,0.3,0,0.7,0,1c0,0.3,0,0.5,0,0.8
			c0,0.4,0,0.7,0,1.1c0,0.7,0,1.3,0,2c0,0.5-0.1,1.1-0.1,1.6c0,3.6,0,7.1-0.1,10.7c-0.3,0.6-0.6,1.2-0.9,1.8c-1.9,1.7-4,2.2-6.3,0.9
			C44.8,46.4,44.3,45.9,43.8,45.4z"/>
		<path class="st12" d="M63.9,32.8c-3,0-5.9,0-8.9-0.1c0-0.4,0-0.9,0.1-1.3c1.7,0,3.5,0,5.2,0c1.9,0,3.8,0,5.7,0c2.4,0,4.7,0,7.1,0
			c0.2,0,0.5,0,0.7,0c3.9,0,7.8,0,11.7,0c6.8,0,13.6,0,20.5,0c1.8,0.1,3.6,0.4,5.1,1.5c0.4,0.3,0.7,0.8,1,1.2
			c-1.1-0.3-2.2-0.6-3.4-0.9c-1.1-0.2-2.2-0.4-3.4-0.4c-8.9,0-17.9,0-26.8,0C73.6,32.8,68.7,32.8,63.9,32.8z"/>
		<path class="st13" d="M98.6,106.2c1.2-0.6,2.5-1.3,3.7-1.8c1.7-0.7,3.4-1.3,5.3-1.3c1.5,0,3-0.1,4.5-0.2c0.3,0,0.7-0.3,1-0.4
			c3.4,0.9,6.8,1.5,10,2.6c2.5,0.8,4.7,2.3,7.1,3.5c-0.5,0.3-0.9,0.6-0.4,1.3c0.2,0.2,0.9,0.8,0.1,1.3c-4.6-2.3-9.3-4.1-14.3-5.4
			c-0.4-0.1-0.7-0.1-1.1-0.2c-2.5-0.3-5-0.9-7.5-0.8C104.2,104.9,101.4,105.7,98.6,106.2z"/>
		<path class="st9" d="M90.4,110.9c1.2-0.8,2.3-1.6,3.5-2.4c0.3,0,0.6,0.1,0.9,0c3.1-0.5,6.3-1.1,9.4-1.4c2.4-0.2,4.8,0,7.1,0
			c0.7,0.1,1.3,0.3,2,0.4c-0.3,1.7-2.2,3.4-4.5,3.4C102.6,111,96.5,110.9,90.4,110.9z"/>
		<path class="st9" d="M114,46.2c0.3,0,0.6,0,0.9,0c0,3.7,0,7.4,0,11.1c-3.2,0.5-6.3,0.8-9.5,1.4c-3,0.6-5.9,1.4-8.9,2.1
			c-0.4,0.1-0.8,0.2-1.2,0.2c0.4-0.2,0.8-0.5,1.3-0.6c2.5-1,5.1-2,7.6-3c1.1-0.4,2.2-0.8,3.3-1.2c1.1-0.4,1.8-1.1,2.2-2.3
			C110.7,51,112.2,48.5,114,46.2z"/>
		<path class="st6" d="M41,32.7c0,3.1,0,6.3,0,9.7c-0.9,0-1.8,0-2.7,0c-1.8,0-3.6,0-5.3-0.1c0.3-1.3,0.5-2.6,0.8-3.9
			C34.7,35.2,37.6,32.8,41,32.7z"/>
		<path class="st10" d="M68.5,22.9c-0.2-0.1-0.5-0.1-0.7-0.2c0.2-0.2,0.4-0.5,0.7-0.6c2.5-0.9,4.2-2.5,4.9-5
			c0.1-0.3,0.2-0.6,0.4-0.9c0.2,0.1,0.3,0.1,0.3,0.1c0.1,0,0.1,0.1,0.1,0.2c0.9,3.1,3,5,6,5.8c0,0.1,0,0.1,0,0.2
			c-0.3,0.1-0.6,0.3-0.9,0.4c-1.9,0.5-3.2,1.8-4.2,3.4c-0.4,0.7-0.8,1.5-1.2,2.4c-0.4-0.9-0.7-1.7-1.2-2.4c-0.5-0.7-1.1-1.3-1.6-1.9
			c-0.1,0-0.1-0.1-0.2-0.1C70.2,23.8,69.3,23.3,68.5,22.9z"/>
		<path class="st1" d="M107.7,43.2c0.3,0.1,0.7,0.4,1,0.4c1.7,0,3.3,0,5,0c0.4,0,0.7,0,1.1,0.3c-18.6,0-37.9,0-58,0
			c0-0.1,0-0.1,0-0.2c0.3,0,0.6-0.1,0.9-0.1c1.7,0,3.5,0,5.2,0c0.3,0,0.7-0.3,1-0.4c8.7,0,17.4,0,26.1,0c1.2,0,2.4,0.3,3.5,0.4
			c0.4,0,0.9,0,1.4,0c0.7-0.1,1.3-0.3,2-0.4c1.4-0.2,2.8,0.2,4.2,0.1C103.2,43,105.5,43.2,107.7,43.2z"/>
		<path class="st14" d="M128,74.7c2.4,0.5,4.8,1,7.2,1.6c0.9,0.2,1.8,0.6,2.8,0.9c0.3,0.1,0.6,0,0.9,0c1.3,0.8,2.6,1.7,3.9,2.5
			c0.1,0.1,0.2,0.3,0.3,0.4c-0.5,0.2-1,0.4-1.6,0.6c0.6,0.9,0.3,1.4-0.7,1.5c-0.4,0-0.8,0.3-1.3,0.5c-1.7-1.4-3.3-2.8-5.1-4
			C132.4,77.2,130.1,76,128,74.7z"/>
		<path class="st1" d="M112.1,107.8c-2.4,0-4.8-0.2-7.1,0c-3.2,0.3-6.3,0.9-9.4,1.4c-0.3,0-0.6,0-0.9,0c1.6-0.8,3.1-1.5,4.7-2.3
			c2.8-0.5,5.6-1.3,8.5-1.4c2.5-0.1,5,0.5,7.5,0.8C114.7,107.8,113.1,107.2,112.1,107.8z"/>
		<path class="st1" d="M54.8,44.1c-0.1-0.3-0.1-0.6-0.2-0.9c0-0.2,0-0.5,0-0.7c0.2-0.1,0.3-0.2,0.5-0.2c13.6,0,27.3,0,40.9,0
			c6.3,0,12.7,0,19,0c0,0.2,0,0.3,0,0.5c-19.5,0-38.9,0-58.4,0c-1.1,0.7-1.1,0.8-0.2,2C55.3,45.3,54.9,45.1,54.8,44.1z"/>
		<path class="st15" d="M12.4,62.2c0.1-0.2,0.1-0.5,0.2-0.6c0.8-0.6,1.7-1.2,2.5-1.8c0.4-0.3,0.9-0.6,1.5-0.9
			c0.1-1.1,0.1-2.5,1.7-3.1c0.8-0.3,1.7,0.1,1.7,1c-0.1,1.3,0.6,1.9,1.5,2.8c0.9,0.8,1.6,1.5,2.8,1.7c0.4,0.1,0.7,0.5,1,0.8
			c-0.7,1-1.1,2.3-2.7,2.4c-0.4,0-0.9,0.5-1.2,0.9c-1,1.2-2,2.3-1.9,4c0,0.2-0.4,0.4-0.7,0.6c-0.1-0.2-0.3-0.4-0.4-0.6
			c-0.5-0.9-0.5-2.1-1.7-2.6c-0.2-0.1-0.3-0.5-0.3-0.7c0.1-1-0.7-1.2-1.4-1.6c-1.1-0.5-2-1.3-3-2C12.2,62.4,12.3,62.3,12.4,62.2
			c0.2,0.1,0.4,0.4,0.7,0.4c2.1,0.6,3.6,1.8,4.6,3.7c0.3,0.7,0.6,1.4,1.1,2.4c1-3.4,3-5.6,6.4-6.4c-3.4-1-5.4-3.1-6.4-6.3
			C17.7,59.4,15.6,61.4,12.4,62.2z"/>
		<path class="st1" d="M56.6,42.7c19.5,0,38.9,0,58.4,0c-0.3,0.2-0.7,0.4-1,0.4c-2.1,0-4.2,0-6.3,0c-2.2,0-4.4-0.2-6.6,0.1
			c-1.5,0.2-2.8-0.2-4.2-0.1c-0.7,0.1-1.3,0.3-2,0.4c-0.4,0.1-0.9,0.1-1.4,0c-1.2-0.1-2.4-0.4-3.5-0.4c-8.7,0-17.4,0-26.1,0
			c-2.1,0-4.2,0-6.3,0C57.3,43.2,56.9,42.9,56.6,42.7z"/>
		<path class="st16" d="M114.9,42.2c-6.3,0-12.7,0-19,0c-13.6,0-27.3,0-40.9,0c0-0.1,0-0.2,0-0.2c0.3-0.8,1-0.7,1.6-0.7
			c0.3,0.2,0.5,0.4,0.8,0.4c1.3,0,2.5,0,3.8,0c17.9,0,35.8,0,53.7,0C114.9,42,114.9,42.1,114.9,42.2z"/>
		<path class="st11" d="M114.9,41.8c-17.9,0-35,0.8-53,0.8c-1.3,0-3.3-0.8-4.6-0.8c-0.3,0-0.5-0.3-0.8-0.4c8.5,0,17,0,25.5,0
			c10.9,0,21.9,0,32.8,0C114.9,41.5,114.9,41.7,114.9,41.8z"/>
		<path class="st10" d="M25.1,83.6c0,0.1-0.1,0.3-0.1,0.3c-2.3,0.5-3.6,1.9-4.2,4.1C20.2,87,19.7,86,19,85.3
			c-0.6-0.6-1.5-0.9-2.3-1.3c-0.2-0.1-0.3-0.3-0.5-0.4c2.3-0.4,3.6-1.9,4.3-4.1c0.1,0.1,0.2,0.1,0.3,0.2
			C21.6,81.8,22.9,83.1,25.1,83.6z"/>
		<path class="st16" d="M114.9,41.4c-10.9,0-21.9,0-32.8,0c0.3-0.2,0.7-0.4,1-0.4c1.7,0,3.4,0,5.1,0c1.2,0,2.4-0.4,3.5-0.4
			c1.1,0,2.1,0.4,3.2,0.4c1.1,0,2.2-0.3,3.3-0.4c0-0.1-0.1-0.3-0.1-0.4c0.1,0,0.3,0,0.4,0c0.2,0.1,0.5,0.1,0.7,0.3
			c1.3,1.1,1.8,1,2.3-0.8c0.3,0.4,0.5,0.6,0.7,0.9c0.2,0.2,0.5,0.6,0.6,0.6c0.3,0,0.5-0.3,0.8-0.6c0.2-0.2,0.3-0.5,0.5-0.8l0,0
			c0,0.5,0,0.9,0.7,0.9c2.4,0.1,4.8,0.3,7.2,0.4c0.2,0,0.4,0.1,0.6,0c0.4-0.3,0.8-0.8,1.3-0.8c0.4,0,0.8,0.5,1.2,0.8
			C114.9,41.1,114.9,41.2,114.9,41.4z"/>
		<path class="st12" d="M41,32.7c-3.4,0.1-6.3,2.5-7.2,5.7c-0.3,1.3-0.5,2.6-0.8,3.9c-0.3,0-0.5,0-0.8,0c-0.4-5.8,1.8-9.2,7-10.9
			c0.6,0,1.1-0.1,1.8-0.1C41,31.8,41,32.2,41,32.7z"/>
		<path class="st17" d="M27.2,99.3c-1,1.9-1.8,3.8-2,6c-0.3,3.6,0.7,6.7,3.1,9.4c3.2,3.5,7.3,5.3,11.9,6.3c0.1,0,0.3,0.1,0.4,0.2
			c-1.3-0.2-2.7-0.3-4-0.6c-1.2-0.3-2.4-0.8-3.5-1.2c-0.6-0.2-1.2-0.6-1.7-1c-1.2-1-2.5-2-3.4-3.2c-0.9-1.2-2.3-2.3-2.4-4
			c-1.6-1.3-0.8-3.2-1.2-4.8c-0.3-1.4,0.6-3.2,1.1-4.7c0.1-0.4,0.5-0.8,0.5-1.2C26,99.2,26.5,99.2,27.2,99.3z"/>
		<path class="st18" d="M32,88.3c-0.2-0.5-0.4-0.9-0.4-1.4c0-11.8,0-23.6,0-35.4c0-0.8,0-1.7,0-2.5c0-0.3,0.3-0.6,0.4-0.9
			C32,61.6,32,75,32,88.3z"/>
		<path class="st17" d="M93.8,19c0.6,0,1.1,0,1.1,0.8c0,0.8-0.5,1.1-1.2,1c-1-0.1-1.7,0-1.6,1.3c0,0.6-0.8,0.7-1.4,0.3
			c-1-0.6-2-1.2-3-1.8c-0.7-0.4-1.1-1.3-0.5-1.9c1-0.9,2-1.8,3.1-2.6c0.2-0.2,0.8-0.1,1,0c0.7,0.8,1.2,1.7,1.8,2.5
			c-0.8-0.7-1.6-1.4-2.3-2c-0.9,0.8-1.8,1.6-2.8,2.5c1.3,0.2,2.2,1.2,2.9,2.9C91.3,20.3,92.6,19.7,93.8,19z"/>
		<path class="st1" d="M95,74.7c3.1-0.7,6.2-1.6,9.3-2.2c7-1.4,13.9-1,20.6,1c0.2,0.1,0.3,0.2,0.5,0.2c-1.7,0.1-3.3-0.2-4.9-0.8
			c-1.1-0.4-2.3-0.4-3.5-0.6c-1.2-0.2-2.4-0.5-3.6-0.4c-2,0.1-4,0.5-6,0.8c-0.5,0.1-0.2,0.8-0.7,0.8c-1.3,0.2-3.3-0.2-4.6,0
			c-1.1,0.2-2.3,0.4-3.4,0.6C97.4,74.4,96.2,74.5,95,74.7z"/>
		<path class="st15" d="M80.3,22.3c-3.1-0.9-5.1-2.7-6-5.8c0-0.1-0.1-0.1-0.1-0.2c-0.1,0-0.1-0.1-0.3-0.1c-0.1,0.3-0.3,0.6-0.4,0.9
			c-0.8,2.5-2.5,4.1-4.9,5c-0.3,0.1-0.5,0.4-0.7,0.6c0.1-0.4,0-0.9,0.2-1.1c1-0.8,2.1-1.5,3.2-2.2c0.5-0.3,0.9-0.7,0.9-1.4
			c0-0.5-0.1-1.1,0.1-1.5c0.2-0.5,0.7-1.1,1.1-1.1c0.6,0,1.2,0.5,1.6,0.9c1,1.4,1.9,2.9,2.9,4.3c0.3,0.4,1.1,0.3,1.5,0.6
			C79.6,21.4,79.9,21.9,80.3,22.3z"/>
		<path class="st12" d="M124.5,83.3c0.5,1.6,1.8,2.4,3.2,3.1c-1.6,0.4-2.7,1.4-3.2,3.2c-0.6-1.9-1.8-2.8-3.3-3.3
			C122.9,86,123.7,84.7,124.5,83.3z"/>
		<path class="st14" d="M129.9,111.2c0.8-0.5,0.1-1-0.1-1.3c-0.5-0.7-0.1-1,0.4-1.3c0.4,0.2,0.7,0.3,1.1,0.5
			c1.6,1.2,3.2,2.4,4.8,3.6c-0.9-0.1-1.5,0.3-2,1C132.7,112.8,131.3,112,129.9,111.2z"/>
		<path class="st12" d="M131,90.6c0.8,1.2,1.6,2.5,3.3,2.9c-1.4,0.6-2.6,1.3-3.1,2.9c-0.2-0.3-0.3-0.4-0.4-0.6
			c-0.4-1.4-1.6-1.9-3-2.3C129.4,93,130.4,92.1,131,90.6z"/>
		<path class="st17" d="M71.2,24.3c0.6,0.6,1.2,1.2,1.6,1.9c0.5,0.7,0.8,1.5,1.2,2.4c0.4-0.9,0.8-1.6,1.2-2.4
			c0.9-1.7,2.2-2.9,4.2-3.4c0.3-0.1,0.6-0.3,0.9-0.4c0.7,0.6,0.2,0.9-0.3,1.1c-0.7,0.4-1.5,0.6-2.2,1.1c-0.9,0.6-1.7,1.3-1.9,2.5
			c-0.1,1.1-1.1,2-1.8,1.9c-1.1-0.1-1.7-0.8-1.9-2.1c0-0.1,0-0.4-0.1-0.4C70.9,26.1,71.2,25.1,71.2,24.3z"/>
		<path class="st15" d="M124.5,83.3c-0.8,1.3-1.6,2.7-3.4,3c1.6,0.6,2.8,1.4,3.3,3.3c0.5-1.9,1.6-2.8,3.2-3.2c0.1,0.6,0,1-0.6,1.4
			c-0.6,0.4-1,1-1.5,1.5c-0.9,0.9-2,0.6-2.5-0.6c-0.2-0.5-0.8-1.1-1.3-1.2c-0.8-0.2-1.4-0.5-1.2-1.2c0.1-0.5,0.8-0.9,1.3-1.3
			c0.2-0.1,0.5-0.1,0.8-0.1c-0.5-1.1,0.3-1.6,1-2C123.9,83,124.2,83.2,124.5,83.3z M121.7,85.5C121.8,85.5,121.8,85.5,121.7,85.5
			c0.1,0,0.1,0,0.1,0C121.8,85.4,121.8,85.4,121.7,85.5C121.8,85.5,121.8,85.5,121.7,85.5z"/>
		<path class="st12" d="M57.5,21.8c-0.1,0-0.4,0-0.4-0.1c-0.4-1.4-1.4-2-2.5-2.4c0.9-0.9,1.8-1.8,2.6-2.5c0.9,0.8,1.9,1.6,3,2.5
			C58.9,19.6,57.9,20.4,57.5,21.8z"/>
		<path class="st12" d="M93.8,19c-1.2,0.7-2.5,1.3-2.9,3.1c-0.6-1.7-1.5-2.7-2.9-2.9c0.9-0.8,1.9-1.7,2.8-2.5c0.6,0.5,1.5,1.3,2.3,2
			C93.3,18.8,93.5,18.9,93.8,19z"/>
		<path class="st1" d="M43.2,26.8c0,5.3,0,10.6,0,15.9c0,0.5,0.1,0.9,0.2,1.4c0.1,0.1,0.1,0.3,0.2,0.4c0,0.1,0.1,0.3,0.1,0.4
			c-1-0.1-1.2-0.8-1.2-1.6c0-4.8,0-9.6,0-14.4c0.9-0.6,0.2-1.5,0.5-2.3C43,26.8,43.1,26.8,43.2,26.8z"/>
		<path class="st19" d="M105.8,31.3c-6.8,0-13.6,0-20.5,0c-3.9,0-7.8,0-11.7,0c0.1,0,0.1-0.1,0.2-0.1c2.8-0.1,5.6-0.1,8.5-0.1
			c1.5,0,3,0.1,4.5,0c3.2-0.1,6.5-0.2,9.7-0.2c2.8,0,5.7,0.1,8.5,0.2C105.3,31.1,105.6,31.2,105.8,31.3z"/>
		<path class="st1" d="M43.2,26.8c-0.1,0-0.2,0-0.2,0c-0.1-0.6-0.2-1.2-0.4-1.7c-0.1-0.4-0.3-0.7-0.4-1.1c0-0.1,0.3-0.2,0.4-0.3
			c0.2,0.3,0.5,0.7,0.8,1.1c0.5-0.4,1.2-0.7,2-1.3c-0.8-0.2-1.3-0.3-2.1-0.5c0.5-0.2,0.7-0.3,0.9-0.3c2.8,1,4.3-0.2,5.5,0
			c0.8,0.1,1.5,0.3,1.9,0.9c0.2,0.3,0.5,0.7,0.8,0.9c0.9,0.7,0.7,1.6,0.3,2.4c-0.1-0.2-0.2-0.4-0.3-0.7c-0.1-0.3-0.1-0.7-0.3-1
			c-0.9-1.6-2.8-2.5-4.7-2.2c-1.9,0.3-3.5,1.7-3.9,3.6C43.3,26.7,43.2,26.8,43.2,26.8z"/>
		<path class="st12" d="M17,45.9c0.8-0.7,1.7-1.5,2.5-2.3c0.6,0.6,1.5,1.5,2.3,2.2c-0.7,0.6-1.6,1.3-2.4,2.1
			c-0.2-0.3-0.5-0.8-0.9-1.2C17.9,46.3,17.4,46.1,17,45.9z"/>
		<path class="st12" d="M123.4,43.9c0.7-0.7,1.5-1.4,2.3-2.1c0.8,0.7,1.6,1.5,2.3,2.2c-0.7,0.6-1.5,1.3-2.3,2
			C125,45.3,124.2,44.6,123.4,43.9z"/>
		<path class="st20" d="M32,88.3c0-13.4,0-26.8,0-40.1c0-0.2,0-0.3,0-0.5c0.1-0.5,0.1-0.9,0.2-1.4c0,1.7,0,3.3,0,5
			c0,10.8,0,21.5,0,32.3c0,0.3,0,0.7,0,1c0,1.4,0,2.9-0.1,4.3C32.1,88.8,32,88.6,32,88.3z"/>
		<path class="st12" d="M123.7,52.9c0.6-0.6,1.4-1.3,2.2-2c0.6,0.6,1.4,1.4,2.1,2.1c-0.7,0.6-1.5,1.3-2.2,2
			C125.2,54.3,124.4,53.5,123.7,52.9z"/>
		<path class="st15" d="M131,90.6c-0.5,1.4-1.6,2.3-3.3,2.9c1.5,0.4,2.6,0.9,3,2.3c-0.3,0-0.6,0-0.9-0.1c-0.6-0.2-1.2-0.5-1.9-0.6
			c-0.8-0.8-0.8-1.7,0-2.6c0.1-0.1,0.1-0.3,0.2-0.3c1.3,0.2,1.3-1,1.9-1.6C130.2,90.5,130.7,90.6,131,90.6z"/>
		<path class="st1" d="M55,42c0,0.1,0,0.2,0,0.2c-0.2,0.1-0.3,0.2-0.5,0.2c0.1-1.1,0.2-2.2,0.2-3.3c0-1.7-0.3-3.5-0.2-5.2
			c0.1-2,0-2.3-1.9-2.3c0-0.7,0-1.3,0-2c0.1,0.3,0.1,0.6,0.2,1.1c1.9,0,3.7,0,5.6,0c-0.8,0.1-1.5,0.1-2.3,0.2
			c-0.4,0-0.7,0.2-1.1,0.2c0,0.4,0,0.9-0.1,1.3C55,35.8,55,38.9,55,42z"/>
		<path class="st15" d="M20.6,79.5c-0.7,2.2-2,3.6-4.3,4.1c0.3-0.3,0.5-0.7,0.8-0.8c1.2-0.4,1.4-1.3,1.4-2.5c0-0.3,0.4-0.8,0.8-0.9
			C19.6,79.3,20.2,78.6,20.6,79.5z"/>
		<path class="st15" d="M25.1,83.6c-2.2-0.4-3.6-1.8-4.2-3.9c0.6,0.6,1.3,1.2,1.9,1.9c0.3,0.3,0.3,0.6,0.9,0.6
			C24.2,82.1,24.7,83,25.1,83.6z"/>
		<path class="st12" d="M102.1,23.3c0.4-0.4,0.8-0.8,1.3-1.2c0.4,0.4,0.8,0.7,1.2,1.2c-0.4,0.4-0.8,0.8-1.2,1.3
			C103,24.1,102.6,23.7,102.1,23.3z"/>
		<path class="st15" d="M28.3,106.4c-0.7-2.5-0.6-5,0-7.6C28.3,101.4,28.3,103.9,28.3,106.4z"/>
		<path class="st17" d="M57.5,21.8c0.4-1.4,1.4-2.2,2.7-2.5C59.9,20.4,58.5,21.7,57.5,21.8z"/>
		<path class="st12" d="M22.6,71.9c0.4-0.3,0.7-0.6,1.1-1c0.3,0.3,0.6,0.6,0.9,1c-0.4,0.3-0.8,0.5-1.1,0.8
			C23.3,72.6,23,72.3,22.6,71.9z"/>
		<path class="st17" d="M68.5,22.9c0.8,0.5,1.7,0.9,2.5,1.4C69.8,24.6,68.5,23.9,68.5,22.9z"/>
		<path class="st19" d="M55,31.4c0.4-0.1,0.7-0.2,1.1-0.2c0.8-0.1,1.5-0.2,2.3-0.2c0.6,0.1,1.2,0.3,1.8,0.4
			C58.5,31.3,56.8,31.3,55,31.4z"/>
		<path class="st19" d="M73,31.3c-2.4,0-4.7,0-7.1,0c1.5-0.1,3-0.2,4.4-0.2C71.3,31.1,72.1,31.3,73,31.3z"/>
		<path class="st1" d="M32.9,45c-0.7,0.1-0.4,1-0.8,0.9c-0.2-0.1-1-1.5-1.2-2C31.6,44.2,32.1,44.5,32.9,45z"/>
		<path class="st18" d="M34.7,44.1c-0.4-0.2-0.9-0.3-1.3-0.5c0.4-0.2,0.9-0.3,1.3-0.5c0,0,0,0,0,0C34.7,43.5,34.7,43.8,34.7,44.1
			L34.7,44.1z"/>
		<path class="st2" d="M120,57.5c-1.4,0-2.7,0-4.1,0c-0.3,0-0.6-0.2-0.9-0.3C116.6,57.4,118.3,57.5,120,57.5z"/>
		<path class="st18" d="M52.7,28.8c0-0.3,0-0.5,0-0.8C52.7,28.2,52.7,28.5,52.7,28.8z"/>
		<path class="st17" d="M91,15.5c-0.1,0-0.1,0-0.2,0c0,0,0-0.1,0-0.1c0,0,0.1,0,0.1,0C91,15.4,91,15.5,91,15.5z"/>
		<path class="st1" d="M47.2,76.2c-0.5-0.1-1.1-0.3-1.6-0.4c2.8-0.3,4.5-0.5,6.1-0.7c0.4,0,0.8,0.1,1.1,0.3c0.1,0.1,0,0.7-0.1,0.8
			c-0.4,0.1-0.8,0.1-1.3,0.1C50.1,76.3,48.7,76.2,47.2,76.2z"/>
		<path class="st4" d="M79.8,68c0,0.8,0.5,0.7,1,0.7c-2,0.6-4,1.2-6,1.8C76.5,69.7,78.2,68.9,79.8,68z"/>
		<path class="st5" d="M143.1,80.1c-0.1-0.1-0.2-0.3-0.3-0.4c0.8,0,1.5,0,2.3,0c0,0,0,0,0,0c-0.1,0.2-0.2,0.5-0.2,0.7
			c-0.1,0.2-0.1,0.4-0.2,0.6l-0.1,0.1C144.1,80.7,143.6,80.4,143.1,80.1z"/>
		<path class="st21" d="M138.9,67.1c0.3-0.2,0.6-0.5,0.9-0.6c0.3-0.1,0.6-0.1,1.1-0.1c-0.5,0.6-0.9,0.9-1.2,1.2
			C139.5,67.4,139.2,67.2,138.9,67.1z"/>
		<path class="st2" d="M142,68.8c-0.3-0.2-0.6-0.4-0.9-0.5c0,0,0.1-0.1,0.1-0.1c0.3,0.2,0.6,0.3,0.9,0.5
			C142.1,68.8,142,68.8,142,68.8z"/>
		<path class="st2" d="M232.2,108.3c1.3-1.7,2.5-3.3,3.6-4.7c0.9,1.8,1.5,4,3,5.3c1.4,1.3,3.7,2,5.7,2.1c3.8,0.3,5.6-1.4,6.7-5.7
			c0.2,0,0.4,0,0.6,0.1c-0.7,4.8-1.5,6.7-7.8,6.6c-0.8,0-1.6,0-2.5,0c-4.9,0-4.9,0-6.4-4.2C234.3,107.9,233.2,108.1,232.2,108.3z"/>
		<path class="st2" d="M212.5,107.6c3.4,1.2,6.8,2.8,10.3,3.6c3.5,0.8,6.6-0.6,9.3-2.9c0.4,1.3-0.1,1.7-1.2,2.6
			c-2.5,2.4-5.4,2.2-8.2,2c-2.5-0.2-5-0.8-7.3-1.6C213.8,110.9,212.4,109.7,212.5,107.6z"/>
		<path class="st2" d="M251.9,105.3c-0.2,0-0.4,0-0.6-0.1c0-11-0.1-22-0.1-33c0.4,0.6,1.2,1.2,1.2,1.8c0.1,5.4,0.1,10.8,0,16.2
			C252.3,95.3,252,100.3,251.9,105.3z"/>
		<path class="st20" d="M251,70.9c-0.1-0.7-0.2-1.4-0.3-2.1C250.8,69.5,250.9,70.2,251,70.9z"/>
		<path class="st15" d="M211.5,106.8c0.3,0.2,0.7,0.5,1,0.7C212.1,107.3,211.8,107.1,211.5,106.8z"/>
		<path class="st2" d="M539.6,105.3c0.3-0.5,0.6-1.1,0.9-1.6c0.3-0.6,0.7-1.1,1-1.6c0.4,0.3,1.1,0.6,1.1,0.9c0,0.7-0.2,1.9-0.6,2.1
			c-3.2,1.5-0.8,2.1,0.7,3c-1.9,1.7-3.7,3.3-5.5,5c-1.4,0.7-2.6,1.6-4.4,0.3c-2.1-1.5-5.3-0.9-7.1-3.3c-0.1-0.1-1.1,0.2-1.5,0.6
			c-0.6,0.5-0.9,1.3-1.4,1.9c-2.1-1.2-0.6-2.9-0.4-4.2c0.4-2.1,0.2-3.5-2-4.3c-1.5-0.6-2.3-1.6-2.2-3.5c0.1-0.9-1.7-1.9-2.6-2.8
			c-0.6,0.9-1.4,1.7-1.6,2.6c-0.6,2.6-0.8,5.4-1.2,8c-0.3,1.9-3.4,4.9-5.1,4.7c-3.1-0.3-4.2,0.9-3.7,3.9c0.1,0.4-0.1,0.9-0.2,1.3
			c-0.3,0-0.6,0-0.9,0.1c-0.1-0.8-0.4-1.5-0.2-2.2c0.4-2,0.5-3.7-2-4.6c-1.3-0.4-2.4-1.3-1.8-3c2.1,2.3,4.7,3.1,7.7,2.6
			c3.6-0.6,5.1-2.2,5.2-5.9c0-0.8,0.1-1.7,0-2.5c-0.7-3.7,1.1-6.1,4.2-8.2c3,4.3,6.1,8.5,9,12.8c2.3,3.4,5.5,4.6,9.5,4.2
			C538.2,111,539.9,109.1,539.6,105.3z"/>
		<path class="st2" d="M497.3,67.6c0.2-0.1,0.3-0.1,0.5-0.1c0,12.9,0.1,25.9,0.1,38.9c-0.2,0.4-0.4,0.8-0.6,1.2
			c-0.4-0.5-1.1-1.1-1.1-1.6c-0.1-10.9-0.1-21.9,0-32.8C496.2,71.3,496.9,69.4,497.3,67.6z"/>
		<path class="st2" d="M459.1,81.5c3,4.1,7.4,6.2,11.8,8.2c1.2,0.5,2.3,1.1,3.4,1.7c1.7,0.9,3.1,2.3,2.4,4.1
			c-0.6,1.4-2.1,3.1-3.5,3.4c-2.2,0.5-4.6-0.2-6.9-0.3c1.7,0,3.5,0.4,4.9-0.1c1.4-0.5,2.6-1.9,3.8-3.1c0.2-0.3,0-1.5-0.4-1.7
			c-2.3-1.4-4.6-2.8-7-3.9c-2.2-1.1-4.6-1.8-6.9-2.9c-0.6-0.3-0.9-1.3-1.1-2C459.3,83.8,459.3,82.6,459.1,81.5z"/>
		<path class="st2" d="M522.7,112.5c0.4-0.7,0.8-1.4,1.4-1.9c0.4-0.4,1.4-0.7,1.5-0.6c1.8,2.5,5,1.8,7.1,3.3c1.8,1.3,3,0.4,4.4-0.3
			c0.7,0.9,1.3,1.8,2,2.8c-1.3,0.2-2.6,0.4-3.9,0.5c-0.5,0-1.2-0.3-1.4-0.6c-1.2-1.6-2.7-1.6-4.4-1c-0.8-2.1-2.6-2.3-5-0.5
			c-0.5-0.2-1.1-0.4-1.6-0.6C522.8,113.2,522.8,112.9,522.7,112.5z"/>
		<path class="st2" d="M472.9,76.5c-1.9-0.9-2.3-2.7-1.5-4.1c0.6-1.2,2.4-2.5,3.5-2.4c2.9,0.3,5.7,1.3,8.6,2.1
			c-2.3-0.3-4.6-0.8-6.8-0.9c-1.2,0-2.5,0.7-4,1.2C472.7,73.7,472.8,75.1,472.9,76.5z"/>
		<path class="st2" d="M497.3,107.5c0.2-0.4,0.4-0.8,0.6-1.2c0.3,0.6,0.5,1.1,0.8,1.7C499.1,108.3,498.5,108,497.3,107.5z"/>
		<path class="st2" d="M236.5,88.2c-0.1,6.1-4.5,10.5-10.2,10.3c-4.5-0.1-7.6-3.8-7.5-8.8c0.2-6.2,4.2-10.2,10.1-10
			C233.9,79.9,236.7,83,236.5,88.2z"/>
		<path class="st2" d="M213.7,73.8c0-1.9-0.1-3.7-0.1-5.6c4.9,0,9.7-0.2,14.6-0.1c1.5,0,3,0.5,4.4,1.2
			C225.8,69,219.4,69.9,213.7,73.8z"/>
		<path class="st2" d="M204.9,86c0-1.4,0-2.9,0-4.5c0.7-0.2,1.4-0.4,2.1-0.5C206.3,82.6,205.6,84.3,204.9,86z"/>
		<path class="st2" d="M539.4,65.4c0.2,2.6-0.9,4.3-3,6.1c-2.3,2-5.1,3.9-6.2,7.2c-0.3,0.9-1.7,1.5-2.7,2.2c-1.4,0.9-1.9,3-0.9,4.3
			c1.2,1.5,2.6,2.9,3.6,4.5c0.4,0.7,0.3,1.7,0.4,2.6c-2-2.6-3.9-5.3-5.9-7.9c-1-1.3-0.8-2.1,0.3-3.3C529.7,76,534.5,70.7,539.4,65.4
			z"/>
		<path class="st2" d="M512.2,76.5c0-9.4,0-18.7,0-28.1c0.4,0,0.7,0,1.1,0c0,9,0,18,0,27C513,75.7,512.6,76.1,512.2,76.5z"/>
		<path class="st2" d="M432.8,87.9c0.1,6-4.4,10.7-10.3,10.7c-4.4,0-7.7-3.5-7.7-8.4c-0.1-6,4-10.4,9.7-10.4
			C429.7,79.7,432.7,82.7,432.8,87.9z"/>
		<path class="st10" d="M413.7,66.1c-3.4,0.7-3.3-1-3.5-2.5c0.2-0.2,0.5-0.4,0.7-0.6C411.6,63.8,412.4,64.7,413.7,66.1z"/>
		<path class="st2" d="M187.3,69.9c0.1,0.1,0.2,0.3,0.2,0.4c-4.2,0-8.5,0-13,0c0-5.1,0-10.2,0-15.5c8.1,0,16.4,0,24.6,0
			c-0.9,0.2-1.9,0.6-2.8,0.6c-6,0.1-12,0.1-18,0c-1.8,0-2.5,0.6-2.4,2.4c0.1,3.2,0.1,6.5,0,9.7c-0.1,1.8,0.6,2.5,2.4,2.3
			c2.2-0.3,4.5-0.6,6.7-0.7C185.8,69.1,186.6,69.6,187.3,69.9z"/>
		<path class="st2" d="M202.5,54.2c-0.3,1.7-1.2,1.5-2.2,0.6C201,54.6,201.8,54.4,202.5,54.2z"/>
		<path class="st19" d="M199.7,54.9c-0.2,0-0.4-0.1-0.5-0.1C199.4,54.9,199.5,54.9,199.7,54.9z"/>
		<path class="st2" d="M398.6,54.5c-2.4,0.3-4.8,0.9-7.2,0.9c-7.1,0.1-7.1,0-7.1,7c0,13.3-0.1,26.5,0,39.8c0,4.4-0.4,8.4-4.5,10.2
			c-2.3-0.2-4.1-0.4-6-0.5c-3.2-0.1-3.8-0.7-3.9-3.9c1.5,0.9,2.8,2.2,4.4,2.6c5.6,1.5,8.9-1.2,8.9-7.1c0-15.3,0-30.6,0-45.9
			c0-0.9,0-1.8,0-3.2C388.4,54.5,393.5,54.5,398.6,54.5z"/>
		<path class="st2" d="M326.7,68.8c0,3.2-2.9,2.5-4.6,3.1c-1.6,0.6-4.2,0-5,1c-0.9,1.2-0.3,3.5-0.4,5.4c-0.2,5-0.5,9.9-0.4,14.9
			c0,1.6,1,3.2,1.5,4.9c-0.8-1.2-1.5-2.5-2.2-3.7c-0.1-0.4-0.1-0.8-0.2-1.1c-0.1-7.2-0.1-14.4-0.2-21.6c0.1-0.2,0.3-0.3,0.4-0.5
			c1.7,0,3.5,0.2,5.2-0.1C322.8,70.5,324.7,69.5,326.7,68.8z"/>
		<path class="st22" d="M315.3,93.1c0.1,0.4,0.1,0.8,0.2,1.1C315.5,93.9,315.4,93.5,315.3,93.1z"/>
		<path class="st22" d="M315.6,71.1c-0.1,0.2-0.3,0.3-0.4,0.5C315.3,71.4,315.4,71.2,315.6,71.1z"/>
		<path class="st2" d="M393.1,98.7c0,2.6,0,5.2,0,7.8c0,3.2,0,6.4,0,9.5c-0.2,0-0.4,0.1-0.6,0.1c-0.2-0.4-0.5-0.8-0.5-1.2
			c0-4.8-0.1-9.5,0-14.3C392.1,99.9,392.8,99.3,393.1,98.7z"/>
		<path class="st2" d="M394.2,80.9c0,5.1,0.1,10.2,0,15.3c0,0.8-0.7,1.6-1.1,2.4c0-5.1,0-10.2,0.1-15.3
			C393.2,82.6,393.9,81.8,394.2,80.9z"/>
		<path class="st21" d="M142.1,68.7c-0.3-0.2-0.6-0.3-0.9-0.5c0.4-1.1,0.9-1.2,2.2-0.4C142.9,68.2,142.5,68.4,142.1,68.7z"/>
		<path class="st21" d="M142.6,66.4c-0.2,0-0.4-0.1-0.6-0.1c0-0.1,0-0.3,0.1-0.3c0.2,0,0.4,0,0.6,0
			C142.7,66.1,142.6,66.3,142.6,66.4z"/>
		<path class="st21" d="M143.2,63.6c0.1,0,0.1,0,0.2,0.1c0,0.1,0,0.1-0.1,0.2c0,0-0.1,0-0.2-0.1C143.1,63.7,143.2,63.6,143.2,63.6z"
			/>
		<path class="st2" d="M528.3,116.4c0.4,0,0.7,0,1.1,0c-0.1,0.6-0.2,1.3-0.3,1.9c-0.2,0-0.4,0-0.6,0
			C528.5,117.6,528.4,117,528.3,116.4z"/>
		<path class="st21" d="M135.4,106.5c-0.2,0.1-0.5,0.1-0.7,0.2c0-0.1-0.1-0.2-0.1-0.3c0.2-0.1,0.5-0.2,0.7-0.3
			C135.3,106.2,135.3,106.4,135.4,106.5z"/>
		<path class="st21" d="M136.6,105.3c0.1,0,0.1,0,0.2,0.1c0,0.1,0,0.1-0.1,0.2c0,0-0.1,0-0.2-0.1
			C136.5,105.4,136.5,105.4,136.6,105.3z"/>
		<path class="st18" d="M144.8,80.4c0.1-0.2,0.2-0.5,0.2-0.7c0.4,0,0.7,0,1.1,0c-0.2,0.6-0.4,1.1-1.1,0.9
			C145,80.5,144.9,80.4,144.8,80.4z"/>
		<path class="st23" d="M144.8,80.4c0.1,0.1,0.2,0.2,0.2,0.2c-0.1,0.1-0.3,0.3-0.4,0.4C144.7,80.8,144.8,80.6,144.8,80.4z"/>
		<path class="st23" d="M141.5,75.8c0,0.1,0,0.1,0,0.2c-0.1,0-0.2-0.1-0.3-0.1C141.3,75.9,141.4,75.8,141.5,75.8z"/>
		<path class="st24" d="M53.9,84.5c0.4-0.3,0.8-0.6,1.3-0.8c1.1-0.4,1.9,0.1,2.6,1c1,2.3,2.6,4.2,4.5,5.7c8.5,6.7,21.4,3.7,26-6
			c0.7-0.7,1.5-1.1,2.5-0.5c0.4,1,0.1,1.9-0.3,2.9c-0.3,0.7-0.3,1.4-1,2c-0.5,0.4-0.8,1.1-1.2,1.8c-0.3,0.5-0.4,1-0.6,1.6L87.6,92
			c0,0,0.1,0.1,0.1,0.1c-1.1-0.1-2,0.7-2.2,1.8c0,0-0.1,0-0.1,0c-0.3,0-0.6-0.2-0.9-0.1c-0.8,0-1.5,0.9-1.3,1.5c0,0-0.1,0.1-0.1,0.1
			c-0.2,0.1-0.4,0.2-0.6,0.3c-9.5,5.1-22.2,1.7-27.5-7.4C54.4,87.1,54.3,85.7,53.9,84.5z"/>
		<path class="st25" d="M53.2,66.2c-1.9,1.8-4.7,2.3-7.2,1.3c-2.6-1.1-4.1-3.5-4.1-6.3c0.1-2.5,1.6-4.9,3.9-5.8
			c0.6-0.1,1.2-0.4,1.8-0.3c1.1,0.1,2.2,0.3,3.3,0.5c0.1,0,0.1,0.2,0.2,0.3c0.5,0.5,1,0.9,1.5,1.4c0.3,0.3,0.9,0.5,1,0.8
			c0.8,2,1,4,0,6C53.4,64.8,53.4,65.6,53.2,66.2z"/>
		<path class="st25" d="M53.2,66.2c0.2-0.7,0.2-1.4,0.5-2c1-2,0.7-4,0-6c-0.1-0.4-0.7-0.5-1-0.8c-0.5-0.4-1-0.9-1.5-1.4
			c-0.1-0.1-0.1-0.3-0.2-0.3c-1.1-0.2-2.2-0.5-3.3-0.5c-0.6,0-1.2,0.2-1.8,0.3c2.9-1.5,6.4-0.5,8.3,2.2
			C56.1,60.6,55.7,63.9,53.2,66.2z"/>
		<path class="st15" d="M87.7,92.1c0.2-0.5,0.3-1.1,0.6-1.6c0.3-0.6,0.7-1.3,1.2-1.8c0.7-0.6,0.7-1.3,1-2c0.5-1,0.8-1.8,0.3-2.9
			c0.2,0.2,0.4,0.3,0.6,0.5c0,0.8,0.3,1.6,0,2.3C90.6,88.7,89.4,90.6,87.7,92.1z"/>
		<path class="st15" d="M83.2,95.3c-0.2-0.6,0.6-1.4,1.3-1.5c0.3,0,0.6,0.1,0.9,0.1C84.7,94.4,84,94.8,83.2,95.3z"/>
		<path class="st15" d="M85.5,93.9c0.2-1.1,1.1-1.9,2.2-1.8C87,92.7,86.2,93.3,85.5,93.9z"/>
		<path class="st9" d="M95,61.1c-0.2,0.1-0.4,0.2-0.6,0.3C94.6,61.3,94.8,61.2,95,61.1z"/>
		<path class="st15" d="M82.6,95.6c0.2-0.1,0.4-0.2,0.6-0.3C82.9,95.4,82.8,95.5,82.6,95.6z"/>
		<path class="st9" d="M76,79.7c-0.2,0.1-0.4,0.2-0.6,0.3C75.6,79.9,75.8,79.8,76,79.7z"/>
		<path class="st4" d="M80.1,67.9C80,67.9,79.9,68,79.9,68C79.9,68,80,67.9,80.1,67.9z"/>
		<path class="st8" d="M88.3,84.4c-4.6,9.8-17.5,12.8-26,6c-2-1.5-3.6-3.4-4.5-5.7c2.6,0.3,5.2,0.7,7.8,0.8c2.6,0.1,5.1-0.2,7.7-0.3
			c2.8-0.2,5.5-0.3,8.3-0.5c2.2-0.1,4.4-0.3,6.6-0.4C88.1,84.3,88.2,84.4,88.3,84.4z"/>
		<path class="st5" d="M88.5,38.1c0-1,1-1.8,2.1-1.8c1,0,1.7,0.9,1.7,1.9c0,1.1-0.9,1.8-1.9,1.8C89.4,39.9,88.5,39,88.5,38.1z"/>
		<path class="st5" d="M104,39.5c-0.1-0.2-0.2-0.4-0.3-0.6c-0.4-0.9-0.3-1.8,0.6-2.2c0.6-0.3,1.5-0.2,2.1,0.1c1,0.5,1,1.5,0.6,2.4
			c-0.4,0.8-1.3,1-2.1,0.8C104.6,39.9,104.3,39.7,104,39.5C104,39.5,104,39.5,104,39.5z"/>
		<path class="st5" d="M98.5,40c-0.1,0-0.3,0-0.4,0c-1.7-0.3-2.5-1.5-1.7-2.8c0.5-0.8,1.2-1.1,2-0.8c0.5,0.2,1.2,0.7,1.3,1.2
			c0.1,0.6-0.3,1.3-0.6,2C99,39.8,98.7,39.9,98.5,40z"/>
		<path class="st16" d="M63.9,32.8c4.9,0,9.7,0,14.6,0c-0.3,0.1-0.6,0.4-0.9,0.4c-4.2,0-8.5,0-12.7,0C64.5,33.1,64.2,32.9,63.9,32.8
			z"/>
		<path class="st1" d="M52.7,31.8c1.9,0,2,0.2,1.9,2.3c-0.1,2.6,0.2,4,0.2,5.2c0,1.1-0.1,2.2-0.2,3.3c0,0.2,0,0.5,0,0.7
			c-1.1,0.6-1.6,1.6-2.1,2.7c-0.3,0.7-0.6,0.7-0.9,0c0.3-0.6,0.6-1.2,0.9-1.8c0.1-0.3,0.3-0.7,0.3-1c0-2.9,0-5.9,0-8.8
			c0-0.3-0.1-0.6-0.2-0.9C52.6,32.8,52.6,32.3,52.7,31.8z"/>
		<path class="st1" d="M34.7,44.1c0-0.3,0-0.6,0-0.9c2,0,3.9,0,5.9,0c1.5,0,1.6,0.2,1.4,1.6c0,0.3-0.1,0.6-0.2,0.9
			c-1.8-0.1-3.5-0.1-5.3-0.2c0-0.1,0-0.3,0-0.4c0.4,0,0.9,0,1.3-0.1c0.2,0,0.4-0.3,0.5-0.4c-0.2-0.1,0.4,0.4,0.2,0.4
			C37.5,44.9,35.7,44.1,34.7,44.1z M39.4,44.2c0,0.1,0,0.2,0,0.3c0.3,0,0.7-0.1,1-0.1c0-0.1,0-0.2,0-0.3
			C40.1,44.2,39.8,44.2,39.4,44.2z M41.2,44.7c-0.1,0-0.1-0.1-0.2-0.1c0,0-0.1,0.1-0.1,0.1c0,0,0.1,0.1,0.1,0.1
			C41.1,44.8,41.1,44.8,41.2,44.7z"/>
		<path class="st26" d="M43.8,45.4c0.5,0.5,0.9,0.9,1.4,1.4C44.2,46.9,43.9,46.3,43.8,45.4z"/>
		<polygon class="st25" points="41.8,45.7 41.9,45.7 41.8,45.8 		"/>
		<path class="st27" d="M43.3,26.7c0.4-1.9,2-3.3,3.9-3.6c2-0.3,3.8,0.6,4.7,2.2c0.2,0.3,0.2,0.6,0.3,1c-0.3,0-0.6,0-0.9,0.1
			c0,0.7,0,1.4-0.1,2.1c0,0.9-0.1,1.8-0.1,2.7c-1.8,2-3.6,4-5.4,6c-0.1,0-0.2,0-0.3-0.1c0-2.4,0-4.7,0-7.1c0-1,0-1.9,0-2.9
			c0-0.3,0-0.7,0-1c0,0-0.4,0-0.6,0C44.4,26.3,43.9,26.5,43.3,26.7L43.3,26.7z"/>
		<path class="st9" d="M45.6,29.9c0,2.4,0,4.7,0,7.1c0.1,0,0.2,0,0.3,0.1c1.8-2,3.6-4,5.4-6c0.1,0.1,0.3,0.2,0.3,0.3
			c0,2.6,0,5.3-0.2,7.9c-0.1,1.5-1.3,2.3-2.9,2.3c-1.6,0-2.6-0.7-2.8-2.3c-0.2-2-0.2-4.1-0.2-6.1c0-0.3,0-0.6,0-0.9
			C45.5,31.5,45.5,30.7,45.6,29.9z"/>
		<path class="st16" d="M45.6,29.9c-0.1,0.8-0.1,1.5-0.2,2.3c-0.5,0.3-0.6,0.1-0.7-0.4c-0.1-1.4-0.4-2.8-0.6-4.3
			c-0.3,0.2-0.4,0.3-0.8,0.5c0-0.5,0-0.9,0-1.3c0.5-0.2,1-0.5,1.5-0.7c0.2,0.3,0.4,0.7,0.7,1C45.6,28,45.6,29,45.6,29.9z"/>
		<path class="st16" d="M43.5,44.6c-0.1-0.1-0.1-0.3-0.2-0.4c0-4.8,0-9.6,0-14.4c0.1,0,0.2,0,0.4,0c0,0.3,0.1,0.5,0.1,0.8
			c0,4.4,0,8.7,0,13.1C43.8,43.9,43.6,44.2,43.5,44.6z"/>
		<path class="st28" d="M52.5,33.4c0.1,0.3,0.2,0.6,0.2,0.9c0,2.9,0,5.9,0,8.8c0,0.3-0.2,0.7-0.3,1C52.5,40.5,52.5,36.9,52.5,33.4z"
			/>
		<path class="st9" d="M51.3,28.4c0-0.7,0-1.4,0.1-2.1C51.4,27,51.3,27.7,51.3,28.4z"/>
		<path class="st10" d="M12.4,62.2c3.2-0.8,5.3-2.8,6.3-6.2c1,3.3,3.1,5.4,6.4,6.3c-3.4,0.8-5.4,3-6.4,6.4c-0.4-1-0.7-1.7-1.1-2.4
			c-1-1.9-2.5-3.1-4.6-3.7C12.8,62.5,12.6,62.3,12.4,62.2C12.4,62.2,12.4,62.1,12.4,62.2L12.4,62.2z"/>
		<path class="st25" d="M121.7,85.5C121.8,85.5,121.8,85.5,121.7,85.5c0.1-0.1,0.1-0.1,0.1,0C121.9,85.5,121.8,85.5,121.7,85.5
			C121.8,85.5,121.8,85.5,121.7,85.5z"/>
		<path class="st18" d="M39.4,44.2c0.3,0,0.7,0,1,0c0,0.1,0,0.2,0,0.3c-0.3,0-0.7,0.1-1,0.1C39.4,44.4,39.4,44.3,39.4,44.2z"/>
		<path class="st1" d="M41.2,44.7c-0.1,0,0.7,0.9,0.6,0.9c0,0-0.8-0.9-0.9-0.9c0,0,0.8,0.7,0.8,0.7C41.8,45.4,41.1,44.7,41.2,44.7z"
			/>
		<path class="st9" d="M45.6,27c-0.2-0.3-0.4-0.7-0.7-1c0.2,0,0.6,0,0.6,0C45.6,26.4,45.6,26.7,45.6,27z"/>
	</g>
</g>
</svg>
