<?xml version="1.0" encoding="utf-8"?>
<!-- Generator: Adobe Illustrator 24.2.3, SVG Export Plug-In . SVG Version: 6.00 Build 0)  -->
<svg version="1.1" id="Capa_1" xmlns="http://www.w3.org/2000/svg" xmlns:xlink="http://www.w3.org/1999/xlink" x="0px" y="0px"
	 viewBox="0 0 151 145" style="enable-background:new 0 0 151 145;" xml:space="preserve">
<style type="text/css">
	.st0{fill:#232240;}
	.st1{fill:#242442;}
	.st2{fill:#51A6DA;}
	.st3{fill:#7BC1EA;}
	.st4{fill:#262B4E;}
	.st5{fill:#5FB5E6;}
	.st6{fill:#49A2CC;}
	.st7{fill:#FCFBFB;}
	.st8{fill:#B4DEF4;}
	.st9{fill:#F8F7F8;}
	.st10{fill:#5CAFE0;}
	.st11{fill:#25263F;}
	.st12{fill:#ECEDF0;}
	.st13{fill:#A8D6EF;}
	.st14{fill:#242147;}
	.st15{fill:#98CEED;}
	.st16{fill:#242543;}
	.st17{fill:#2C2C3E;}
	.st18{fill:#222236;}
	.st19{fill:#52BEE9;}
	.st20{fill:#29273B;}
	.st21{fill:#161727;}
	.st22{fill:#479FD7;}
	.st23{fill:#262440;}
	.st24{fill:#FAFAFA;}
	.st25{fill:#486794;}
</style>
<g>
	<circle class="st0" cx="73" cy="72.6" r="72.4"/>
	<path class="st0" d="M138,119.6c-1.5,1.4-3.3,0.8-4.9,0.7c-0.5,0-1-0.1-1.5-0.2c-0.8-0.1-1.2-0.6-1.7-1.1c-1.3-1.3-2.9-2.5-4.5-3.5
		c-1.9-1.2-2-1.2-3.6,0.4c-3.9,4-8.1,7.6-12.9,10.6c-5.7,3.6-11.9,6.1-18.4,7.8c-4.9,1.3-9.9,2.1-15,2.2c-0.3,0-0.7,0.1-1,0.2
		c-5-0.3-10.1-0.5-15.1-1c-2.1-0.2-4.1-0.7-6.1,0.3c-2.7,0.2-5.3,0.6-8,0.5c-6.3-0.3-12.1-2.4-17.4-6c-4.5-3.1-8.1-7.2-11.2-11.7
		c-1-1.4-1.9-2.9-2.9-4.3c-0.2-0.2-0.3-0.5-0.5-0.7c-0.1-0.1-0.1-0.2-0.2-0.2c0.1-0.1,0.4-0.1,0.4-0.2c0.1-0.9-1.2-2.4-2.3-2.6
		c-4-6.1-6.9-12.7-8.8-19.7c-2-7.2-2.8-14.4-2.5-21.8c0.4-8.8,2.5-17.2,6.2-25.3c3.7-7.9,8.5-15.1,14.6-21.3
		c6.8-7,14.8-12.2,23.7-15.9c7-2.9,14.2-4.9,21.7-5.5c6.9-0.6,13.7-0.2,20.6,1.1c7.1,1.4,13.9,3.9,20.2,7.3
		c11.4,6,20.6,14.5,27.6,25.4c5.3,8.3,8.8,17.4,10.1,27.2c0,0.3,0.1,0.5,0.2,0.8c-0.5,0-1,0-1.4-0.1c-3-1.1-5.9-2.4-9-3.2
		c-4-1-8-1.4-12.1-2.1c-0.4,0-0.8,0-1.2,0c-1.7-0.1-3.5-0.2-5.2-0.3c0,0,0,0,0,0c0-3.8,0-7.7,0-11.5c-0.7-0.2-1.4-0.7-2.2-0.7
		c-2.5,0-4.9,0.2-7.4,0.2c-6.5,0-13,0-19.4,0c-1.5,0-3.1,0.2-4.6,0.2c-7.7,0-15.4,0.1-23,0c-2.2,0-4.4-0.3-6.6-0.5
		c-0.1,0-0.1-0.1-0.2-0.3c0.3-0.3,0.6-0.7,0.9-1c0.2,1.1,0.5,1.2,1.7,0.7c-1-1.3-1-1.4,0.2-2.1c0.3,0.2,0.7,0.4,1,0.4
		c2.2,0,4.4,0,6.5,0c-0.4,0.2-0.7,0.4-1.1,0.4c-1.8,0-3.6,0-5.4,0c-0.3,0-0.6,0.1-0.9,0.1c0,0.1,0,0.1,0,0.2c20.1,0,40.1,0,60.2,0
		c-0.4-0.3-0.8-0.3-1.1-0.3c-1.7,0-3.5,0-5.2,0c-0.4,0-0.7-0.3-1.1-0.4c2.2,0,4.4,0,6.5,0c0.3,0,0.7-0.3,1-0.5c0-0.2,0-0.3,0-0.5
		c0-0.1,0-0.3,0-0.4c0-0.2,0-0.3,0-0.5c0-0.2,0-0.3,0-0.5c0.3-2.9-0.4-5.4-3-7.1c-0.4-0.4-0.6-1-1.1-1.3c-1.6-1.2-3.4-1.4-5.3-1.6
		c-0.3-0.1-0.5-0.2-0.8-0.2c-2.9-0.1-5.9-0.2-8.8-0.2c-3.4,0-6.7,0.2-10.1,0.2c-1.6,0-3.1-0.1-4.7,0c-2.9,0-5.9,0.1-8.8,0.1
		c-0.1,0-0.1,0.1-0.2,0.1c-0.2,0-0.5,0-0.7,0c-0.9-0.1-1.8-0.2-2.7-0.2c-1.5,0-3.1,0.1-4.6,0.2c-2,0-3.9,0-5.9,0
		c-0.6-0.2-1.3-0.3-1.9-0.5c-1.9,0-3.8,0-5.8,0c-0.1-0.4-0.1-0.8-0.2-1.1c0-0.4,0-0.7,0-1.1c0-0.3,0-0.5,0-0.8c0-0.4,0-0.7,0-1.1
		c0.4-0.9,0.7-1.8-0.3-2.5c-0.3-0.3-0.6-0.6-0.8-1c-0.5-0.7-1.2-0.9-2-1c-1.9-0.2-3.8,0.7-5.7,0c-0.2-0.1-0.4,0.1-0.9,0.3
		c0.8,0.2,1.4,0.3,2.2,0.6c-0.9,0.6-1.5,1-2.1,1.3c-0.4-0.5-0.6-0.8-0.9-1.2c-0.1,0.1-0.4,0.3-0.4,0.3c0.1,0.4,0.3,0.8,0.5,1.2
		c0.2,0.6,0.3,1.2,0.4,1.8c-0.2,0.8,0.5,1.7-0.5,2.4c0-0.9,0-1.8,0-2.7c-0.2,0-0.4,0-0.5,0c0,1.7,0,3.3,0,5c-1.1-0.2-2-1.2-2.8,0.1
		c-5.5,1.7-7.7,5.2-7.3,11.3c0.3,0,0.5,0,0.8,0c1.8,0,3.7,0,5.5,0.1c-0.8,0.1-1.6,0.3-2.4,0.4c-0.5,0.1-0.9,0.3-1.4,0.5
		c-0.5,0.2-0.9,0.3-1.4,0.5c0.5,0.2,0.9,0.3,1.4,0.5c0.1,0.4,0.2,0.9,0.3,1.6c-0.8,0-1.5,0.2-2.2,0.1c-1.4-0.2-2.1,0.2-1.8,1.2
		c0.1,0.4,0.6,0.7,0.9,1c0,0.2,0,0.3,0,0.5c-0.2,0.3-0.4,0.6-0.4,0.9c-0.1,0.9,0,1.7,0,2.6c0,12.2,0,24.5,0,36.7
		c0,0.5,0.3,0.9,0.4,1.4c0.1,0.2,0.1,0.5,0.2,0.7c0,4.6-0.1,9.2,0,13.8c0,1.5,0.3,3.1,0.9,4.4c1.6,3.3,4.6,4.4,8,4.5
		c8.2,0.1,16.5,0,24.7,0c2.4,0,4.6-0.3,6.9-0.9c7.8-1.8,15.1-4.8,22.4-8c4.3-1.9,8.6-3.6,13.3-4c3.2-0.2,6.4,0,9.7,0
		c0-7.3,0-14.9,0-22.6c-0.8,0-1.5-0.1-2.3-0.1c-5-0.1-9.9,0.8-14.7,1.7c-1.9,0-4.3-1.8-4.7-3.6c0.3-0.1,0.7-0.2,1-0.2
		c1.3-0.2,2.5-0.3,3.8-0.5c1.2-0.2,2.4-0.4,3.6-0.6c1.3-0.2,2.6-0.6,3.9-0.8c0.5-0.1,1,0,1.5-0.1c2.1-0.3,4.2-0.7,6.3-0.9
		c1.2-0.1,2.5,0.3,3.8,0.4c1.2,0.2,2.5,0.2,3.6,0.6c1.7,0.7,3.4,0.9,5.1,0.8c0.9,0.3,1.8,0.6,2.7,0.9c2.2,1.4,4.6,2.6,6.7,4.1
		c1.8,1.3,3.5,2.8,5.3,4.2c1.7,1.8,3.3,3.6,5,5.3c0.3,0.4,0.6,0.8,0.9,1.2c1,1.4,1.2,2.7,0,4.1c-0.1,0.1-0.2,0.2-0.3,0.2
		c0,0,0,0,0,0c-1.1-0.1-2.1-0.2-3.2-0.3c-0.5,0-0.9,0-1.4,0c-0.2,0.3-0.5,0.6-0.6,1c-0.6,1.6-1,3.2-1.7,4.8c-0.9,2.2-2,4.3-3,6.6
		c-5.4-3.7-11.1-6.1-17.3-7.4c0,0.9-0.1,1.5-0.1,2.1c0,0.3,0.3,0.7,0.6,0.8c0.9,0.4,1.9,0.6,2.8,1c2.9,1.4,5.8,2.9,8.7,4.3
		c-0.3,0.8-0.1,1.2,0.8,1.5c0.7,0.2,1.3,0.6,1.9,1c0.1,0.1,0.3,0.5,0.2,0.6c-0.1,0.2-0.4,0.3-0.6,0.3c-0.4,0.1-0.8,0.1-1.2,0.2
		c-0.4-0.2-0.7-0.4-1.1-0.5c-2.4-1.2-4.8-2.7-7.4-3.6c-3.4-1.2-6.9-1.8-10.4-2.7c-1.6-0.1-3.1-0.3-4.7-0.4
		c-5.2-0.2-9.9,1.4-14.5,3.7c-6.8,3.3-13.7,6.3-21.1,8.2c-8.7,2.3-17.5,3.8-26.6,3.5c-5.2-0.2-10.3-1.2-15-3.6
		c-3.1-1.5-5.3-3.9-6.2-7.3c0-2.6,0-5.2,0-7.8c0-0.3,0-0.5-0.1-1c-0.4,0.6-0.7,1-1,1.5c-0.7-0.1-1.3-0.1-1.3,1
		c0,0.4-0.4,0.8-0.5,1.3c-0.4,1.6-1.4,3.4-1.1,4.9c0.4,1.6-0.5,3.7,1.2,5c0.1,1.8,1.5,2.9,2.5,4.2c1,1.3,2.3,2.3,3.6,3.4
		c0.5,0.4,1.2,0.8,1.8,1.1c1.2,0.5,2.4,1,3.7,1.3c1.4,0.3,2.8,0.4,4.2,0.6c2.6,0.3,5.1,0.8,7.7,0.9c5.5,0.3,11-0.2,16.4-1.2
		c6.6-1.2,13-2.9,19.1-5.9c2.8-1.4,5.6-3,8.4-4.5c6.4,0,12.7,0.1,19.1,0c2.4,0,4.4-1.8,4.7-3.5c-0.7-0.1-1.4-0.3-2.1-0.4
		c1-0.6,2.7,0,3.3-1.5c0.4,0.1,0.8,0.1,1.2,0.2c5.2,1.2,10.1,3.2,14.9,5.6c1.4,0.9,2.8,1.7,4.3,2.6c0.8,0.8,1.5,1.6,2.3,2.4
		c0,0.3,0.1,0.5,0.1,0.8C138.3,119,138.2,119.3,138,119.6z M56.6,20.2c1,0,2.5-1.4,2.8-2.6c-1.1-0.9-2.1-1.8-3.1-2.6
		c-0.8,0.8-1.7,1.7-2.7,2.6c1.1,0.4,2.2,1.1,2.5,2.5C56.2,20.2,56.4,20.2,56.6,20.2z M132.8,91.7c-0.3,0-0.8-0.2-0.9,0
		c-0.6,0.7-0.6,1.9-2,1.7c0,0-0.1,0.2-0.2,0.3c-0.9,0.9-0.8,1.8,0,2.7c0.7,0.1,1.3,0.4,1.9,0.7c0.3,0.1,0.6,0.1,0.9,0.1
		c0.1,0.1,0.2,0.3,0.4,0.6c0.5-1.7,1.7-2.4,3.2-3C134.4,94.3,133.6,93,132.8,91.7z M129.4,87.4c-1.5-0.7-2.8-1.5-3.3-3.2
		c-0.3-0.1-0.7-0.4-0.8-0.3c-0.7,0.4-1.5,0.9-1.1,2c-0.4,0.1-0.7,0-0.9,0.1c-0.5,0.4-1.3,0.8-1.4,1.3c-0.1,0.6,0.5,1,1.3,1.2
		c0.5,0.1,1.2,0.7,1.4,1.2c0.5,1.3,1.6,1.6,2.6,0.6c0.5-0.5,1-1.2,1.6-1.6C129.4,88.5,129.5,88,129.4,87.4z M94.2,17.4
		c-0.2-0.1-0.5-0.2-0.7-0.3c-0.6-0.9-1.2-1.8-1.9-2.6c-0.1-0.2-0.8-0.2-1,0c-1.1,0.8-2.2,1.7-3.2,2.7c-0.6,0.6-0.2,1.6,0.5,2
		c1.1,0.6,2.1,1.2,3.1,1.9c0.6,0.4,1.5,0.3,1.5-0.3c-0.1-1.4,0.6-1.5,1.6-1.4c0.7,0.1,1.2-0.3,1.2-1.1
		C95.3,17.4,94.8,17.4,94.2,17.4z M18.6,80.3c-0.1-0.1-0.2-0.1-0.3-0.2c-0.4-0.9-1-0.2-1.4-0.1C16.5,80.1,16,80.7,16,81
		c0.1,1.2-0.1,2.1-1.4,2.6c-0.3,0.1-0.6,0.5-0.8,0.8c0.2,0.1,0.3,0.3,0.5,0.4c0.8,0.5,1.8,0.8,2.4,1.4c0.7,0.8,1.2,1.8,1.8,2.7
		c0.6-2.2,2-3.8,4.3-4.2c0.1,0,0.1-0.2,0.1-0.3c-0.5-0.5-0.9-1.5-1.4-1.5c-0.7,0-0.7-0.3-1-0.6C20,81.6,19.2,81,18.6,80.3z
		 M9.8,62.2c-0.1,0.1-0.3,0.2-0.4,0.4c1,0.7,2,1.6,3.1,2.1c0.8,0.4,1.5,0.5,1.5,1.6c0,0.2,0.1,0.7,0.3,0.7c1.3,0.5,1.3,1.7,1.8,2.7
		c0.1,0.2,0.3,0.4,0.4,0.6c0.2-0.2,0.7-0.4,0.7-0.7c-0.1-1.8,1-3,2-4.2c0.3-0.4,0.8-0.9,1.3-0.9c1.6-0.1,2.1-1.4,2.8-2.5
		c-0.4-0.3-0.7-0.8-1.1-0.9c-1.2-0.3-2-0.9-2.9-1.8c-0.9-0.9-1.6-1.6-1.5-2.9c0-0.9-0.9-1.3-1.7-1c-1.6,0.6-1.6,2.1-1.7,3.2
		c-0.7,0.4-1.1,0.7-1.6,1c-0.9,0.6-1.8,1.2-2.6,1.9C9.9,61.7,9.9,62,9.8,62.2L9.8,62.2L9.8,62.2z M67.2,21.2
		c0.2,0.1,0.5,0.1,0.7,0.2c0.1,1.1,1.3,1.8,2.6,1.4c0.1,0,0.1,0,0.2,0.1c0,0.9-0.3,1.8,0.8,2.3c0.1,0,0.1,0.3,0.1,0.4
		c0.2,1.4,0.9,2.1,2,2.2c0.8,0.1,1.8-0.8,1.9-2c0.2-1.3,1-2,2-2.6c0.7-0.5,1.5-0.7,2.3-1.1c0.5-0.3,1-0.6,0.3-1.2c0-0.1,0-0.1,0-0.2
		c-0.4-0.4-0.7-0.8-1.1-1.1c-0.5-0.3-1.3-0.2-1.6-0.6c-1.1-1.4-1.9-3-3-4.4c-0.4-0.5-1.1-0.9-1.6-1c-0.4,0-0.9,0.7-1.1,1.1
		c-0.2,0.4-0.1,1-0.1,1.5c0,0.7-0.3,1.1-0.9,1.5c-1.1,0.7-2.3,1.4-3.3,2.2C67.2,20.2,67.3,20.8,67.2,21.2z M14.5,45.2
		c0.4,0.2,1,0.5,1.5,0.8c0.4,0.4,0.7,0.9,0.9,1.3c0.9-0.8,1.8-1.6,2.5-2.2c-0.8-0.8-1.7-1.6-2.3-2.3C16.2,43.7,15.3,44.5,14.5,45.2z
		 M125,43.3c0.7,0.7,1.6,1.5,2.4,2.1c0.8-0.7,1.7-1.4,2.4-2c-0.8-0.7-1.6-1.5-2.4-2.3C126.6,41.8,125.7,42.6,125,43.3z M125.3,52.5
		c0.7,0.7,1.5,1.5,2.2,2.1c0.8-0.7,1.6-1.5,2.3-2.1c-0.7-0.7-1.6-1.5-2.2-2.1C126.8,51.2,125.9,51.9,125.3,52.5z M102.9,21.9
		c0.5,0.4,0.9,0.8,1.4,1.3c0.4-0.4,0.8-0.9,1.2-1.3c-0.5-0.4-0.9-0.8-1.3-1.2C103.7,21.1,103.3,21.4,102.9,21.9z M20.3,72.3
		c0.4,0.4,0.7,0.7,0.9,0.9c0.4-0.2,0.7-0.5,1.2-0.8c-0.4-0.4-0.7-0.7-1-1.1C21.1,71.6,20.7,71.9,20.3,72.3z M31.1,44.3
		c-0.8-0.5-1.3-0.8-2-1.2c0.1,0.5,0.1,1.2,0.4,1.3C29.8,44.6,30.4,44.4,31.1,44.3z M91.4,13.8c0,0-0.1-0.1-0.1-0.1c0,0-0.1,0-0.1,0
		c0,0.1,0,0.1,0,0.2C91.2,13.8,91.3,13.8,91.4,13.8z"/>
	<path class="st1" d="M146.9,71.1c1,1.2,1.4,2.5,0.5,4c-1,0.4-1.9,0.7-2.9,1.1c-0.5,0-1.1-0.1-1.7-0.1c0,0.3,0,0.7,0.1,0.8
		c1.6,0.3,2.3,2.3,4.1,2.1c0,0,0,0,0,0c0.2,0.1,0.3,0.3,0.5,0.4c0,0,0,0,0,0c0,0.3,0,0.7,0,1c-0.8,0-1.6,0-2.4,0
		c-1.3-0.9-2.7-1.7-4-2.6c-0.8-0.6-1.5-1.2-2.3-1.7c-8.9-5.7-18.5-8.5-29.1-8.2c-6.8,0.2-13.3,1.6-19.8,3.4
		c-8.5,2.3-16.9,5.1-25.7,6.1c-6.1,0.7-12.2,0.8-18.2-0.6c1.5,0,2.9,0.1,4.4,0.1c0.4,0,0.9,0,1.3-0.1c0.1,0,0.2-0.8,0.1-0.8
		c-0.3-0.2-0.8-0.3-1.2-0.3c-2.1,0.2-4.2,0.4-6.3,0.7c-1.9-0.6-3.8-1.2-5.7-1.8c12.3,1.3,24.2,0,35.9-3.7c2.1-0.6,4.2-1.2,6.2-1.8
		c0.3,0,0.6,0,0.8-0.1c5.1-1.5,10.2-3,15.3-4.5c8.2-2.4,16.6-4.1,25.2-3.4c3.1,0.7,6.3,1.2,9.3,2.2c3.3,1.1,6.4,2.7,9.6,4
		c0.3,0.2,0.6,0.3,0.9,0.5c0.5,0.3,0.9,0.5,1.4,0.8c0.3,0.2,0.6,0.4,0.9,0.5C145.1,69.8,146,70.4,146.9,71.1z"/>
	<path class="st2" d="M143.3,68.6c-0.5-0.3-0.9-0.5-1.4-0.8c0.3-0.3,0.6-0.7,1.2-1.3c-0.5,0-0.9,0-1.2,0.1c-0.3,0.1-0.6,0.4-0.9,0.6
		c-3.2-1.4-6.3-2.9-9.6-4c-3-1-6.2-1.5-9.3-2.2c-0.2-0.4-0.2-1-0.5-1.1c-0.4-0.2-1.1-0.2-1.4,0.1c-1.3,0.9-2.6,0.3-3.8,0.4
		c0-0.1,0-0.2-0.1-0.4c1.2-0.4,2.4-0.7,3.8-1.2c-1.4-0.6-2.7,0.3-3.8-1c0.5-0.1,0.9-0.3,1.2-0.2c1,0.1,1.9,0.4,2.8,0.4
		c0.8,0,1.7-0.2,2.5-0.3c0,0-0.1-0.2-0.3-0.3c4,0.7,8.1,1.1,12.1,2.1c3.1,0.7,6,2.1,9,3.2c0.4,0.2,1,0.1,1.4,0.1
		c1.6,0,1.7,0.1,0.9,1.4c-0.7,1.1,0.1,1.3,1,1.8c-0.5,0.3-0.9,0.6-1.3,0.8c0.4,0.1,0.7,0.3,1.2,0.5c-0.5,0.7-0.9,1.4-1.2,1.8
		c0.5,0.7,0.9,1.3,1.3,2c-0.9-0.7-1.8-1.3-2.7-2c0,0,0.1-0.1,0.1-0.1c0.4-0.3,0.8-0.6,1.3-0.9C144.3,67.3,143.8,67.4,143.3,68.6
		L143.3,68.6z M144.9,66.6c0-0.1,0-0.3,0.1-0.4c-0.2,0-0.4,0-0.6,0c0,0-0.1,0.2-0.1,0.3C144.4,66.5,144.7,66.5,144.9,66.6z
		 M145.4,63.6c0,0.1-0.1,0.1-0.1,0.2c0.1,0,0.1,0.1,0.2,0.1c0,0,0.1-0.1,0.1-0.2C145.6,63.7,145.5,63.7,145.4,63.6z"/>
	<path class="st2" d="M132,107.3c-2.9-1.4-5.8-2.9-8.7-4.3c-0.9-0.4-1.9-0.6-2.8-1c-0.3-0.1-0.6-0.5-0.6-0.8c-0.1-0.6,0-1.2,0.1-2.1
		c6.2,1.3,11.9,3.6,17.3,7.4c1.1-2.3,2.1-4.5,3-6.6c0.7-1.6,1.1-3.2,1.7-4.8c0.1-0.4,0.4-0.7,0.6-1c0.5,0.3,1,0.6,1.6,0.9
		c-1.8,0.1-1.9,0.2-2,2c0,0.4-0.3,0.7-0.4,1.1c-0.2,0.5-0.4,1.1-0.5,1.6c-0.2,0.5-0.3,0.9-0.5,1.4c-0.5,1-0.9,2-1.4,3
		c-0.2,0.4-0.5,0.8-0.9,1.4c0.4,0.4,0.9,0.8,1.2,1.4c0.2,0.3,0.2,0.9,0,1.2c-0.3,0.5-0.8,1-1.2,1.5c-0.1-0.2-0.4-0.4-0.7-0.8
		c-0.3,0.3-0.5,0.5-0.9,0.9c1,0.6,1.9,1.1,1.4,2.4C136.2,110.4,134.1,108.8,132,107.3z M137.4,108.2c0-0.1-0.1-0.3-0.1-0.4
		c-0.2,0.1-0.5,0.2-0.7,0.3c0,0.1,0.1,0.2,0.1,0.3C136.9,108.3,137.1,108.2,137.4,108.2z M138.6,106.9c0,0.1-0.1,0.1-0.1,0.2
		c0.1,0,0.1,0.1,0.2,0.1c0,0,0.1-0.1,0.1-0.2C138.7,107,138.6,107,138.6,106.9z"/>
	<path class="st3" d="M146.6,88.8c-1.7-1.8-3.3-3.6-5-5.3c0.4-0.2,0.9-0.4,1.3-0.5c1.1-0.1,1.4-0.6,0.8-1.5c0.6-0.2,1.1-0.4,1.6-0.7
		c0.5,0.3,1,0.7,1.5,1c0.8,0.9,1.6,1.8,2.5,2.7C148.4,85.9,147.5,87.3,146.6,88.8z"/>
	<path class="st4" d="M132,107.3c2.1,1.5,4.2,3.1,6.3,4.6c2.3,2.2,4.7,4.3,5.8,7.5c-1-0.7-1.9-1.5-2.9-2.2c-1.1-0.9-2.2-1.7-3.3-2.6
		c-1.6-1.2-3.3-2.5-4.9-3.7c0.4,0,0.8-0.1,1.2-0.2c0.2,0,0.5-0.2,0.6-0.3c0.1-0.1-0.1-0.5-0.2-0.6c-0.6-0.4-1.3-0.9-1.9-1
		C131.9,108.6,131.7,108.1,132,107.3z"/>
	<path class="st4" d="M149.4,84.5c-0.8-0.9-1.6-1.8-2.5-2.7c0,0,0.1-0.1,0.1-0.1c0.1-0.1,0.3-0.3,0.4-0.4c0.8,0.2,1-0.4,1.2-0.9
		c0,0,0.1-0.1,0.1-0.1c0.7,0.7,1.5,1.3,2.1,2.1c0.3,0.4,0.3,1.3,0.1,1.7C150.7,84.3,149.9,84.3,149.4,84.5z"/>
	<path class="st5" d="M138.1,114.6c1.1,0.9,2.2,1.7,3.3,2.6c-0.6,0.2-1.3,0.3-1.9,0.5c0-0.1-0.1-0.2-0.1-0.3
		c-0.4,0.2-0.7,0.4-1.1,0.7c-0.8-0.8-1.5-1.6-2.3-2.4C136.5,114.9,137.2,114.5,138.1,114.6z"/>
	<path class="st4" d="M146.9,78.9c-1.8,0.2-2.5-1.8-4.1-2.1c-0.1,0,0-0.4-0.1-0.8c0.6,0,1.2,0.1,1.7,0.1c-0.2,0.1-0.5,0.1-0.7,0.2
		c-0.1,0-0.2,0-0.3,0.1c0.1,0,0.2,0.1,0.3,0.1c0.4,0.3,0.9,0.6,1.3,0.9C145.7,77.9,146.3,78.4,146.9,78.9z"/>
	<path class="st4" d="M144.2,95c-0.5-0.3-1-0.6-1.6-0.9c0.5,0,0.9-0.1,1.4,0c1.1,0.1,2.1,0.2,3.2,0.3
		C146.2,94.5,145.2,94.7,144.2,95z"/>
	<path class="st6" d="M143.7,76.3c0.2-0.1,0.5-0.1,0.7-0.2c1-0.4,1.9-0.7,2.9-1.1c-0.1,0.3-0.2,0.9-0.4,0.9c-1,0-1.4,0.8-2,1.4
		c-0.4-0.3-0.9-0.6-1.3-0.9C143.7,76.5,143.7,76.4,143.7,76.3z"/>
	<path class="st4" d="M11.4,110.6c1.1,0.3,2.3,1.7,2.3,2.6c0,0.1-0.2,0.2-0.4,0.2C12.6,112.5,12,111.6,11.4,110.6z"/>
	<path class="st4" d="M147.4,80.3c0-0.3,0-0.7,0-1c0.4,0.3,0.8,0.6,1.3,0.9c0,0-0.1,0.1-0.1,0.1C148.2,80.3,147.8,80.3,147.4,80.3
		L147.4,80.3z"/>
	<path class="st6" d="M138.2,140.4"/>
	<path class="st4" d="M13.5,113.7c0.2,0.2,0.3,0.5,0.5,0.7C13.8,114.2,13.6,114,13.5,113.7z"/>
	<path class="st4" d="M147.4,79.4c-0.2-0.1-0.3-0.3-0.5-0.4C147.1,79.1,147.3,79.2,147.4,79.4z"/>
	<path class="st5" d="M138,119.6c0.1-0.3,0.2-0.6,0.4-0.8C138.3,119,138.2,119.3,138,119.6z"/>
	<path class="st4" d="M147.2,94.3c0.1-0.1,0.2-0.2,0.3-0.2C147.4,94.2,147.3,94.2,147.2,94.3z"/>
	<path class="st7" d="M45.9,76.7c6,1.4,12.1,1.3,18.2,0.6c8.8-1,17.2-3.8,25.7-6.1c6.5-1.8,13.1-3.3,19.8-3.4
		c10.5-0.2,20.2,2.6,29.1,8.2c0.8,0.5,1.5,1.1,2.3,1.7c-0.3,0-0.7,0.1-1,0c-1-0.3-1.9-0.7-2.9-1c-2.5-0.6-5-1.1-7.5-1.6
		c-0.9-0.3-1.8-0.6-2.7-0.9c-0.2-0.1-0.3-0.2-0.5-0.2c-7.1-2.2-14.2-2.5-21.4-1.1c-3.2,0.6-6.4,1.5-9.6,2.3c-0.3,0.1-0.7,0.2-1,0.2
		c-0.1,0-0.2,0-0.3,0.1c-6.1,1.6-12.2,3.3-18.3,4.9c-0.2,0.1-0.4,0.2-0.7,0.3c0,0.1,0,0.1-0.1,0.1c-2,0.4-3.9,0.8-5.9,1.1
		c-4.1,0.5-8.2,1-12.3,1.3c-2.8,0.2-5.7,0-8.6,0c0,0.1,0,0.1,0,0.2c1.5,0.6,3,1.3,4.5,1.9c0.4,1.3,0.5,2.7,1.2,3.9
		c5.5,9.4,18.7,12.9,28.6,7.7c0.2-0.1,0.4-0.2,0.6-0.3l0.1-0.1c0.8-0.5,1.5-0.9,2.3-1.4l0.1,0c0.8-0.6,1.5-1.3,2.3-1.9l-0.1-0.1
		l0.1,0.1c1.8-1.6,3-3.5,3.9-5.7c0.3-0.7,0-1.6,0-2.4c0.9-0.4,1.7-0.9,2.6-1c2.3-0.4,4.6-0.7,6.9-0.9c1.6-0.1,3.2,0,5.1,0
		c-0.4,0.4-0.5,0.7-0.8,0.9c-5.9,5-12,9.7-19,13.1c-3.7,1.8-7.3,3.5-11.3,4.5c-4.2,1-8.5,1.9-12.7,2.8c-4.8,1.1-9.6,1-14.4,1.1
		c-3.8,0.1-7.6-0.1-11.3-1.2c-1.6-0.5-3.2-1.3-3.8-2.8c-0.9-2.5-1.5-5.1-1.9-7.7c-0.4-2.6-0.4-5.3-0.6-8c0-0.1-0.1-0.3-0.2-0.4
		c0-0.4,0-0.7,0-1.1c0-11.2,0-22.3,0-33.5c0-1.7,0-3.5,0-5.2c0.4-0.1,0.7-0.2,1.1-0.2c2.4,0,4.7,0,7.1,0c1,0,1.7,0.2,2.3,1.1
		c3,4.1,9.1,4,11.9-0.1c0.6-0.8,1.1-1,2-1c14.9,0,29.8,0,44.7,0c5.3,0,10.6,0,15.9,0c-2,2.4-3.5,5-4.4,8c-0.4,1.2-1.1,1.9-2.3,2.4
		c-1.1,0.4-2.3,0.9-3.4,1.3c-2.6,1-5.3,2.1-7.9,3.1c-0.5,0.2-0.9,0.4-1.3,0.7c-0.1,0-0.3,0-0.4,0.1c-0.2,0.1-0.4,0.2-0.6,0.4
		c-5.2,1.8-10.1,4.1-14.9,6.7c-0.1,0.1-0.2,0.1-0.2,0.2l0,0c-1.7,0.8-3.5,1.7-5.2,2.5c-11.7,3.7-23.7,5-35.9,3.7
		c1.9,0.6,3.8,1.2,5.7,1.8C44.8,76.4,45.4,76.6,45.9,76.7z M44.5,55.2c-2.4,0.9-4,3.3-4,6c-0.1,2.9,1.5,5.4,4.2,6.5
		c2.5,1.1,5.5,0.6,7.4-1.3c2.6-2.4,3-5.9,1-8.8C51.2,54.7,47.5,53.7,44.5,55.2z"/>
	<path class="st8" d="M52.8,85.3c-1.5-0.6-3-1.3-4.5-1.9c0-0.1,0-0.1,0-0.2c2.9,0,5.7,0.2,8.6,0c4.1-0.3,8.2-0.8,12.3-1.3
		c2-0.2,3.9-0.7,5.9-1.1c-0.2,1.4-0.4,2.8-0.6,4.3c8.5-1.3,16.6-4,24.7-6.1c4.9-0.9,9.8-1.8,14.7-1.7c0.7,0,1.5,0.1,2.3,0.1
		c0,7.7,0,15.3,0,22.6c-3.3,0-6.5-0.3-9.7,0c-4.7,0.4-9,2.1-13.3,4c-7.3,3.2-14.7,6.1-22.4,8c-2.3,0.5-4.5,0.9-6.9,0.9
		c-8.2-0.1-16.5,0-24.7,0c-3.4,0-6.4-1.2-8-4.5c-0.6-1.3-0.9-2.9-0.9-4.4c-0.1-4.6,0-9.2,0-13.8c0-1.5,0-3,0.1-4.5
		c0.1,0.1,0.2,0.3,0.2,0.4c0.2,2.7,0.2,5.4,0.6,8c0.4,2.6,1,5.2,1.9,7.7c0.6,1.5,2.1,2.3,3.8,2.8c3.7,1.1,7.5,1.2,11.3,1.2
		c4.8-0.1,9.7,0,14.4-1.1c4.2-1,8.5-1.9,12.7-2.8c4-0.9,7.7-2.7,11.3-4.5c7-3.4,13.1-8.1,19-13.1c0.2-0.2,0.4-0.4,0.8-0.9
		c-1.8,0-3.5-0.1-5.1,0c-2.3,0.2-4.6,0.5-6.9,0.9c-0.9,0.2-1.7,0.7-2.6,1c-0.2-0.2-0.4-0.3-0.6-0.5c-1-0.6-1.9-0.2-2.6,0.5
		c-0.1,0-0.2-0.1-0.3-0.1c-2.3,0.1-4.5,0.3-6.8,0.4c-2.9,0.2-5.7,0.4-8.6,0.5c-2.7,0.1-5.3,0.4-8,0.3c-2.7-0.1-5.4-0.5-8-0.8
		c-0.7-0.9-1.5-1.4-2.7-1C53.6,84.7,53.2,85,52.8,85.3z"/>
	<path class="st5" d="M113.1,33c2.6,1.7,3.3,4.2,3,7.1c-0.4-0.3-0.9-0.8-1.3-0.8c-0.4,0-0.9,0.6-1.3,0.8c-0.1,0.1-0.4,0-0.6,0
		c-2.5-0.2-5-0.3-7.4-0.5c-0.7,0-0.7-0.5-0.7-1c0.3,0.1,0.6,0.4,1,0.4c0.9,0.2,1.8,0,2.2-0.8c0.4-0.9,0.4-2-0.6-2.5
		c-0.6-0.3-1.6-0.3-2.2-0.1c-0.9,0.4-1,1.4-0.6,2.3c0.1,0.2,0.2,0.4,0.3,0.6c-0.2,0.3-0.3,0.6-0.5,0.8c-0.2,0.2-0.5,0.6-0.8,0.6
		c-0.2,0-0.4-0.4-0.7-0.6c-0.2-0.2-0.4-0.5-0.7-0.9c-0.5,1.9-1,2-2.4,0.9c-0.2-0.2-0.5-0.2-0.7-0.3c0.2-0.1,0.5-0.2,0.6-0.4
		c0.3-0.7,0.7-1.4,0.6-2.1c-0.1-0.5-0.8-1.1-1.3-1.3c-0.8-0.3-1.6,0-2.1,0.9c-0.8,1.3,0,2.6,1.8,2.9c0,0.1,0.1,0.3,0.1,0.4
		c-1.1,0.2-2.3,0.4-3.4,0.5c-1.1,0-2.2-0.4-3.3-0.4c-1.2,0-2.4,0.3-3.7,0.4c-1.8,0.1-3.5,0-5.3,0c-0.4,0-0.7,0.3-1,0.4
		c-8.8,0-17.7,0-26.5,0c-0.7,0-1.4-0.2-1.6,0.7c0-3.2,0-6.5,0-9.7c3.1,0,6.2,0,9.2,0.1c0.3,0.1,0.6,0.4,1,0.4c4.4,0,8.8,0,13.2,0
		c0.3,0,0.6-0.3,1-0.4c9.3,0,18.5,0,27.8,0c1.2,0,2.3,0.2,3.5,0.4C110.8,32.3,111.9,32.7,113.1,33z M88.7,37.2c0,1,0.9,1.9,1.9,2
		c1.1,0,2-0.8,2-1.9c0-1-0.8-1.9-1.8-1.9C89.8,35.3,88.8,36.2,88.7,37.2z"/>
	<path class="st9" d="M90.6,112.7c-2.8,1.5-5.5,3.1-8.4,4.5c-6,3-12.5,4.7-19.1,5.9c-5.4,1-10.9,1.5-16.4,1.2
		c-2.6-0.1-5.1-0.6-7.7-0.9c-0.1-0.1-0.3-0.2-0.4-0.2c-4.7-1-9-2.9-12.3-6.5c-2.5-2.8-3.6-6-3.2-9.8c0.2-2.2,1-4.3,2.1-6.2
		c0.3-0.4,0.6-0.9,1-1.5c0,0.4,0,0.7,0.1,1c-0.7,2.6-0.8,5.2,0,7.8c0.9,3.5,3.2,5.8,6.2,7.3c4.7,2.4,9.8,3.4,15,3.6
		c9.1,0.4,17.9-1.2,26.6-3.5c7.3-1.9,14.2-4.9,21.1-8.2c4.6-2.2,9.3-3.9,14.5-3.7c1.6,0.1,3.1,0.3,4.7,0.4c-0.4,0.1-0.7,0.4-1.1,0.4
		c-1.6,0.1-3.1,0.1-4.7,0.2c-1.9,0-3.7,0.7-5.5,1.4c-1.3,0.5-2.6,1.2-3.9,1.8c-1.6,0.8-3.3,1.6-4.9,2.3
		C93.1,111,91.9,111.9,90.6,112.7z"/>
	<path class="st10" d="M80,68.1c4.8-2.7,9.7-4.9,14.9-6.7c0.2-0.1,0.4-0.2,0.6-0.4c0.1,0,0.3,0,0.4-0.1c0.4-0.1,0.8-0.2,1.3-0.2
		c3.1-0.7,6.1-1.6,9.2-2.1c3.3-0.6,6.6-1,9.8-1.5c0,0,0,0,0,0c0.3,0.1,0.6,0.3,1,0.3c1.4,0,2.8,0,4.3,0c0.4,0,0.8,0,1.2,0
		c0.1,0.2,0.3,0.3,0.3,0.3c-0.8,0.1-1.7,0.3-2.5,0.3c-0.9,0-1.9-0.3-2.8-0.4c-0.4,0-0.7,0.1-1.2,0.2c1.1,1.3,2.5,0.3,3.8,1
		c-1.4,0.4-2.6,0.8-3.8,1.2c0,0.1,0,0.2,0.1,0.4c1.3-0.1,2.5,0.5,3.8-0.4c0.3-0.2,1-0.3,1.4-0.1c0.3,0.1,0.3,0.7,0.5,1.1
		c-8.7-0.8-17,0.9-25.2,3.4c-5.1,1.5-10.2,3-15.3,4.5C81.3,69,81,69,80.8,69c-0.5,0-1.1,0.1-1-0.7c0,0,0,0,0,0
		C79.8,68.2,79.9,68.2,80,68.1z"/>
	<path class="st10" d="M99.1,78.9c-8.2,2.1-16.3,4.8-24.7,6.1c0.2-1.5,0.4-2.9,0.6-4.3c0,0,0.1-0.1,0.1-0.2c0.2-0.1,0.4-0.2,0.7-0.3
		c6.1-1.6,12.2-3.3,18.3-4.9c0.1,0,0.2,0,0.3-0.1C94.9,77.1,97.3,78.9,99.1,78.9z"/>
	<path class="st11" d="M115.2,45.6c-5.3,0-10.6,0-15.9,0c-14.9,0-29.8,0-44.7,0c-0.9,0-1.4,0.1-2,1c-2.8,4.1-8.9,4.2-11.9,0.1
		c-0.6-0.9-1.3-1.1-2.3-1.1c-2.4,0.1-4.7,0-7.1,0c-0.4,0-0.7,0.2-1.1,0.2c-0.1,0.5-0.1,0.9-0.2,1.4c-0.3-0.3-0.8-0.6-0.9-1
		c-0.3-1,0.5-1.4,1.8-1.2c0.7,0.1,1.5,0,2.2-0.1c-0.1-0.7-0.2-1.1-0.3-1.6l0,0c1.1,0,2.1,0,3.2,0c0.2,0,0.4,0.3,0.6,0.4
		c-0.2,0.2-0.3,0.4-0.6,0.4c-0.4,0.1-0.9,0.1-1.4,0.1c0,0.1,0,0.3,0,0.4c1.8,0.1,3.7,0.1,5.5,0.2l0,0.1l0,0l-0.1,0
		c0.1-0.3,0.2-0.6,0.2-0.9c0.2-1.5,0.1-1.7-1.5-1.7c-2,0-4.1,0-6.1,0l0,0c0.5-0.2,0.9-0.4,1.4-0.5c0.8-0.2,1.6-0.3,2.4-0.4
		c0.9,0,1.8,0,2.8,0c0-3.5,0-6.8,0-10c0-0.4,0-0.9,0-1.4c-0.7,0-1.2,0.1-1.8,0.1c0.8-1.2,1.7-0.2,2.8-0.1c0-1.7,0-3.4,0-5
		c0.2,0,0.4,0,0.5,0c0,0.9,0,1.8,0,2.7c0,5,0,9.9,0,14.9c0,0.9,0.1,1.6,1.2,1.7c0.1,0.1,0.2,0.3,0.2,0.4c0,0.9,0.4,1.6,1.5,1.5
		c2.4,1.3,4.6,0.8,6.5-1c0.3,0.7,0.7,0.7,1,0c0.5-1.1,1-2.2,2.1-2.8c0.1,0.3,0.2,0.6,0.2,0.9c-0.3,0.3-0.6,0.7-0.9,1
		c0.2,0.2,0.2,0.3,0.2,0.3c2.2,0.2,4.4,0.5,6.6,0.5c7.7,0.1,15.4,0,23,0c1.5,0,3.1-0.2,4.6-0.2c6.5,0,13,0,19.4,0
		c2.5,0,4.9-0.2,7.4-0.2c0.7,0,1.4,0.4,2.2,0.7C115.9,45.6,115.5,45.6,115.2,45.6z"/>
	<path class="st5" d="M42.4,44.8c-0.1-0.1-0.2-0.3-0.2-0.4c0-0.1-0.1-0.3-0.1-0.4c0.1-0.4,0.3-0.7,0.3-1.1c0-4.5,0-9,0-13.6
		c0-0.3-0.1-0.6-0.1-0.8c-0.1,0-0.2,0-0.4,0c0,5,0,10,0,15c-0.1-0.5-0.2-1-0.2-1.5c0-5.5,0-11,0-16.5c0.1,0,0.1,0,0.2-0.1
		c0,0,0.1,0,0.1,0c0,0.4,0,0.8,0,1.3c0.3-0.2,0.5-0.3,0.8-0.5c0.2,1.6,0.4,3,0.6,4.4c0.1,0.5,0.2,0.7,0.7,0.5c0,0.3,0,0.6,0,0.9
		c0.1,2.1,0,4.2,0.2,6.3c0.2,1.7,1.3,2.4,2.9,2.4c1.6,0,2.9-0.8,3-2.4c0.2-2.7,0.1-5.5,0.2-8.2c0-0.1-0.2-0.2-0.3-0.3
		c0-0.9,0.1-1.9,0.1-2.8c0-0.7,0-1.4,0.1-2.1c0.3,0,0.6,0,0.9-0.1c0.1,0.2,0.2,0.5,0.3,0.7c0,0.4,0,0.7,0,1.1c0,0.3,0,0.5,0,0.8
		c0,0.4,0,0.7,0,1.1c0,0.7,0,1.4,0,2c0,0.5-0.1,1.1-0.1,1.6c0,3.7,0,7.4-0.1,11.1c-0.3,0.6-0.6,1.3-0.9,1.9c-2,1.7-4.1,2.2-6.5,1
		C43.3,45.8,42.9,45.3,42.4,44.8z"/>
	<path class="st12" d="M63.2,31.7c-3.1,0-6.2,0-9.2-0.1c0-0.5,0-0.9,0.1-1.4c1.8,0,3.6,0,5.4,0c2,0,3.9,0,5.9,0c2.4,0,4.9,0,7.3,0
		c0.2,0,0.5,0,0.7,0c4,0,8.1,0,12.1,0c7.1,0,14.1,0,21.2,0c1.9,0.1,3.8,0.4,5.3,1.6c0.4,0.3,0.7,0.8,1.1,1.3
		c-1.2-0.3-2.3-0.7-3.5-0.9c-1.2-0.2-2.3-0.4-3.5-0.4c-9.3,0-18.5,0-27.8,0C73.3,31.7,68.2,31.7,63.2,31.7z"/>
	<path class="st13" d="M99.1,107.8c1.3-0.6,2.5-1.3,3.9-1.8c1.8-0.7,3.6-1.4,5.5-1.4c1.6,0,3.1-0.1,4.7-0.2c0.4,0,0.7-0.3,1.1-0.4
		c3.5,0.9,7,1.6,10.4,2.7c2.6,0.9,4.9,2.4,7.4,3.6c-0.5,0.3-0.9,0.6-0.4,1.4c0.2,0.2,0.9,0.8,0.1,1.3c-4.8-2.4-9.7-4.3-14.9-5.6
		c-0.4-0.1-0.8-0.1-1.2-0.2c-2.6-0.3-5.2-1-7.8-0.9C105,106.5,102.1,107.3,99.1,107.8z"/>
	<path class="st8" d="M90.6,112.7c1.2-0.8,2.4-1.7,3.6-2.5c0.3,0,0.6,0.1,0.9,0c3.3-0.5,6.5-1.2,9.8-1.5c2.4-0.2,4.9,0,7.4,0
		c0.7,0.1,1.4,0.3,2.1,0.4c-0.3,1.8-2.3,3.5-4.7,3.5C103.4,112.8,97,112.7,90.6,112.7z"/>
	<path class="st8" d="M115.2,45.6c0.3,0,0.6,0,1,0c0,3.8,0,7.7,0,11.5c-3.3,0.5-6.6,0.8-9.8,1.5c-3.1,0.6-6.2,1.4-9.2,2.1
		c-0.4,0.1-0.8,0.2-1.3,0.2c0.4-0.2,0.9-0.5,1.3-0.7c2.6-1,5.3-2.1,7.9-3.1c1.1-0.4,2.3-0.9,3.4-1.3c1.1-0.4,1.9-1.2,2.3-2.4
		C111.7,50.6,113.3,48,115.2,45.6z"/>
	<path class="st5" d="M39.5,31.6c0,3.3,0,6.5,0,10c-0.9,0-1.9,0-2.8,0c-1.8,0-3.7,0-5.5-0.1c0.3-1.3,0.5-2.7,0.8-4
		C32.9,34.1,35.9,31.7,39.5,31.6z"/>
	<path class="st9" d="M67.9,21.4c-0.2-0.1-0.5-0.1-0.7-0.2c0.2-0.2,0.4-0.6,0.7-0.7c2.5-0.9,4.3-2.6,5.1-5.2
		c0.1-0.3,0.3-0.6,0.4-0.9c0.2,0.1,0.3,0.1,0.3,0.2c0.1,0,0.1,0.1,0.1,0.2c0.9,3.2,3.1,5.2,6.3,6.1c0,0.1,0,0.1,0,0.2
		c-0.3,0.1-0.6,0.3-1,0.4c-2,0.5-3.3,1.8-4.3,3.6c-0.4,0.8-0.8,1.6-1.2,2.5c-0.4-0.9-0.7-1.8-1.2-2.5c-0.5-0.7-1.1-1.3-1.7-2
		c-0.1,0-0.1-0.1-0.2-0.1C69.7,22.3,68.8,21.9,67.9,21.4z"/>
	<path class="st14" d="M108.6,42.5c0.4,0.2,0.7,0.4,1.1,0.4c1.7,0,3.5,0,5.2,0c0.4,0,0.8,0,1.1,0.3c-20.1,0-40.1,0-60.2,0
		c0-0.1,0-0.1,0-0.2c0.3,0,0.6-0.1,0.9-0.1c1.8,0,3.6,0,5.4,0c0.4,0,0.7-0.3,1.1-0.4c9,0,18,0,27.1,0c1.2,0,2.4,0.3,3.7,0.4
		c0.5,0,0.9,0,1.4,0c0.7-0.1,1.3-0.3,2-0.4c1.5-0.2,2.9,0.2,4.4,0.1C104,42.3,106.3,42.5,108.6,42.5z"/>
	<path class="st15" d="M129.7,75.1c2.5,0.5,5,1.1,7.5,1.6c1,0.2,1.9,0.7,2.9,1c0.3,0.1,0.6,0,1,0c1.3,0.9,2.7,1.7,4,2.6
		c0.1,0.1,0.2,0.3,0.3,0.4c-0.5,0.2-1.1,0.4-1.6,0.7c0.6,1,0.3,1.4-0.8,1.5c-0.4,0-0.9,0.3-1.3,0.5c-1.7-1.4-3.4-2.9-5.3-4.2
		C134.2,77.8,131.9,76.5,129.7,75.1z"/>
	<path class="st16" d="M112.4,108.7c-2.5,0-5-0.2-7.4,0c-3.3,0.3-6.5,1-9.8,1.5c-0.3,0-0.6,0-0.9,0c1.6-0.8,3.3-1.6,4.9-2.3
		c2.9-0.5,5.8-1.3,8.8-1.4c2.6-0.1,5.2,0.5,7.8,0.9C115,108.7,113.4,108.1,112.4,108.7z"/>
	<path class="st14" d="M53.7,43.4c-0.1-0.3-0.2-0.6-0.2-0.9c0-0.2,0-0.5,0-0.7c0.2-0.1,0.3-0.2,0.5-0.2c14.2,0,28.3,0,42.5,0
		c6.6,0,13.2,0,19.7,0c0,0.2,0,0.3,0,0.5c-20.2,0-40.4,0-60.6,0c-1.2,0.7-1.2,0.8-0.2,2.1C54.3,44.6,53.9,44.5,53.7,43.4z"/>
	<path class="st17" d="M9.8,62.2c0.1-0.2,0.1-0.5,0.2-0.6c0.9-0.6,1.7-1.3,2.6-1.9c0.5-0.3,0.9-0.6,1.6-1c0.1-1.1,0.1-2.6,1.7-3.2
		c0.8-0.3,1.8,0.1,1.7,1c-0.1,1.3,0.6,2,1.5,2.9c0.9,0.9,1.7,1.5,2.9,1.8c0.4,0.1,0.7,0.5,1.1,0.9c-0.7,1.1-1.1,2.4-2.8,2.5
		c-0.5,0-0.9,0.5-1.3,0.9c-1,1.2-2.1,2.4-2,4.2c0,0.2-0.4,0.4-0.7,0.7c-0.1-0.2-0.3-0.4-0.4-0.6c-0.5-1-0.5-2.2-1.8-2.7
		c-0.2-0.1-0.3-0.5-0.3-0.7c0.1-1.1-0.7-1.2-1.5-1.6c-1.1-0.5-2.1-1.4-3.1-2.1C9.5,62.4,9.6,62.3,9.8,62.2c0.2,0.2,0.4,0.4,0.7,0.4
		c2.1,0.6,3.8,1.9,4.8,3.9c0.4,0.7,0.7,1.5,1.1,2.5c1-3.5,3.1-5.8,6.6-6.6c-3.5-1-5.6-3.2-6.7-6.6C15.3,59.3,13.1,61.4,9.8,62.2z"/>
	<path class="st18" d="M55.6,42c20.2,0,40.4,0,60.6,0c-0.3,0.2-0.7,0.5-1,0.5c-2.2,0-4.4,0-6.5,0c-2.3,0-4.6-0.2-6.8,0.1
		c-1.5,0.2-2.9-0.2-4.4-0.1c-0.7,0.1-1.3,0.3-2,0.4c-0.5,0.1-0.9,0.1-1.4,0c-1.2-0.1-2.4-0.4-3.7-0.4c-9,0-18,0-27.1,0
		c-2.2,0-4.4,0-6.5,0C56.3,42.5,56,42.2,55.6,42z"/>
	<path class="st19" d="M116.2,41.5c-6.6,0-13.2,0-19.7,0c-14.2,0-28.3,0-42.5,0c0-0.1,0-0.2,0-0.2c0.3-0.9,1-0.7,1.6-0.7
		c0.3,0.2,0.5,0.4,0.8,0.5c1.3,0,2.6,0,4,0c18.6,0,37.2,0,55.8,0C116.1,41.2,116.1,41.4,116.2,41.5z"/>
	<path class="st10" d="M116.1,41.1c-18.6,0-37.2,0-55.8,0c-1.3,0-2.6,0-4,0c-0.3,0-0.5-0.3-0.8-0.5c8.8,0,17.7,0,26.5,0
		c11.3,0,22.7,0,34,0C116.1,40.7,116.1,40.9,116.1,41.1z"/>
	<path class="st9" d="M22.9,84.4c0,0.1-0.1,0.3-0.1,0.3c-2.4,0.5-3.7,2-4.3,4.2c-0.6-1-1.1-2-1.8-2.7c-0.6-0.6-1.6-0.9-2.4-1.4
		c-0.2-0.1-0.3-0.3-0.5-0.4c2.4-0.4,3.8-2,4.5-4.2c0.1,0.1,0.2,0.1,0.3,0.2C19.2,82.5,20.6,83.9,22.9,84.4z"/>
	<path class="st19" d="M116.1,40.6c-11.3,0-22.7,0-34,0c0.3-0.2,0.7-0.4,1-0.4c1.8,0,3.5,0,5.3,0c1.2-0.1,2.4-0.4,3.7-0.4
		c1.1,0,2.2,0.4,3.3,0.4c1.1,0,2.3-0.3,3.4-0.5c0-0.1-0.1-0.3-0.1-0.4c0.1,0,0.3,0,0.4,0c0.3,0.1,0.6,0.1,0.7,0.3
		c1.4,1.1,1.9,1,2.4-0.9c0.3,0.4,0.5,0.6,0.7,0.9c0.2,0.2,0.5,0.6,0.7,0.6c0.3,0,0.6-0.3,0.8-0.6c0.2-0.2,0.3-0.5,0.5-0.8l0,0
		c0,0.5,0,0.9,0.7,1c2.5,0.1,5,0.3,7.4,0.5c0.2,0,0.4,0.1,0.6,0c0.5-0.3,0.9-0.8,1.3-0.8c0.4,0,0.9,0.5,1.3,0.8
		C116.1,40.3,116.1,40.4,116.1,40.6z"/>
	<path class="st12" d="M39.5,31.6c-3.5,0.1-6.6,2.6-7.5,5.9c-0.4,1.3-0.6,2.7-0.8,4c-0.3,0-0.5,0-0.8,0c-0.4-6.1,1.8-9.6,7.3-11.3
		c0.6,0,1.1-0.1,1.8-0.1C39.5,30.7,39.5,31.1,39.5,31.6z"/>
	<path class="st20" d="M25.2,100.7c-1,1.9-1.9,4-2.1,6.2c-0.3,3.7,0.7,7,3.2,9.8c3.3,3.6,7.6,5.5,12.3,6.5c0.1,0,0.3,0.1,0.4,0.2
		c-1.4-0.2-2.8-0.3-4.2-0.6c-1.3-0.3-2.5-0.8-3.7-1.3c-0.6-0.3-1.3-0.6-1.8-1.1c-1.2-1.1-2.6-2.1-3.6-3.4c-1-1.3-2.4-2.4-2.5-4.2
		c-1.7-1.3-0.8-3.4-1.2-5c-0.3-1.5,0.7-3.3,1.1-4.9c0.1-0.4,0.5-0.9,0.5-1.3C23.8,100.6,24.4,100.6,25.2,100.7z"/>
	<path class="st11" d="M30.1,89.3c-0.2-0.5-0.4-0.9-0.4-1.4c0-12.2,0-24.5,0-36.7c0-0.9,0-1.7,0-2.6c0-0.3,0.3-0.6,0.4-0.9
		C30,61.6,30.1,75.4,30.1,89.3z"/>
	<path class="st20" d="M94.2,17.4c0.6,0,1.2,0,1.2,0.8c0,0.8-0.5,1.1-1.2,1.1c-1-0.1-1.8,0-1.6,1.4c0,0.6-0.9,0.7-1.5,0.3
		c-1-0.7-2.1-1.3-3.1-1.9c-0.7-0.4-1.1-1.4-0.5-2c1-1,2.1-1.8,3.2-2.7c0.2-0.2,0.9-0.1,1,0c0.7,0.8,1.3,1.7,1.9,2.6
		c-0.9-0.7-1.7-1.5-2.4-2c-0.9,0.8-1.9,1.7-2.9,2.6c1.4,0.2,2.3,1.2,3,3C91.6,18.7,92.9,18.1,94.2,17.4z"/>
	<path class="st17" d="M95.4,75.1c3.2-0.8,6.4-1.6,9.6-2.3c7.2-1.4,14.4-1.1,21.4,1.1c0.2,0.1,0.4,0.2,0.5,0.2
		c-1.8,0.1-3.4-0.2-5.1-0.8c-1.1-0.4-2.4-0.4-3.6-0.6c-1.3-0.2-2.5-0.5-3.8-0.4c-2.1,0.1-4.2,0.6-6.3,0.9c-0.5,0.1-1,0-1.5,0.1
		c-1.3,0.2-2.6,0.5-3.9,0.8c-1.2,0.2-2.4,0.4-3.6,0.6C98,74.8,96.7,75,95.4,75.1z"/>
	<path class="st17" d="M80.2,20.8c-3.2-0.9-5.3-2.8-6.3-6.1c0-0.1-0.1-0.1-0.1-0.2c-0.1,0-0.1-0.1-0.3-0.2c-0.1,0.3-0.3,0.6-0.4,0.9
		c-0.8,2.6-2.6,4.3-5.1,5.2c-0.3,0.1-0.5,0.4-0.7,0.7c0.1-0.4,0-0.9,0.2-1.1c1.1-0.8,2.2-1.5,3.3-2.2c0.6-0.4,0.9-0.8,0.9-1.5
		c0-0.5-0.1-1.1,0.1-1.5c0.2-0.5,0.8-1.2,1.1-1.1c0.6,0,1.3,0.5,1.6,1c1.1,1.4,1.9,3,3,4.4c0.3,0.4,1.1,0.3,1.6,0.6
		C79.5,19.9,79.8,20.4,80.2,20.8z"/>
	<path class="st12" d="M126.1,84.1c0.5,1.7,1.8,2.5,3.3,3.2c-1.7,0.4-2.8,1.4-3.4,3.4c-0.6-2-1.8-2.9-3.5-3.5
		C124.4,86.9,125.3,85.5,126.1,84.1z"/>
	<path class="st15" d="M131.7,113c0.8-0.5,0.1-1.1-0.1-1.3c-0.5-0.7-0.1-1,0.4-1.4c0.4,0.2,0.7,0.4,1.1,0.5c1.6,1.2,3.3,2.5,4.9,3.7
		c-0.9-0.1-1.6,0.3-2.1,1C134.6,114.7,133.1,113.9,131.7,113z"/>
	<path class="st12" d="M132.8,91.7c0.9,1.2,1.7,2.6,3.4,3c-1.5,0.6-2.7,1.3-3.2,3c-0.2-0.3-0.3-0.4-0.4-0.6c-0.4-1.4-1.6-2-3.2-2.4
		C131.1,94.1,132.2,93.2,132.8,91.7z"/>
	<path class="st20" d="M70.7,22.9c0.6,0.7,1.2,1.3,1.7,2c0.5,0.7,0.8,1.6,1.2,2.5c0.5-0.9,0.8-1.7,1.2-2.5c1-1.7,2.3-3,4.3-3.6
		c0.3-0.1,0.6-0.3,1-0.4c0.7,0.6,0.2,0.9-0.3,1.2c-0.8,0.4-1.6,0.6-2.3,1.1c-0.9,0.6-1.8,1.3-2,2.6c-0.2,1.2-1.1,2-1.9,2
		c-1.1-0.1-1.8-0.8-2-2.2c0-0.2,0-0.4-0.1-0.4C70.5,24.7,70.8,23.7,70.7,22.9z"/>
	<path class="st17" d="M126.1,84.1c-0.8,1.4-1.7,2.8-3.5,3.1c1.6,0.6,2.9,1.5,3.5,3.5c0.6-1.9,1.7-2.9,3.4-3.4
		c0.1,0.6,0,1.1-0.6,1.5c-0.6,0.4-1,1-1.6,1.6c-1,1-2.1,0.6-2.6-0.6c-0.2-0.5-0.9-1.1-1.4-1.2c-0.8-0.2-1.4-0.6-1.3-1.2
		c0.1-0.5,0.9-0.9,1.4-1.3c0.2-0.1,0.5-0.1,0.9-0.1c-0.5-1.2,0.3-1.6,1.1-2C125.4,83.8,125.8,84,126.1,84.1z M123.2,86.4
		C123.2,86.4,123.3,86.4,123.2,86.4c0.1,0,0.1,0,0.1,0C123.3,86.3,123.3,86.3,123.2,86.4C123.2,86.3,123.2,86.4,123.2,86.4z"/>
	<path class="st12" d="M56.6,20.2c-0.1,0-0.4,0-0.4-0.1c-0.4-1.4-1.5-2.1-2.5-2.5c0.9-0.9,1.9-1.8,2.7-2.6c0.9,0.8,2,1.7,3.1,2.6
		C58,18,57,18.8,56.6,20.2z"/>
	<path class="st12" d="M94.2,17.4c-1.3,0.7-2.6,1.3-3,3.2c-0.7-1.8-1.6-2.8-3-3c1-0.9,2-1.8,2.9-2.6c0.7,0.6,1.5,1.3,2.4,2
		C93.7,17.2,93.9,17.3,94.2,17.4z"/>
	<path class="st14" d="M41.7,25.5c0,5.5,0,11,0,16.5c0,0.5,0.1,1,0.2,1.5c0.1,0.2,0.1,0.3,0.2,0.5c0,0.1,0.1,0.3,0.1,0.4
		c-1.1-0.1-1.2-0.8-1.2-1.7c0-5,0-9.9,0-14.9c1-0.6,0.2-1.6,0.5-2.4C41.5,25.5,41.6,25.5,41.7,25.5z"/>
	<path class="st18" d="M106.7,30.2c-7.1,0-14.1,0-21.2,0c-4,0-8.1,0-12.1,0c0.1,0,0.1-0.1,0.2-0.1c2.9-0.1,5.9-0.1,8.8-0.1
		c1.6,0,3.1,0.1,4.7,0c3.4-0.1,6.7-0.2,10.1-0.2c2.9,0,5.9,0.1,8.8,0.2C106.2,30,106.5,30.1,106.7,30.2z"/>
	<path class="st11" d="M41.7,25.5c-0.1,0-0.2,0-0.2,0c-0.1-0.6-0.3-1.2-0.4-1.8c-0.1-0.4-0.3-0.8-0.5-1.2c0-0.1,0.3-0.2,0.4-0.3
		c0.2,0.3,0.5,0.7,0.9,1.2c0.6-0.4,1.2-0.8,2.1-1.3c-0.8-0.2-1.3-0.3-2.2-0.6c0.5-0.2,0.7-0.3,0.9-0.3c1.9,0.7,3.8-0.2,5.7,0
		c0.8,0.1,1.5,0.3,2,1c0.2,0.3,0.5,0.7,0.8,1c1,0.8,0.7,1.6,0.3,2.5c-0.1-0.2-0.2-0.5-0.3-0.7c-0.1-0.3-0.1-0.7-0.3-1
		c-1-1.7-2.9-2.6-4.9-2.3c-2,0.3-3.6,1.8-4.1,3.7C41.8,25.4,41.7,25.4,41.7,25.5z"/>
	<path class="st12" d="M14.5,45.2c0.8-0.8,1.7-1.6,2.6-2.4c0.7,0.6,1.5,1.5,2.3,2.3c-0.7,0.6-1.6,1.4-2.5,2.2
		c-0.2-0.3-0.5-0.9-0.9-1.3C15.5,45.7,14.9,45.5,14.5,45.2z"/>
	<path class="st12" d="M125,43.3c0.7-0.7,1.6-1.5,2.3-2.2c0.8,0.7,1.7,1.6,2.4,2.3c-0.7,0.6-1.6,1.4-2.4,2
		C126.6,44.7,125.7,43.9,125,43.3z"/>
	<path class="st21" d="M30.1,89.3c0-13.9,0-27.8,0-41.6c0-0.2,0-0.3,0-0.5c0.1-0.5,0.1-0.9,0.2-1.4c0,1.7,0,3.5,0,5.2
		c0,11.2,0,22.3,0,33.5c0,0.4,0,0.7,0,1.1c0,1.5,0,3-0.1,4.5C30.2,89.8,30.1,89.6,30.1,89.3z"/>
	<path class="st12" d="M125.3,52.5c0.7-0.6,1.5-1.3,2.3-2.1c0.7,0.6,1.5,1.4,2.2,2.1c-0.7,0.6-1.5,1.4-2.3,2.1
		C126.8,54,126,53.2,125.3,52.5z"/>
	<path class="st17" d="M132.8,91.7c-0.6,1.5-1.7,2.4-3.4,3c1.5,0.4,2.7,0.9,3.2,2.4c-0.3,0-0.6,0-0.9-0.1c-0.6-0.2-1.3-0.5-1.9-0.7
		c-0.8-0.8-0.9-1.7,0-2.7c0.1-0.1,0.1-0.3,0.2-0.3c1.3,0.2,1.4-1.1,2-1.7C132,91.6,132.5,91.7,132.8,91.7z"/>
	<path class="st11" d="M54,41.3c0,0.1,0,0.2,0,0.2c-0.2,0.1-0.3,0.2-0.5,0.2c0.1-1.1,0.2-2.3,0.2-3.4c0-1.8-0.3-3.6-0.2-5.4
		c0.1-2.1,0-2.3-2-2.4c0-0.7,0-1.4,0-2c0.1,0.3,0.1,0.7,0.2,1.1c2,0,3.9,0,5.8,0c-0.8,0.1-1.6,0.1-2.4,0.2c-0.4,0-0.8,0.2-1.1,0.3
		c0,0.5,0,0.9-0.1,1.4C53.9,34.8,54,38.1,54,41.3z"/>
	<path class="st17" d="M18.2,80.1c-0.7,2.2-2.1,3.8-4.5,4.2c0.3-0.3,0.5-0.7,0.8-0.8c1.3-0.4,1.5-1.4,1.4-2.6c0-0.3,0.5-0.8,0.8-0.9
		C17.2,79.9,17.8,79.2,18.2,80.1z"/>
	<path class="st17" d="M22.9,84.4c-2.3-0.4-3.7-1.8-4.4-4c0.7,0.6,1.4,1.2,2,1.9c0.3,0.3,0.3,0.6,1,0.6C22,82.9,22.5,83.8,22.9,84.4
		z"/>
	<path class="st12" d="M102.9,21.9c0.4-0.4,0.8-0.8,1.3-1.2c0.4,0.4,0.8,0.8,1.3,1.2c-0.4,0.4-0.8,0.9-1.2,1.3
		C103.8,22.7,103.3,22.3,102.9,21.9z"/>
	<path class="st17" d="M26.2,108.1c-0.8-2.6-0.6-5.2,0-7.8C26.3,102.8,26.3,105.4,26.2,108.1z"/>
	<path class="st20" d="M56.6,20.2c0.4-1.4,1.4-2.2,2.8-2.6C59.1,18.8,57.5,20.2,56.6,20.2z"/>
	<path class="st12" d="M20.3,72.3c0.4-0.4,0.8-0.7,1.1-1c0.3,0.3,0.6,0.7,1,1.1c-0.4,0.3-0.8,0.6-1.2,0.8
		C21.1,73,20.7,72.7,20.3,72.3z"/>
	<path class="st20" d="M67.9,21.4c0.9,0.5,1.7,1,2.6,1.4C69.3,23.2,68,22.5,67.9,21.4z"/>
	<path class="st18" d="M54,30.2c0.4-0.1,0.8-0.2,1.1-0.3c0.8-0.1,1.6-0.2,2.4-0.2c0.6,0.2,1.3,0.3,1.9,0.5
		C57.6,30.2,55.8,30.2,54,30.2z"/>
	<path class="st18" d="M72.6,30.2c-2.4,0-4.9,0-7.3,0c1.5-0.1,3.1-0.2,4.6-0.2C70.8,30,71.7,30.1,72.6,30.2z"/>
	<path class="st11" d="M31.1,44.3c-0.7,0.1-1.2,0.2-1.7,0.1c-0.2-0.1-0.2-0.8-0.4-1.3C29.7,43.5,30.2,43.8,31.1,44.3z"/>
	<path class="st11" d="M32.9,43.4c-0.5-0.2-0.9-0.3-1.4-0.5c0.5-0.2,0.9-0.3,1.4-0.5c0,0,0,0,0,0C32.9,42.8,32.9,43.1,32.9,43.4
		L32.9,43.4z"/>
	<path class="st2" d="M121.4,57.4c-1.4,0-2.8,0-4.3,0c-0.3,0-0.6-0.2-1-0.3C117.9,57.2,119.7,57.3,121.4,57.4z"/>
	<path class="st11" d="M51.5,27.5c0-0.3,0-0.5,0-0.8C51.5,27,51.5,27.2,51.5,27.5z"/>
	<path class="st20" d="M91.4,13.8c-0.1,0-0.1,0-0.2,0c0-0.1,0-0.1,0-0.2c0,0,0.1,0,0.1,0C91.3,13.7,91.3,13.7,91.4,13.8z"/>
	<path class="st4" d="M45.9,76.7c-0.6-0.1-1.1-0.3-1.7-0.4c2.1-0.2,4.2-0.5,6.3-0.7c0.4,0,0.8,0.1,1.2,0.3c0.1,0.1,0,0.8-0.1,0.8
		c-0.4,0.1-0.9,0.1-1.3,0.1C48.8,76.8,47.4,76.8,45.9,76.7z"/>
	<path class="st3" d="M79.7,68.3c0,0.8,0.5,0.7,1,0.7c-2.1,0.6-4.2,1.2-6.2,1.8C76.3,70,78,69.1,79.7,68.3z"/>
	<path class="st4" d="M145.4,80.8c-0.1-0.1-0.2-0.3-0.3-0.4c0.8,0,1.6,0,2.4,0c0,0,0,0,0,0c-0.1,0.2-0.2,0.5-0.2,0.7
		c-0.1,0.2-0.1,0.4-0.2,0.7l-0.1,0.1C146.4,81.4,145.9,81.1,145.4,80.8z"/>
	<path class="st22" d="M141,67.3c0.3-0.2,0.6-0.5,0.9-0.6c0.3-0.1,0.7-0.1,1.2-0.1c-0.6,0.6-0.9,0.9-1.2,1.3
		C141.6,67.6,141.3,67.4,141,67.3z"/>
	<path class="st2" d="M144.2,69.1c-0.3-0.2-0.6-0.4-0.9-0.5c0,0,0.1-0.1,0.1-0.1c0.3,0.2,0.6,0.3,0.9,0.5
		C144.3,69,144.3,69.1,144.2,69.1z"/>
	<path class="st22" d="M144.3,69c-0.3-0.2-0.6-0.3-0.9-0.5c0.4-1.1,0.9-1.2,2.2-0.4C145.1,68.4,144.7,68.7,144.3,69z"/>
	<path class="st22" d="M144.9,66.6c-0.2,0-0.4-0.1-0.7-0.1c0-0.1,0.1-0.3,0.1-0.3c0.2,0,0.4,0,0.6,0
		C144.9,66.3,144.9,66.4,144.9,66.6z"/>
	<path class="st22" d="M145.4,63.6c0.1,0,0.1,0.1,0.2,0.1c0,0.1,0,0.2-0.1,0.2c0,0-0.1,0-0.2-0.1C145.4,63.8,145.4,63.7,145.4,63.6z
		"/>
	<path class="st22" d="M137.4,108.2c-0.2,0.1-0.5,0.2-0.7,0.2c0-0.1-0.1-0.2-0.1-0.3c0.2-0.1,0.5-0.2,0.7-0.3
		C137.3,107.9,137.3,108,137.4,108.2z"/>
	<path class="st22" d="M138.6,106.9c0.1,0,0.1,0.1,0.2,0.1c0,0.1,0,0.2-0.1,0.2c0,0-0.1,0-0.2-0.1
		C138.5,107.1,138.6,107,138.6,106.9z"/>
	<path class="st11" d="M147.2,81c0.1-0.2,0.2-0.5,0.2-0.7c0.4,0,0.8,0,1.2,0c-0.2,0.6-0.4,1.1-1.2,0.9
		C147.3,81.2,147.2,81.1,147.2,81z"/>
	<path class="st1" d="M147.2,81c0.1,0.1,0.2,0.2,0.2,0.2c-0.1,0.1-0.3,0.3-0.4,0.4C147,81.5,147.1,81.3,147.2,81z"/>
	<path class="st1" d="M143.7,76.3c0,0.1,0,0.1,0,0.2c-0.1,0-0.2-0.1-0.3-0.1C143.5,76.4,143.6,76.4,143.7,76.3z"/>
	<path class="st23" d="M52.8,85.3c0.4-0.3,0.9-0.6,1.3-0.8c1.1-0.4,2,0.1,2.7,1c1,2.4,2.7,4.3,4.7,5.9c8.8,7,22.2,3.9,27-6.3
		c0.8-0.7,1.6-1.2,2.6-0.5c0.4,1.1,0.1,1.9-0.4,3c-0.3,0.7-0.3,1.5-1,2.1c-0.5,0.4-0.9,1.2-1.2,1.8c-0.3,0.5-0.4,1.1-0.6,1.6
		l-0.1-0.1c0,0,0.1,0.1,0.1,0.1c-1.1-0.1-2.1,0.7-2.3,1.9c0,0-0.1,0-0.1,0c-0.3,0-0.6-0.2-0.9-0.1c-0.8,0-1.6,0.9-1.4,1.5
		c0,0-0.1,0.1-0.1,0.1c-0.2,0.1-0.4,0.2-0.6,0.3c-9.9,5.2-23,1.7-28.6-7.7C53.3,88,53.2,86.6,52.8,85.3z"/>
	<path class="st0" d="M52.1,66.4c-2,1.9-4.9,2.4-7.4,1.3c-2.7-1.2-4.3-3.6-4.2-6.5c0.1-2.6,1.7-5.1,4-6c0.6-0.1,1.3-0.4,1.9-0.4
		c1.2,0.1,2.3,0.4,3.5,0.6c0.1,0,0.1,0.2,0.2,0.3c0.5,0.5,1,1,1.5,1.4c0.3,0.3,0.9,0.5,1,0.9c0.8,2.1,1.1,4.1,0,6.2
		C52.3,64.9,52.3,65.7,52.1,66.4z"/>
	<path class="st17" d="M52.1,66.4c0.2-0.7,0.2-1.5,0.5-2.1c1.1-2.1,0.8-4.2,0-6.2c-0.1-0.4-0.7-0.6-1-0.9c-0.5-0.5-1-1-1.5-1.4
		c-0.1-0.1-0.1-0.3-0.2-0.3c-1.2-0.2-2.3-0.5-3.5-0.6c-0.6,0-1.3,0.2-1.9,0.4c3-1.5,6.7-0.5,8.6,2.3C55.1,60.5,54.7,64,52.1,66.4z"
		/>
	<path class="st17" d="M87.9,93.2c0.2-0.5,0.4-1.1,0.6-1.6c0.3-0.6,0.7-1.4,1.2-1.8c0.7-0.6,0.7-1.4,1-2.1c0.5-1,0.8-1.9,0.4-3
		c0.2,0.2,0.4,0.3,0.6,0.5c0,0.8,0.3,1.7,0,2.4C90.9,89.7,89.6,91.6,87.9,93.2z"/>
	<path class="st17" d="M83.2,96.5c-0.2-0.6,0.6-1.5,1.4-1.5c0.3,0,0.6,0.1,0.9,0.1C84.8,95.6,84,96.1,83.2,96.5z"/>
	<path class="st17" d="M85.6,95.1c0.2-1.2,1.2-2,2.3-1.9C87.1,93.8,86.3,94.5,85.6,95.1z"/>
	<path class="st8" d="M95.4,61c-0.2,0.1-0.4,0.2-0.6,0.4C95,61.3,95.2,61.1,95.4,61z"/>
	<path class="st17" d="M82.6,96.9c0.2-0.1,0.4-0.2,0.6-0.3C83,96.7,82.8,96.8,82.6,96.9z"/>
	<path class="st8" d="M75.7,80.4c-0.2,0.1-0.4,0.2-0.7,0.3C75.3,80.5,75.5,80.4,75.7,80.4z"/>
	<path class="st3" d="M80,68.1c-0.1,0.1-0.2,0.1-0.2,0.2C79.8,68.2,79.9,68.2,80,68.1z"/>
	<path class="st24" d="M88.5,85.2c-4.8,10.2-18.2,13.2-27,6.3c-2-1.6-3.7-3.5-4.7-5.9c2.7,0.3,5.4,0.8,8,0.8c2.7,0.1,5.3-0.2,8-0.3
		c2.9-0.2,5.7-0.4,8.6-0.5c2.3-0.1,4.5-0.3,6.8-0.4C88.3,85.1,88.4,85.2,88.5,85.2z"/>
	<path class="st4" d="M88.7,37.2c0-1,1-1.9,2.2-1.8c1,0,1.8,0.9,1.8,1.9c0,1.1-0.9,1.9-2,1.9C89.7,39.1,88.7,38.1,88.7,37.2z"/>
	<path class="st4" d="M104.8,38.7c-0.1-0.2-0.2-0.4-0.3-0.6c-0.4-0.9-0.3-1.9,0.6-2.3c0.6-0.3,1.6-0.2,2.2,0.1c1,0.5,1,1.6,0.6,2.5
		c-0.4,0.9-1.3,1-2.2,0.8C105.4,39.1,105.1,38.8,104.8,38.7C104.8,38.7,104.8,38.7,104.8,38.7z"/>
	<path class="st4" d="M99.1,39.2c-0.1,0-0.3,0-0.4,0c-1.8-0.3-2.6-1.6-1.8-2.9c0.5-0.8,1.3-1.1,2.1-0.9c0.5,0.2,1.2,0.8,1.3,1.3
		c0.1,0.7-0.3,1.4-0.6,2.1C99.6,38.9,99.3,39,99.1,39.2z"/>
	<path class="st19" d="M63.2,31.7c5.1,0,10.1,0,15.2,0c-0.3,0.1-0.6,0.4-1,0.4c-4.4,0-8.8,0-13.2,0C63.8,32.1,63.5,31.8,63.2,31.7z"
		/>
	<path class="st0" d="M51.5,30.6c2,0,2.1,0.3,2,2.4c-0.1,1.8,0.2,3.6,0.2,5.4c0,1.1-0.1,2.3-0.2,3.4c0,0.2,0,0.5,0,0.7
		c-1.1,0.6-1.6,1.7-2.1,2.8c-0.3,0.7-0.6,0.7-1,0c0.3-0.6,0.6-1.3,0.9-1.9c0.1-0.4,0.3-0.7,0.3-1.1c0-3.1,0-6.1,0-9.2
		c0-0.3-0.1-0.6-0.2-0.9C51.4,31.7,51.5,31.2,51.5,30.6z"/>
	<path class="st0" d="M32.9,43.4c0-0.3,0-0.6,0-0.9c2,0,4.1,0,6.1,0c1.5,0,1.7,0.2,1.5,1.7c0,0.3-0.1,0.6-0.2,0.9
		c-1.8-0.1-3.7-0.1-5.5-0.2c0-0.1,0-0.3,0-0.4c0.5,0,0.9,0,1.4-0.1c0.2,0,0.4-0.3,0.6-0.4c-0.2-0.2-0.4-0.4-0.6-0.4
		C35,43.4,34,43.4,32.9,43.4z M37.8,43.5c0,0.1,0,0.2,0,0.4c0.4,0,0.7-0.1,1.1-0.1c0-0.1,0-0.2,0-0.3C38.5,43.5,38.2,43.5,37.8,43.5
		z M39.6,44.1c-0.1,0-0.1-0.1-0.2-0.1c0,0-0.1,0.1-0.1,0.1c0,0.1,0.1,0.1,0.1,0.1C39.5,44.2,39.6,44.1,39.6,44.1z"/>
	<path class="st14" d="M42.4,44.8c0.5,0.5,1,1,1.5,1.5C42.8,46.3,42.4,45.7,42.4,44.8z"/>
	<polygon class="st0" points="40.2,45.1 40.3,45.1 40.3,45.2 	"/>
	<path class="st24" d="M41.9,25.4c0.4-1.9,2.1-3.5,4.1-3.7c2-0.3,3.9,0.6,4.9,2.3c0.2,0.3,0.2,0.7,0.3,1c-0.3,0-0.6,0-0.9,0.1
		c0,0.7,0,1.4-0.1,2.1c0,0.9-0.1,1.9-0.1,2.8c-1.9,2.1-3.7,4.2-5.6,6.2c-0.1,0-0.2,0-0.3-0.1c0-2.5,0-4.9,0-7.4c0-1,0-2,0-3
		c0-0.3,0-0.7,0-1c0,0-0.4,0-0.7,0C43,24.9,42.5,25.2,41.9,25.4L41.9,25.4z"/>
	<path class="st8" d="M44.2,28.7c0,2.5,0,4.9,0,7.4c0.1,0,0.2,0,0.3,0.1c1.9-2.1,3.7-4.2,5.6-6.2c0.1,0.1,0.3,0.2,0.3,0.3
		c0,2.7,0,5.5-0.2,8.2c-0.1,1.6-1.4,2.4-3,2.4c-1.7,0-2.7-0.7-2.9-2.4c-0.2-2.1-0.2-4.2-0.2-6.3c0-0.3,0-0.6,0-0.9
		C44.1,30.3,44.1,29.5,44.2,28.7z"/>
	<path class="st19" d="M44.2,28.7c-0.1,0.8-0.1,1.6-0.2,2.4c-0.5,0.3-0.7,0.1-0.7-0.5c-0.2-1.4-0.4-2.9-0.6-4.4
		c-0.3,0.2-0.5,0.3-0.8,0.5c0-0.5,0-0.9,0-1.3c0.5-0.3,1-0.5,1.6-0.8c0.2,0.3,0.5,0.7,0.7,1C44.2,26.7,44.2,27.7,44.2,28.7z"/>
	<path class="st19" d="M42,43.9c-0.1-0.2-0.1-0.3-0.2-0.5c0-5,0-10,0-15c0.1,0,0.2,0,0.4,0c0,0.3,0.1,0.6,0.1,0.8c0,4.5,0,9,0,13.6
		C42.3,43.2,42.1,43.6,42,43.9z"/>
	<path class="st25" d="M51.4,32.3c0.1,0.3,0.2,0.6,0.2,0.9c0,3.1,0,6.1,0,9.2c0,0.4-0.2,0.7-0.3,1.1C51.3,39.7,51.4,36,51.4,32.3z"
		/>
	<path class="st8" d="M50.1,27.1c0-0.7,0-1.4,0.1-2.1C50.2,25.7,50.2,26.4,50.1,27.1z"/>
	<path class="st9" d="M9.8,62.2c3.3-0.8,5.5-2.9,6.5-6.4c1.1,3.4,3.2,5.6,6.7,6.6c-3.5,0.9-5.6,3.1-6.6,6.6c-0.5-1-0.8-1.8-1.1-2.5
		c-1-2-2.6-3.3-4.8-3.9C10.2,62.5,10,62.3,9.8,62.2C9.8,62.2,9.7,62.1,9.8,62.2L9.8,62.2z"/>
	<path class="st0" d="M123.2,86.4C123.2,86.4,123.2,86.3,123.2,86.4c0.1-0.1,0.1-0.1,0.1,0C123.3,86.4,123.3,86.4,123.2,86.4
		C123.3,86.4,123.2,86.4,123.2,86.4z"/>
	<path class="st11" d="M37.8,43.5c0.4,0,0.7,0,1.1,0c0,0.1,0,0.2,0,0.3c-0.4,0-0.7,0.1-1.1,0.1C37.8,43.7,37.8,43.6,37.8,43.5z"/>
	<path class="st11" d="M39.6,44.1c-0.1,0-0.1,0.1-0.2,0.1c0,0-0.1-0.1-0.1-0.1c0,0,0-0.1,0.1-0.1C39.5,44,39.5,44,39.6,44.1z"/>
	<path class="st8" d="M44.2,25.7c-0.2-0.3-0.5-0.7-0.7-1c0.2,0,0.7,0,0.7,0C44.2,25,44.2,25.4,44.2,25.7z"/>
</g>
</svg>
