<?xml version="1.0" encoding="utf-8"?>
<!-- Generator: Adobe Illustrator 24.2.3, SVG Export Plug-In . SVG Version: 6.00 Build 0)  -->
<svg version="1.1" id="Capa_1" xmlns="http://www.w3.org/2000/svg" xmlns:xlink="http://www.w3.org/1999/xlink" x="0px" y="0px"
	 viewBox="0 0 564 145" style="enable-background:new 0 0 564 145;" xml:space="preserve">
<style type="text/css">
	.st0{fill:#232240;}
	.st1{fill:#242442;}
	.st2{fill:#252441;}
	.st3{fill:#51A6DA;}
	.st4{fill:#242543;}
	.st5{fill:#7BC1EA;}
	.st6{fill:#262B4E;}
	.st7{fill:#25263F;}
	.st8{fill:#29273B;}
	.st9{fill:#5FB5E6;}
	.st10{fill:#3B394E;}
	.st11{fill:#49A2CC;}
	.st12{fill:#FCFBFB;}
	.st13{fill:#B4DEF4;}
	.st14{fill:#F8F7F8;}
	.st15{fill:#5CAFE0;}
	.st16{fill:#ECEDF0;}
	.st17{fill:#A8D6EF;}
	.st18{fill:#242147;}
	.st19{fill:#98CEED;}
	.st20{fill:#2C2C3E;}
	.st21{fill:#222236;}
	.st22{fill:#52BEE9;}
	.st23{fill:#161727;}
	.st24{fill:#479FD7;}
	.st25{fill:#262440;}
	.st26{fill:#FAFAFA;}
	.st27{fill:#486794;}
</style>
<g>
	<circle class="st0" cx="72.8" cy="72.4" r="71.9"/>
	<g>
		<path class="st0" d="M137.7,118.6c-1.5,1.4-3.2,0.8-4.9,0.7c-0.5,0-1-0.1-1.5-0.2c-0.8-0.1-1.2-0.6-1.7-1.1
			c-1.3-1.3-2.9-2.5-4.4-3.5c-1.9-1.2-2-1.2-3.5,0.4c-3.9,4-8.1,7.6-12.8,10.5c-5.7,3.6-11.8,6.1-18.2,7.8
			c-4.9,1.3-9.8,2.1-14.9,2.2c-0.3,0-0.7,0.1-1,0.2c-5-0.3-10-0.5-15-1c-2.1-0.2-4.1-0.7-6.1,0.3c-2.6,0.2-5.3,0.6-7.9,0.5
			c-6.3-0.3-12-2.3-17.2-5.9c-4.5-3.1-8-7.1-11.1-11.6c-1-1.4-1.9-2.8-2.9-4.3c-0.2-0.2-0.3-0.5-0.5-0.7c-0.1-0.1-0.1-0.1-0.2-0.2
			c0.1-0.1,0.4-0.1,0.4-0.2c0.1-0.9-1.2-2.3-2.2-2.6C7.9,103.6,5,97,3.1,90.1c-2-7.1-2.8-14.3-2.4-21.7c0.4-8.8,2.5-17.1,6.1-25.1
			c3.6-7.9,8.4-15,14.5-21.2C28.1,15.2,36,10,44.9,6.3C51.8,3.4,59,1.4,66.5,0.8c6.9-0.6,13.7-0.2,20.4,1.1
			c7.1,1.4,13.8,3.9,20.1,7.2c11.3,6,20.5,14.4,27.4,25.2c5.3,8.3,8.7,17.3,10.1,27c0,0.3,0.1,0.5,0.2,0.8c-0.5,0-1,0-1.4-0.1
			c-3-1.1-5.9-2.4-8.9-3.2c-3.9-1-8-1.4-12-2.1c-0.4,0-0.8,0-1.2,0c-1.7-0.1-3.5-0.2-5.2-0.3c0,0,0,0,0,0c0-3.8,0-7.6,0-11.5
			c-0.7-0.2-1.4-0.7-2.1-0.7c-2.4,0-4.9,0.2-7.3,0.2c-6.4,0-12.9,0-19.3,0c-1.5,0-3,0.2-4.5,0.2c-7.6,0-15.3,0.1-22.9,0
			c-2.2,0-4.4-0.3-6.6-0.5c-0.1,0-0.1-0.1-0.2-0.3c0.3-0.3,0.6-0.7,0.9-1c0.2,1.1,0.5,1.2,1.7,0.7c-1-1.3-1-1.4,0.2-2.1
			c0.3,0.2,0.7,0.4,1,0.4c2.2,0,4.3,0,6.5,0c-0.3,0.2-0.7,0.4-1,0.4c-1.8,0-3.6,0-5.4,0c-0.3,0-0.6,0.1-0.9,0.1c0,0.1,0,0.1,0,0.2
			c19.9,0,39.9,0,59.8,0c-0.4-0.3-0.7-0.3-1.1-0.3c-1.7,0-3.4,0-5.2,0c-0.4,0-0.7-0.3-1-0.4c2.2,0,4.3,0,6.5,0c0.3,0,0.7-0.3,1-0.5
			c0-0.2,0-0.3,0-0.5c0-0.1,0-0.3,0-0.4c0-0.2,0-0.3,0-0.5c0-0.2,0-0.3,0-0.5c0.3-2.9-0.4-5.4-3-7.1c-0.3-0.4-0.6-1-1.1-1.3
			c-1.6-1.2-3.4-1.4-5.3-1.5c-0.3-0.1-0.5-0.2-0.8-0.2c-2.9-0.1-5.8-0.2-8.8-0.2c-3.3,0-6.7,0.2-10,0.2c-1.6,0-3.1-0.1-4.7,0
			c-2.9,0-5.8,0.1-8.7,0.1c-0.1,0-0.1,0.1-0.2,0.1c-0.2,0-0.5,0-0.7,0c-0.9-0.1-1.8-0.2-2.7-0.2c-1.5,0-3.1,0.1-4.6,0.2
			c-2,0-3.9,0-5.9,0c-0.6-0.1-1.3-0.3-1.9-0.4c-1.9,0-3.8,0-5.7,0c-0.1-0.4-0.1-0.8-0.2-1.1c0-0.4,0-0.7,0-1.1c0-0.3,0-0.5,0-0.8
			c0-0.4,0-0.7,0-1.1c0.4-0.9,0.7-1.8-0.3-2.5c-0.3-0.3-0.6-0.6-0.8-1c-0.5-0.7-1.2-0.9-2-1c-1.9-0.2-3.8,0.7-5.7,0
			c-0.2-0.1-0.4,0.1-0.9,0.3c0.8,0.2,1.4,0.3,2.2,0.6c-0.9,0.5-1.5,0.9-2,1.3c-0.4-0.5-0.6-0.8-0.9-1.2c-0.1,0.1-0.4,0.3-0.4,0.3
			c0.1,0.4,0.3,0.8,0.5,1.2c0.2,0.6,0.3,1.2,0.4,1.8c-0.2,0.8,0.5,1.7-0.5,2.3c0-0.9,0-1.8,0-2.6c-0.2,0-0.4,0-0.5,0
			c0,1.7,0,3.3,0,5c-1.1-0.2-2-1.2-2.7,0.1c-5.4,1.7-7.7,5.2-7.2,11.2c0.3,0,0.5,0,0.8,0c1.8,0,3.7,0,5.5,0.1
			c-0.8,0.1-1.6,0.3-2.4,0.4c-0.5,0.1-0.9,0.3-1.4,0.5c-0.5,0.2-0.9,0.3-1.4,0.5c0.5,0.2,0.9,0.3,1.4,0.5c0.1,0.4,0.2,0.9,0.3,1.5
			c-0.8,0-1.5,0.2-2.2,0.1c-1.4-0.2-2.1,0.2-1.8,1.2c0.1,0.4,0.6,0.6,0.9,1c0,0.2,0,0.3,0,0.5c-0.2,0.3-0.4,0.6-0.4,0.9
			c-0.1,0.9,0,1.7,0,2.6c0,12.2,0,24.3,0,36.5c0,0.5,0.3,0.9,0.4,1.4c0.1,0.2,0.1,0.5,0.2,0.7c0,4.6-0.1,9.2,0,13.7
			c0,1.5,0.3,3.1,0.9,4.4c1.6,3.3,4.5,4.4,7.9,4.4c8.2,0.1,16.4,0,24.5,0c2.3,0,4.6-0.3,6.8-0.9c7.7-1.8,15-4.8,22.3-7.9
			c4.2-1.8,8.5-3.6,13.2-4c3.2-0.2,6.4,0,9.6,0c0-7.2,0-14.8,0-22.4c-0.8,0-1.5-0.1-2.2-0.1c-5-0.1-9.8,0.8-14.6,1.7
			c-1.9,0-4.2-1.8-4.7-3.5c0.3-0.1,0.7-0.2,1-0.2c1.3-0.2,2.5-0.3,3.8-0.5c1.2-0.2,2.4-0.4,3.5-0.6c1.3-0.2,2.6-0.6,3.9-0.8
			c0.5-0.1,1,0,1.5-0.1c2.1-0.3,4.1-0.7,6.2-0.8c1.2-0.1,2.5,0.3,3.8,0.4c1.2,0.2,2.5,0.2,3.6,0.6c1.7,0.7,3.3,0.9,5.1,0.8
			c0.9,0.3,1.8,0.6,2.7,0.9c2.2,1.4,4.5,2.6,6.7,4.1c1.8,1.3,3.5,2.8,5.2,4.2c1.6,1.8,3.3,3.5,4.9,5.3c0.3,0.4,0.6,0.8,0.9,1.2
			c1,1.4,1.2,2.7,0,4c-0.1,0.1-0.2,0.1-0.3,0.2c0,0,0,0,0,0c-1.1-0.1-2.1-0.2-3.2-0.3c-0.4,0-0.9,0-1.4,0c-0.2,0.3-0.5,0.6-0.6,1
			c-0.6,1.6-1,3.2-1.7,4.7c-0.9,2.2-2,4.3-3,6.6c-5.3-3.7-11-6-17.2-7.3c0,0.8-0.1,1.5-0.1,2.1c0,0.3,0.3,0.7,0.6,0.8
			c0.9,0.4,1.9,0.6,2.7,1c2.9,1.4,5.8,2.8,8.7,4.3c-0.3,0.8-0.1,1.2,0.8,1.5c0.7,0.2,1.3,0.6,1.9,1c0.1,0.1,0.3,0.5,0.2,0.6
			c-0.1,0.2-0.4,0.3-0.6,0.3c-0.4,0.1-0.8,0.1-1.2,0.2c-0.4-0.2-0.7-0.4-1.1-0.5c-2.4-1.2-4.8-2.7-7.3-3.6
			c-3.4-1.2-6.9-1.8-10.3-2.7c-1.5-0.1-3.1-0.3-4.6-0.4c-5.2-0.2-9.8,1.4-14.4,3.6c-6.8,3.3-13.6,6.2-20.9,8.2
			c-8.7,2.3-17.4,3.8-26.4,3.4c-5.2-0.2-10.3-1.2-14.9-3.6c-3-1.5-5.3-3.8-6.2-7.3c0-2.6,0-5.2,0-7.8c0-0.3,0-0.5-0.1-1
			c-0.4,0.6-0.7,1-1,1.5c-0.7-0.1-1.3-0.1-1.3,1c0,0.4-0.4,0.8-0.5,1.3c-0.4,1.6-1.4,3.4-1.1,4.9c0.4,1.6-0.5,3.7,1.2,5
			c0.1,1.8,1.5,2.9,2.4,4.2c1,1.3,2.3,2.3,3.5,3.3c0.5,0.4,1.2,0.8,1.8,1c1.2,0.5,2.4,1,3.7,1.3c1.4,0.3,2.8,0.4,4.1,0.6
			c2.6,0.3,5.1,0.8,7.7,0.9c5.5,0.3,10.9-0.2,16.3-1.2c6.5-1.2,12.9-2.9,18.9-5.9c2.8-1.4,5.6-3,8.3-4.5c6.3,0,12.7,0.1,19,0
			c2.3,0,4.3-1.8,4.7-3.5c-0.7-0.1-1.4-0.3-2-0.4c1-0.6,2.6,0,3.3-1.4c0.4,0.1,0.8,0.1,1.1,0.2c5.1,1.2,10,3.2,14.8,5.5
			c1.4,0.9,2.8,1.7,4.2,2.6c0.8,0.8,1.5,1.6,2.3,2.4c0,0.2,0.1,0.5,0.1,0.7C138,118,137.9,118.3,137.7,118.6z M56.8,19.9
			c1,0,2.5-1.4,2.8-2.6c-1.1-0.9-2.1-1.8-3.1-2.6c-0.8,0.8-1.7,1.7-2.7,2.6c1.1,0.4,2.2,1.1,2.5,2.5C56.4,19.8,56.7,19.8,56.8,19.9z
			 M132.5,90.9c-0.3,0-0.8-0.2-0.9,0c-0.6,0.6-0.6,1.9-2,1.7c0,0-0.1,0.2-0.2,0.3c-0.9,0.9-0.8,1.8,0,2.6c0.7,0.1,1.3,0.4,1.9,0.6
			c0.3,0.1,0.6,0.1,0.9,0.1c0.1,0.1,0.2,0.3,0.4,0.6c0.5-1.7,1.7-2.4,3.2-3C134.1,93.4,133.4,92.1,132.5,90.9z M129.1,86.6
			c-1.5-0.7-2.8-1.5-3.3-3.2c-0.3-0.1-0.7-0.4-0.8-0.3c-0.7,0.4-1.5,0.9-1,2c-0.4,0.1-0.7,0-0.9,0.1c-0.5,0.4-1.3,0.8-1.4,1.3
			c-0.1,0.6,0.5,1,1.3,1.2c0.5,0.1,1.2,0.7,1.4,1.2c0.5,1.2,1.6,1.6,2.6,0.6c0.5-0.5,1-1.2,1.6-1.6
			C129.2,87.7,129.2,87.2,129.1,86.6z M94.2,17.1c-0.2-0.1-0.5-0.2-0.7-0.3c-0.6-0.9-1.2-1.8-1.9-2.6c-0.1-0.2-0.8-0.2-1,0
			c-1.1,0.8-2.2,1.7-3.2,2.6c-0.6,0.6-0.2,1.5,0.5,2c1.1,0.6,2.1,1.2,3.1,1.9c0.6,0.4,1.5,0.3,1.5-0.3c-0.1-1.3,0.6-1.5,1.6-1.4
			c0.7,0.1,1.2-0.3,1.2-1.1C95.3,17,94.7,17,94.2,17.1z M19,79.6c-0.1-0.1-0.2-0.1-0.3-0.2c-0.4-0.9-1-0.2-1.4-0.1
			c-0.3,0.1-0.8,0.6-0.8,0.9c0.1,1.2-0.1,2.1-1.4,2.5c-0.3,0.1-0.6,0.5-0.8,0.8c0.2,0.1,0.3,0.3,0.5,0.4c0.8,0.5,1.7,0.7,2.4,1.4
			c0.7,0.7,1.2,1.8,1.8,2.7c0.6-2.2,2-3.7,4.3-4.2c0.1,0,0.1-0.2,0.1-0.3c-0.5-0.5-0.9-1.5-1.4-1.5c-0.6,0-0.7-0.3-1-0.6
			C20.4,80.8,19.7,80.2,19,79.6z M10.3,61.5c-0.1,0.1-0.3,0.2-0.4,0.4c1,0.7,2,1.6,3.1,2.1c0.8,0.4,1.5,0.5,1.5,1.6
			c0,0.2,0.1,0.6,0.3,0.7c1.3,0.5,1.3,1.7,1.8,2.7c0.1,0.2,0.3,0.4,0.4,0.6c0.2-0.2,0.7-0.4,0.7-0.7c-0.1-1.7,1-2.9,2-4.1
			c0.3-0.4,0.8-0.9,1.3-0.9c1.6-0.1,2-1.4,2.8-2.5c-0.4-0.3-0.7-0.8-1-0.8c-1.2-0.3-2-0.9-2.9-1.8c-0.9-0.9-1.6-1.5-1.5-2.9
			c0-0.9-0.9-1.3-1.7-1c-1.6,0.6-1.6,2.1-1.7,3.2c-0.6,0.4-1.1,0.7-1.6,1c-0.9,0.6-1.8,1.2-2.6,1.8C10.4,61,10.4,61.3,10.3,61.5
			L10.3,61.5L10.3,61.5z M67.4,20.8c0.2,0.1,0.5,0.1,0.7,0.2c0.1,1.1,1.3,1.8,2.6,1.4c0.1,0,0.1,0,0.2,0.1c0,0.8-0.3,1.8,0.8,2.3
			c0.1,0,0.1,0.3,0.1,0.4c0.2,1.4,0.9,2.1,2,2.2c0.8,0.1,1.8-0.8,1.9-2c0.2-1.3,1-2,1.9-2.6c0.7-0.5,1.5-0.7,2.3-1.1
			c0.5-0.3,1-0.6,0.3-1.2c0-0.1,0-0.1,0-0.2c-0.4-0.4-0.7-0.8-1.1-1.1c-0.5-0.3-1.3-0.2-1.6-0.6c-1.1-1.4-1.9-3-3-4.4
			c-0.4-0.5-1-0.9-1.6-1c-0.4,0-0.9,0.7-1.1,1.1c-0.2,0.4-0.1,1-0.1,1.5c0,0.7-0.3,1.1-0.9,1.5c-1.1,0.7-2.2,1.4-3.3,2.2
			C67.4,19.9,67.5,20.4,67.4,20.8z M15,44.7c0.4,0.2,1,0.4,1.5,0.8c0.4,0.4,0.7,0.9,0.9,1.2c0.9-0.8,1.8-1.5,2.5-2.2
			c-0.8-0.8-1.7-1.6-2.3-2.3C16.7,43.1,15.8,43.9,15,44.7z M124.8,42.7c0.7,0.7,1.6,1.4,2.4,2.1c0.8-0.7,1.7-1.4,2.4-2
			c-0.8-0.7-1.6-1.5-2.4-2.3C126.3,41.3,125.5,42.1,124.8,42.7z M125.1,51.9c0.7,0.7,1.5,1.4,2.2,2.1c0.8-0.7,1.6-1.4,2.3-2
			c-0.7-0.7-1.5-1.5-2.2-2.1C126.6,50.6,125.7,51.3,125.1,51.9z M102.8,21.5c0.5,0.4,0.9,0.8,1.4,1.2c0.4-0.4,0.8-0.9,1.2-1.3
			c-0.5-0.4-0.9-0.8-1.3-1.2C103.6,20.7,103.2,21.1,102.8,21.5z M20.8,71.6c0.4,0.4,0.7,0.7,0.9,0.8c0.4-0.2,0.7-0.5,1.2-0.8
			c-0.4-0.4-0.7-0.7-1-1C21.5,70.9,21.2,71.2,20.8,71.6z M31.5,43.8c-0.8-0.5-1.3-0.8-2-1.2c0.1,0.5,0.1,1.2,0.4,1.3
			C30.2,44,30.8,43.8,31.5,43.8z M91.4,13.4c0,0-0.1-0.1-0.1-0.1c0,0-0.1,0-0.1,0c0,0,0,0.1,0,0.2C91.2,13.5,91.3,13.5,91.4,13.4z"
			/>
		<path class="st1" d="M146.6,70.4c1,1.2,1.4,2.5,0.5,4c-1,0.4-1.9,0.7-2.9,1.1c-0.5,0-1.1-0.1-1.7-0.1c0,0.3,0,0.7,0.1,0.8
			c1.6,0.3,2.3,2.3,4,2.1c0,0,0,0,0,0c0.2,0.1,0.3,0.3,0.5,0.4c0,0,0,0,0,0c0,0.3,0,0.6,0,1c-0.8,0-1.6,0-2.3,0
			c-1.3-0.9-2.7-1.7-4-2.6c-0.8-0.6-1.5-1.2-2.3-1.7c-8.8-5.6-18.4-8.4-28.9-8.2c-6.7,0.2-13.2,1.6-19.7,3.4
			c-8.4,2.3-16.8,5-25.5,6.1c-6.1,0.7-12.1,0.8-18.1-0.6c1.5,0,2.9,0.1,4.4,0.1c0.4,0,0.9,0,1.3-0.1c0.1,0,0.2-0.8,0.1-0.8
			c-0.3-0.2-0.8-0.3-1.2-0.3c-2.1,0.2-4.2,0.4-6.3,0.7c-1.9-0.6-3.7-1.2-5.6-1.8c12.2,1.3,24.1,0,35.7-3.7c2.1-0.6,4.1-1.2,6.2-1.8
			c0.3,0,0.6,0,0.8-0.1c5.1-1.5,10.1-2.9,15.2-4.4c8.2-2.4,16.4-4.1,25-3.3c3.1,0.7,6.3,1.2,9.3,2.2c3.3,1.1,6.4,2.6,9.5,4
			c0.3,0.2,0.6,0.3,0.9,0.5c0.5,0.3,0.9,0.5,1.4,0.8c0.3,0.2,0.6,0.4,0.9,0.5C144.8,69.1,145.7,69.7,146.6,70.4z"/>
		<path class="st2" d="M298.3,65.1c0.5-0.2,1.1-0.3,1.6-0.5c1.3,3.4,3.4,5.9,7.4,6c0,6.8-0.1,13.3,0,19.9c0.1,3.1,0.1,6.3,1,9.3
			c2.7,9.5,12.1,14.5,23.1,12.8c6.1-1,7.7-2.7,7.9-8.7c3.9,0.9,7,2.7,8.5,6.7c1.7,4.7,0,9.5-4.3,12c-9,5.2-25.5,2.3-32-5.8
			c-1.3-1.6-2.3-3.4-3.5-5.1c-0.2,0.1-0.5,0-0.6,0.1c-5.8,11.4-16.1,13.7-27.5,13c-4.2-0.3-8.3-2.3-12.4-3.5
			c-0.6-0.2-1.5-0.2-1.9,0.1c-5.8,4.5-12.3,4.1-18.8,2.3c-2.3-0.6-4-0.4-6.3,0.1c-13.9,3.2-23.2,0.2-29.7-11.9
			c-2.1-3.9-3-8.5-4.5-12.8c0.7,0.3,1.8,0.5,2,1c1,2.8,1.7,5.7,2.7,8.6c0.3,0.7,1.2,1.2,1.9,1.8c0.3-0.7,0.4-1.4,0.8-2.1
			c0.3-0.5,0.7-0.8,1.1-1.3c0.2,0.2,0.4,0.3,0.6,0.5c0.3,0.2,0.7,0.5,1,0.7l0,0c-0.2,2.2,1.3,3.4,3,3.9c2.5,0.8,5,1.4,7.6,1.6
			c2.9,0.2,5.9,0.4,8.5-2c1.1-1,1.6-1.4,1.2-2.7l0.1-0.1c1-0.2,2.1-0.4,3.1-0.6c1.5,4.3,1.5,4.3,6.6,4.3c0.8,0,1.7,0,2.5,0
			c6.4,0.1,7.3-1.8,8-6.8c0.2-5.2,0.5-10.4,0.6-15.5c0.1-5.6,0.1-11.2,0-16.7c0-0.6-0.8-1.2-1.2-1.8c-0.1-0.5-0.1-0.9-0.2-1.4
			c-0.1-0.7-0.2-1.5-0.3-2.2l-0.1,0.1l-0.1-0.1c2.6,1.1,5.1,2.2,7.7,3.4c-0.3,0.1-0.7,0.2-0.7,0.4c-0.6,3.2-0.2,6.4,1.3,9.1
			c1.4,2.7,3.6,5,5.5,7.4c0.2,0.2,0.9,0,1.3,0.1c3.6,1.4,7.9,1.6,10.1,5.7c1,1.7,0.5,2.9-1,3.4c-2.2,0.7-4.5,1-6.8,1.4
			c-1.7-0.6-3.3-1.3-5-1.9c-0.8-0.3-1.7-0.5-2.5-0.4c-2,0.4-5.3,4.2-5.7,6.4c-0.5,3.2,1.6,4.7,3.9,5.9c5.5,2.9,11.5,3.9,17.7,3
			c8.9-1.2,15.3-6.9,16.5-14.6c1.2-7.4-2.2-12.8-11-17.3c-2.3-1.2-4.6-2.2-6.9-3.4c-1.8-1-2.8-2.8-1.9-4.5c0.7-1.3,2.7-2.8,4-2.8
			c2.7,0.1,5.5,1.1,8.2,2c3.1,1,6-0.1,7.1-3.2C298,67.4,298.1,66.2,298.3,65.1z"/>
		<path class="st2" d="M503.4,65c0.7,0.1,1.5,0.3,2.2,0.4c1.5,0.6,3,1.2,4.5,1.7c-0.4,1.9-1.1,3.8-1.1,5.7
			c-0.1,11.3-0.1,22.5,0,33.8c0,0.6,0.7,1.1,1.1,1.7c0.5,0.2,0.9,0.4,1.4,0.6c0.2,0,0.3,0.1,0.2,0.3c-0.7,1.8,0.5,2.6,1.8,3.1
			c2.5,0.9,2.5,2.6,2,4.7c-0.2,0.7,0.1,1.5,0.2,2.3c0.3,0,0.6,0,0.9-0.1c0.1-0.4,0.3-0.9,0.2-1.3c-0.5-3,0.6-4.4,3.8-4
			c1.8,0.2,5-2.9,5.3-4.9c0.5-2.8,0.7-5.6,1.3-8.3c0.2-1,1.1-1.8,1.7-2.7c0.9,1,2.7,2,2.7,2.9c-0.1,2,0.6,3.1,2.2,3.7
			c2.3,0.8,2.5,2.3,2.1,4.5c-0.2,1.3-1.8,3.1,0.4,4.3c0,0.4,0,0.8,0,1.1c0.1,0.6,0.1,1.1,0.2,1.7c1,2.6-0.8,4.1-2.4,5.5
			c-6.1,5.4-16.8,4.1-21.5-2.6c-0.8-1.1-1.4-2.2-2.1-3.3c-10.6,10.6-28.1,12.5-40.4,4.5c-7.3,5.7-15.3,5.7-23.6,2.6
			c-0.5-0.2-1.1-0.2-1.5-0.1c-18,6.3-28.7-2-33.8-14.9c-1-2.4-1.1-5.1-1.7-7.7c0.3,0.3,0.9,0.5,1,0.8c0.9,2.6,1.8,5.2,2.4,7
			c2.1,0.1,3.8,0.2,5.5,0.3c2.1,1,4.2,2.2,6.4,2.9c7.8,2.5,12.2,0.9,16.9-5.8c0.4-0.5,0.7-1.1,1.3-1.9c0.2,1.2,0.3,2,0.6,2.8
			c1,3.5,5,6.1,8.9,5.7c4.3-0.4,6.4-2.5,6.4-7.1c0-12.1-0.3-24.3-0.4-36.4c3.4,0.9,6.9,1.8,10.3,2.7c-0.5,3.6,0.2,7.1,1.9,10.3
			c0.2,1.2,0.2,2.5,0.6,3.6c0.2,0.7,0.6,1.8,1.2,2c2.3,1.1,4.8,1.8,7.1,2.9c2.5,1.2,4.9,2.6,7.2,4c0.4,0.2,0.6,1.5,0.4,1.8
			c-1.2,1.2-2.4,2.6-3.9,3.2c-1.5,0.5-3.4,0.1-5.1,0.1c-1-0.4-2-0.7-2.9-1.1c-4.6-1.9-6.2-1.5-9.2,2.5c-1.9,2.6-1.5,5.3,1,7.2
			c7.2,5.6,20.9,6.2,28.6,1.4c10.3-6.5,10.5-20,0.3-26.6c-2.2-1.4-4.7-2.5-7-3.8c-1.4-0.8-2.7-1.6-4.1-2.4c-0.1-1.5-0.2-2.9-0.2-4.3
			c1.5-0.5,2.8-1.3,4.1-1.3c2.4,0.1,4.7,0.6,7.1,0.9C500.5,72.5,502.7,70.5,503.4,65z"/>
		<path class="st3" d="M256.2,70.6c0.1,0.5,0.1,0.9,0.2,1.4c0,11.3,0.1,22.7,0.1,34c-1.2,4.4-3.1,6.2-6.9,5.9
			c-2-0.2-4.4-0.9-5.9-2.2c-1.5-1.3-2.1-3.7-3.1-5.5c-1.1,1.5-2.4,3.2-3.8,4.9c0,0-0.1,0.1-0.1,0.1c-2.8,2.4-6.1,3.8-9.6,3
			c-3.6-0.9-7.1-2.5-10.6-3.8c0,0,0,0,0,0c-0.3-0.2-0.7-0.5-1-0.7c-0.2-0.2-0.4-0.3-0.6-0.5c-1.6-2.1-3.3-4.2-4.6-6.5
			c-2.5-4.6-2.4-9.6-1.6-14.5c0,0,0,0,0,0c0.7-1.7,1.5-3.5,2.2-5.2c0.4-0.7,0.8-1.4,1.2-2.2c1.9-1.7,3.8-3.4,5.7-5.2
			c5.9-4,12.5-5,19.5-4.6c-1.5-0.7-3.1-1.2-4.6-1.2c-5-0.1-10,0.1-15.1,0.1c-1.2-0.6-2.4-1.2-3.6-1.8c-1.3-3.5-0.8-5.7,2.1-7.5
			c1.4-0.9,3.2-1.1,4.8-1.6c6.3,0.4,12.7,0.3,18.9,1.2c6.6,1,12.5,3.8,15.8,10.2c0,0,0.1,0.1,0.1,0.1s0.1-0.1,0.1-0.1
			C256.1,69.1,256.1,69.8,256.2,70.6z M241.4,88.4c0.1-5.4-2.8-8.6-7.8-8.7c-6.1-0.2-10.3,3.9-10.4,10.3c-0.2,5.2,3,9,7.7,9.1
			C236.7,99.2,241.2,94.6,241.4,88.4z"/>
		<path class="st3" d="M515.4,39.8c1.1,0,2.2-0.1,3.4,0c3.9,0.1,5.7,1.7,6.4,5.9c0,10.1,0,20.1,0,30.2c0,0.1,0.3,0.3,0.4,0.4
			c0.4-0.4,0.8-0.8,1.2-1.1c1.6-1.7,3.3-3.3,4.8-5.1c1.8-2.2,3.5-4.5,5.3-6.8c1.1-0.9,2.4-1.6,3.4-2.6c2.1-2.4,4.7-3.4,7.8-3.1
			c3.5,0.4,5.5,2.6,5.8,6.7c-0.1,0.2-0.1,0.5-0.2,0.7c-5,5.4-9.9,10.9-15,16.2c-1.1,1.2-1.3,2.1-0.3,3.4c2.1,2.7,4.1,5.4,6.1,8.1
			c3.1,4.5,6.2,8.9,9.3,13.4c0.3,3.9-1.4,5.9-5.2,6.3c-4.1,0.4-7.4-0.8-9.8-4.3c-3-4.5-6.2-8.8-9.3-13.2c-3.3,2.1-5.1,4.7-4.4,8.5
			c0.2,0.8,0,1.7,0,2.6c-0.1,3.8-1.6,5.5-5.3,6.1c-3.1,0.5-5.8-0.3-8-2.7c0-0.2,0-0.3-0.2-0.3c-0.3-0.6-0.5-1.2-0.8-1.8
			c0-13.4-0.1-26.7-0.1-40.1c0-6.1-0.1-12.2,0.2-18.2c0.1-2.6,1.1-5.2,1.7-7.8c0,0,0,0,0,0C513.4,40.6,514.4,40.2,515.4,39.8z"/>
		<path class="st3" d="M458.6,68.4c0.2,12.1,0.4,24.3,0.4,36.4c0,4.6-2.1,6.7-6.4,7.1c-3.9,0.4-7.8-2.1-8.9-5.7
			c-0.2-0.8-0.3-1.6-0.6-2.8c-0.6,0.8-0.9,1.4-1.3,1.9c-4.6,6.7-9,8.3-16.9,5.8c-2.2-0.7-4.3-1.9-6.4-2.9c-5.7-4.7-8.3-10.7-8.4-18
			c0.9-6.9,3.9-12.6,9.6-16.7c6-4,12.7-5.1,19.8-4.7c-1.4-0.6-2.9-1.1-4.4-1.1c-4.9-0.1-9.8-0.1-14.8-0.1c-1.1-0.7-2.2-1.5-3.4-2.2
			c-1.2-2.9-0.1-5,2.3-6.7c0.4,0.5,1,1.5,1.2,1.4c2.5-0.7,5.1,1.7,7.6-0.4c0.3-0.3,1.1-0.2,1.7-0.1c2.3,0.5,4.5,1.4,6.8,1.6
			c5.5,0.6,10.9,0.8,16.4,1.2C454.9,64.5,456.7,66.5,458.6,68.4z M443.6,88c-0.1-5.4-3.2-8.4-8.5-8.4c-5.9,0-10.1,4.5-10,10.8
			c0,5,3.4,8.6,7.9,8.6C439.1,99,443.7,94.2,443.6,88z M423.9,65.6c-1.3-1.4-2.1-2.3-2.9-3.3c-0.2,0.2-0.5,0.4-0.7,0.7
			C420.5,64.5,420.4,66.3,423.9,65.6z"/>
		<path class="st3" d="M164.2,42.1c2.2-0.7,4.4-1.9,6.7-2c10.2-0.1,20.3,0.1,30.5,0.2c6.3,0,6.7,0.3,9,6.1c-0.6,2.8-1.3,5.5-4.1,7
			c-0.8,0.2-1.5,0.4-2.3,0.6c-0.2,0-0.4,0.1-0.6,0.1c-0.2,0-0.4,0-0.5-0.1c0,0,0,0,0,0c-8.5,0-17,0-25.4,0c0,5.5,0,10.7,0,16
			c4.6,0,9,0,13.4,0c2.7,0.1,5.5,0.3,8.2,0.4c3.2,0.2,5.3,1.8,6.3,4.9c0.2,2.6,0,5.2-2.4,6.6c-1.7,1-3.9,1.4-5.8,1.5
			c-6.5,0.2-13,0.1-19.8,0.1c0,1,0,1.7,0,2.5c0,6.7,0,13.5-0.1,20.2c0,3.4-2.1,5.3-5.5,5.7c-4.2,0.5-7.2-1.1-8.8-5
			c0-19.5-0.1-38.9,0-58.4C162.9,46.2,163.7,44.2,164.2,42.1z"/>
		<path class="st3" d="M377.8,106.7c0-12.3,0-24.7,0-37c0-0.9-0.1-1.9-0.2-2.8c0-4.3,0-8.6,0-13.1c-1.5,0-2.9,0-4.3,0
			c-4.2-0.2-8.5-0.4-12.7-0.6c-1.7-1.9-3.8-3.3-3.6-6.4c0.3-3.4,2.1-6.1,5.6-6.4c3.7-0.3,7.4-0.1,11.1-0.1c10.7,0,21.5,0,32.2,0
			c5.5,0,6.7,1,8,6.4c-0.3,3.5-2,5.9-5.4,6.9c-5.3,0-10.5,0-15.9,0c0,1.4,0,2.4,0,3.3c0,15.8,0,31.5,0,47.3c0,6-3.3,8.8-9.1,7.3
			c-1.6-0.4-3-1.8-4.5-2.7C378.5,108.1,378.1,107.4,377.8,106.7z"/>
		<path class="st3" d="M339.4,103.9c-0.3,6-1.9,7.7-7.9,8.7c-11,1.7-20.4-3.3-23.1-12.8c-0.8-2.9-0.9-6.2-1-9.3
			c-0.1-6.5,0-13.1,0-19.9c-4-0.1-6-2.6-7.4-6c1-3.7,2.4-7,7.5-6.5c0-2.2-0.1-4.1,0-6c0.3-4.3,1.7-6.1,5.3-7c3.9-1,6.7,0.2,8.9,3.6
			c0.2,0.2,0.3,0.5,0.5,0.7c0,2.8,0,5.6,0,8.4c4.3,0.7,8.5-1,12.1,1.8c0.4,1.4,0.9,2.7,1.3,4.1c-0.4,1.5-0.8,3.1-1.2,4.6
			c-2,0.7-4,1.7-6.1,2.2c-1.7,0.4-3.5,0.1-5.3,0.1c-0.1,0.2-0.3,0.3-0.4,0.5c0.1,7.4,0.1,14.9,0.2,22.3c0.1,0.4,0.2,0.8,0.2,1.2
			c0.8,1.3,1.5,2.6,2.3,3.8c2.7,2.2,5.7,1.1,8.7,1C336.8,99.6,338.1,101.7,339.4,103.9z"/>
		<path class="st3" d="M298.3,65.1c-0.2,1.1-0.3,2.3-0.7,3.3c-1.1,3.1-4,4.2-7.1,3.2c-2.7-0.9-5.4-1.9-8.2-2c-1.3-0.1-3.3,1.5-4,2.8
			c-0.9,1.7,0.1,3.5,1.9,4.5c2.2,1.2,4.6,2.3,6.9,3.4c8.8,4.5,12.2,9.9,11,17.3c-1.3,7.7-7.6,13.4-16.5,14.6
			c-6.2,0.8-12.1-0.1-17.7-3c-2.3-1.2-4.4-2.7-3.9-5.9c0.4-2.1,3.6-6,5.7-6.4c0.8-0.1,1.7,0.1,2.5,0.4c1.7,0.6,3.4,1.2,5,1.9
			c2,0.2,4.1,0.7,6.1,0.6c2.3-0.1,4.1-1.5,4.7-3.9c0.6-2.5-1.3-3.6-3.1-4.5c-3.1-1.6-6.4-2.9-9.4-4.7c-5.5-3.3-8.6-8-7.7-14.8
			c1.2-6.4,4.5-11.1,10.8-13.1c6.7-2.2,13.5-2.2,19.8,1.2C296.1,60.9,297,63.3,298.3,65.1z"/>
		<path class="st3" d="M503.4,65c-0.7,5.5-2.9,7.5-7.6,6.7c-2.9-0.8-5.8-1.8-8.8-2.1c-1.2-0.1-3,1.3-3.6,2.5
			c-0.8,1.5-0.4,3.3,1.5,4.2c1.4,0.8,2.7,1.7,4.1,2.4c2.3,1.3,4.8,2.3,7,3.8c10.2,6.6,10,20.1-0.3,26.6c-7.7,4.9-21.4,4.2-28.6-1.4
			c-2.5-2-2.9-4.7-1-7.2c3-4,4.6-4.4,9.2-2.5c1,0.4,1.9,0.7,2.9,1.1c2.4,0.2,4.9,0.8,7.2,0.3c1.4-0.3,3-2.1,3.6-3.5
			c0.8-1.9-0.7-3.3-2.4-4.3c-1.2-0.6-2.3-1.2-3.5-1.8c-4.6-2.1-9.1-4.3-12.2-8.5c-1.7-3.2-2.4-6.7-1.9-10.3
			c1.6-5.8,4.8-10.2,10.7-12.3c6.8-2.4,13.6-2.4,20,1.3C501.3,61.1,502.2,63.3,503.4,65z"/>
		<path class="st2" d="M377.8,106.7c0.4,0.7,0.7,1.4,1.1,2.2c0.1,3.4,0.7,3.9,4,4c1.9,0.1,3.9,0.3,6.2,0.5c4.2-1.9,4.7-5.9,4.7-10.5
			c-0.1-13.7,0-27.4,0-41c0-7.2,0-7.1,7.3-7.3c2.5,0,5-0.6,7.5-0.9c3.4-1,5.1-3.5,5.4-6.9c5.6,0.1,9.3,4.1,9.5,10.3
			c-1.3,0.6-2.7,1.2-4,1.8c-2.3,1.7-3.4,3.8-2.3,6.7c-2.3,0.2-4.6,0.5-7,0.6c-1.2,0.1-2.4,0.1-4,0.2c0,5,0,9.7,0,14.5
			c-0.3-1-0.9-1.9-1-2.9c-0.2-1.9,0-3.9,0-5.8c-0.4,0-0.8,0-1.2,0c0,2.9,0,5.8,0,8.7c-0.4,0.8-1.1,1.7-1.1,2.5
			c-0.1,5.3-0.1,10.5-0.1,15.8l0,0c-0.4,0.6-1.1,1.3-1.1,1.9c-0.1,4.9-0.1,9.8,0,14.7c0,0.4,0.3,0.8,0.5,1.3c0.2,0,0.4-0.1,0.6-0.1
			c0-3.3,0-6.6,0-9.8c0.4,0.7,1,1.5,1.1,2.2c0.2,2-0.1,4,0.1,5.9c0.1,0.7,0.8,1.4,1.2,2.1c-1.5,1.9-2.6,4.3-4.5,5.5
			c-7.4,4.5-16.6,1.7-20.7-5.9C378.2,113.8,377.1,110.4,377.8,106.7z"/>
		<path class="st4" d="M162.9,106.7c1.7,3.9,4.6,5.5,8.8,5c3.3-0.4,5.4-2.3,5.5-5.7c0.1-6.7,0-13.5,0.1-20.2c0-0.7,0-1.5,0-2.5
			c6.7,0,13.3,0.1,19.8-0.1c2-0.1,4.1-0.5,5.8-1.5c2.4-1.4,2.6-4,2.4-6.6c2.3,1.2,4.6,2.3,6.9,3.5c-0.4,0.7-0.8,1.4-1.2,2.2
			c-0.8,0.2-1.5,0.4-2.2,0.6c0,1.7,0,3.2,0,4.7l0,0c-1.9,0.8-2.8,1.8-1.9,4.1c0.5,1.2,0.3,2.9,0.2,4.3c-0.1,1.2-0.5,2.3-0.8,3.5
			c-0.6-0.6-1.2-1.6-1.9-1.6c-4.4-0.1-8.9-0.1-13.9-0.1c0,4.8,0.1,9.3,0,13.8c-0.1,2.6,0,5.4-0.8,7.8c-2.1,6-10.3,8.7-17.1,6
			c-5.6-2.3-8.4-6.8-9.8-12.4c-0.2-0.9-0.4-1.9-0.6-2.8C162.5,108.1,162.7,107.4,162.9,106.7z"/>
		<path class="st3" d="M143,67.9c-0.5-0.3-0.9-0.5-1.4-0.8c0.3-0.3,0.6-0.7,1.2-1.2c-0.5,0-0.9,0-1.2,0.1c-0.3,0.1-0.6,0.4-0.9,0.6
			c-3.2-1.3-6.3-2.9-9.5-4c-3-1-6.2-1.5-9.3-2.2c-0.2-0.4-0.2-1-0.5-1.1c-0.4-0.2-1.1-0.2-1.4,0.1c-1.3,0.9-2.5,0.3-3.8,0.4
			c0-0.1,0-0.2-0.1-0.4c1.2-0.4,2.4-0.7,3.8-1.2c-1.3-0.6-2.7,0.3-3.8-1c0.5-0.1,0.9-0.3,1.2-0.2c0.9,0.1,1.9,0.4,2.8,0.4
			c0.8,0,1.7-0.2,2.5-0.3c0,0-0.1-0.2-0.3-0.3c4,0.7,8,1.1,12,2.1c3.1,0.7,6,2.1,8.9,3.2c0.4,0.2,1,0.1,1.4,0.1
			c1.6,0,1.7,0.1,0.9,1.4c-0.7,1.1,0.1,1.3,1,1.8c-0.5,0.3-0.8,0.5-1.3,0.8c0.4,0.1,0.7,0.3,1.2,0.5c-0.5,0.7-0.9,1.3-1.2,1.8
			c0.5,0.7,0.9,1.3,1.3,1.9c-0.9-0.7-1.8-1.3-2.7-2c0,0,0.1-0.1,0.1-0.1c0.4-0.3,0.8-0.6,1.3-0.9C143.9,66.6,143.5,66.7,143,67.9
			L143,67.9z M144.5,65.9c0-0.1,0-0.3,0.1-0.4c-0.2,0-0.4,0-0.6,0c0,0-0.1,0.2-0.1,0.3C144.1,65.8,144.3,65.8,144.5,65.9z M145.1,63
			c0,0.1-0.1,0.1-0.1,0.2c0.1,0,0.1,0.1,0.2,0.1c0,0,0.1-0.1,0.1-0.2C145.2,63,145.2,63,145.1,63z"/>
		<path class="st4" d="M553.7,106c-3.1-4.5-6.2-8.9-9.3-13.4c-0.1-0.9,0.1-2-0.4-2.7c-1.1-1.7-2.5-3.1-3.7-4.7
			c-1.1-1.3-0.5-3.6,0.9-4.5c1-0.6,2.4-1.3,2.7-2.2c1.2-3.4,4.1-5.3,6.4-7.4c2.1-1.9,3.3-3.6,3.1-6.3c0.1-0.2,0.1-0.5,0.2-0.7
			c3.9-0.5,6.9,1.1,8.8,4.5c2.3,4,1.9,7-1.1,10.4c-3.1,3.5-6.3,6.8-9.6,10.1c-1.2,1.2-1.2,2.1-0.4,3.4c3.4,5.2,6.8,10.5,10.1,15.8
			c1.8,3,3.3,6.2,1.8,9.9c-2,5-7.6,7.6-14.1,6.4c-3.3-0.6-6.3-1.9-8.3-4.9c0.4-0.8,0.8-1.6,1.2-2.4c0.1,0.6,0.2,1.3,0.3,1.9
			c0.2,0,0.4,0,0.6,0c0.1-0.7,0.2-1.3,0.3-2c0-0.6,0-1.1,0-1.7c1.7-0.7,3.3-0.7,4.5,1c0.3,0.4,1,0.7,1.5,0.7
			c1.4-0.1,2.7-0.3,4.1-0.5c-0.7-0.9-1.4-1.9-2.1-2.8c1.9-1.7,3.8-3.4,5.7-5.1c-1.6-1-4-1.5-0.8-3.1c0.5-0.2,0.6-1.4,0.7-2.2
			c0-0.3-0.7-0.6-1.1-1c-0.4,0.6-0.7,1.1-1.1,1.7C554.3,104.9,554,105.4,553.7,106z"/>
		<path class="st4" d="M206.3,53.3c2.8-1.5,3.5-4.2,4.1-7c6.8,1.1,10,4.2,10.6,10.6c-1.6,0.5-3.4,0.7-4.8,1.6c-3,1.8-3.4,4-2.1,7.5
			c-7.7,0-15.4,0-23.1,0c-0.2,1.6-0.3,2.5-0.4,3.4c-0.8-0.3-1.6-0.8-2.3-0.7c-2.3,0.1-4.6,0.4-6.9,0.7c-1.8,0.2-2.6-0.5-2.5-2.4
			c0.1-3.3,0.1-6.7,0-10c-0.1-1.9,0.6-2.5,2.5-2.5c6.2,0.1,12.4,0.1,18.6,0c1,0,2-0.4,2.9-0.6c0,0,0,0,0,0c0.2,0,0.4,0,0.5,0.1
			c0.2,0,0.4-0.1,0.6-0.1C205.1,54.8,205.9,55,206.3,53.3z"/>
		<path class="st1" d="M334.2,68.4c0.4-1.5,0.8-3.1,1.2-4.6c5,0.1,8.8,4,9.4,9.6c0.5,4.3-2.6,8.3-7.3,9.2c-1.7,0.3-1.9,1.2-1.9,2.5
			c0,3.9,0,7.8,0.2,11.6c0.1,1.7-0.1,2.7-2,2.8c-2.9,0-6,1.2-8.7-1c-0.6-1.7-1.6-3.3-1.6-5c-0.1-5.1,0.3-10.2,0.4-15.3
			c0.1-1.9-0.6-4.3,0.4-5.5c0.8-1,3.5-0.4,5.2-1C331.3,71,334.2,71.7,334.2,68.4z"/>
		<path class="st3" d="M131.8,106.4c-2.9-1.4-5.8-2.9-8.7-4.3c-0.9-0.4-1.8-0.6-2.7-1c-0.3-0.1-0.6-0.5-0.6-0.8
			c-0.1-0.6,0-1.2,0.1-2.1c6.2,1.3,11.9,3.6,17.2,7.3c1-2.3,2.1-4.4,3-6.6c0.6-1.5,1.1-3.2,1.7-4.7c0.1-0.4,0.4-0.7,0.6-1
			c0.5,0.3,1,0.6,1.5,0.9c-1.8,0.1-1.9,0.2-2,2c0,0.4-0.3,0.7-0.4,1c-0.2,0.5-0.4,1-0.5,1.6c-0.2,0.5-0.3,0.9-0.5,1.4
			c-0.5,1-0.9,2-1.4,3c-0.2,0.4-0.5,0.8-0.8,1.4c0.4,0.4,0.9,0.8,1.2,1.4c0.2,0.3,0.2,0.9,0,1.2c-0.3,0.5-0.8,1-1.2,1.5
			c-0.1-0.2-0.4-0.4-0.7-0.8c-0.3,0.3-0.5,0.5-0.9,0.9c1,0.6,1.9,1.1,1.4,2.4C136,109.4,133.9,107.9,131.8,106.4z M137.1,107.2
			c0-0.1-0.1-0.2-0.1-0.4c-0.2,0.1-0.5,0.2-0.7,0.3c0,0.1,0.1,0.2,0.1,0.3C136.6,107.4,136.8,107.3,137.1,107.2z M138.3,106
			c0,0.1-0.1,0.1-0.1,0.2c0.1,0,0.1,0.1,0.2,0.1c0,0,0.1-0.1,0.1-0.2C138.4,106.1,138.3,106,138.3,106z"/>
		<path class="st4" d="M525.5,76.3c-0.2-0.1-0.4-0.3-0.4-0.4c0-10.1,0-20.1,0-30.2c1.1,0.2,2.2,0.4,3.3,0.7c5.1,1.3,7.9,4.7,8.1,10
			c0.1,2.3,0.1,4.5,0.2,6.8c-1.7,2.3-3.4,4.6-5.3,6.8c-1.5,1.8-3.2,3.4-4.8,5.1c0-9.3,0-18.5,0-27.8c-0.4,0-0.8,0-1.2,0
			C525.5,57,525.5,66.6,525.5,76.3z"/>
		<path class="st4" d="M360.5,53.2c4.2,0.2,8.5,0.4,12.7,0.6c1.4,0.1,2.8,0,4.3,0c0,4.5,0,8.8,0,13.1c-2.1-0.3-4.3-0.3-6.3-0.9
			c-2.7-0.7-5.5-1.3-7.8-2.8C359.9,60.9,360.5,56.8,360.5,53.2z"/>
		<path class="st5" d="M146.3,88c-1.6-1.8-3.3-3.5-4.9-5.3c0.4-0.2,0.8-0.4,1.3-0.5c1.1-0.1,1.4-0.6,0.8-1.5
			c0.6-0.2,1.1-0.4,1.6-0.7c0.5,0.3,1,0.7,1.5,1c0.8,0.9,1.6,1.8,2.4,2.7C148.1,85.1,147.2,86.5,146.3,88z"/>
		<path class="st6" d="M131.8,106.4c2.1,1.5,4.2,3.1,6.3,4.6c2.2,2.2,4.7,4.3,5.8,7.4c-0.9-0.7-1.9-1.4-2.8-2.2
			c-1.1-0.9-2.2-1.7-3.2-2.6c-1.6-1.2-3.3-2.5-4.9-3.7c0.4,0,0.8-0.1,1.2-0.2c0.2,0,0.5-0.2,0.6-0.3c0.1-0.1-0.1-0.5-0.2-0.6
			c-0.6-0.4-1.2-0.9-1.9-1C131.6,107.6,131.4,107.2,131.8,106.4z"/>
		<path class="st3" d="M419.3,58.8c1.3-0.6,2.7-1.2,4-1.8c0.9,0.1,1.9,0.2,2.8,0.2c8.7-0.1,17.4-0.4,25.3,4.3c0.6,0.3,1,0.8,1.5,1.2
			c-5.5-0.4-11-0.6-16.4-1.2c-2.3-0.2-4.5-1.1-6.8-1.6c-0.5-0.1-1.3-0.2-1.7,0.1c-2.4,2-5.1-0.3-7.6,0.4
			C420.3,60.3,419.7,59.3,419.3,58.8z"/>
		<path class="st7" d="M403.9,80.9c0-2.9,0-5.8,0-8.7c0.4,0,0.8,0,1.2,0c0,1.9-0.1,3.9,0,5.8c0.1,1,0.6,1.9,1,2.9
			c0,11.1,0.1,22.1,0,33.2c0,1.1-0.6,2.3-0.9,3.4c-0.4-0.7-1.1-1.4-1.2-2.1c-0.2-2,0-4-0.1-5.9c-0.1-0.8-0.7-1.5-1.1-2.2
			c0-2.7,0-5.3,0-8c0,0,0,0,0,0c0.4-0.8,1.1-1.7,1.1-2.5C403.9,91.4,403.9,86.1,403.9,80.9z"/>
		<path class="st4" d="M334.2,59.7c-3.5-2.8-7.8-1.2-12.1-1.8c0-2.8,0-5.6,0-8.4c3.3-1.2,7.4,0.1,9.7,3.7
			C333,55.1,333.4,57.5,334.2,59.7z"/>
		<path class="st8" d="M263.8,71.8c-0.9,6.7,2.2,11.5,7.7,14.8c3,1.8,6.3,3.1,9.4,4.7c1.8,0.9,3.7,2,3.1,4.5
			c-0.5,2.4-2.3,3.8-4.7,3.9c-2,0.1-4.1-0.4-6.1-0.6c2.3-0.4,4.6-0.7,6.8-1.4c1.4-0.5,2-1.7,1-3.4c-2.3-4-6.5-4.3-10.1-5.7
			c-0.4-0.2-1.1,0.1-1.3-0.1c-1.9-2.4-4.1-4.7-5.5-7.4c-1.5-2.7-1.9-5.9-1.3-9.1c0-0.2,0.5-0.2,0.7-0.4
			C263.5,71.8,263.6,71.8,263.8,71.8z"/>
		<path class="st6" d="M149,83.7c-0.8-0.9-1.6-1.8-2.4-2.7c0,0,0.1-0.1,0.1-0.1c0.1-0.1,0.3-0.3,0.4-0.4c0.8,0.2,1-0.4,1.2-0.9
			c0,0,0.1-0.1,0.1-0.1c0.7,0.7,1.5,1.3,2.1,2c0.3,0.4,0.3,1.2,0.1,1.7C150.3,83.5,149.5,83.5,149,83.7z"/>
		<path class="st9" d="M137.8,113.6c1.1,0.9,2.2,1.7,3.2,2.6c-0.6,0.2-1.3,0.3-1.9,0.5c0-0.1-0.1-0.2-0.1-0.3
			c-0.4,0.2-0.7,0.4-1.1,0.7c-0.8-0.8-1.5-1.6-2.3-2.4C136.2,113.9,136.9,113.6,137.8,113.6z"/>
		<path class="st10" d="M420.4,67.7c4.9,0,9.8,0,14.8,0.1c1.5,0,2.9,0.5,4.4,1.1c-7.1-0.5-13.8,0.7-19.8,4.7
			C420,71.6,420.2,69.7,420.4,67.7z"/>
		<path class="st8" d="M206.3,98c0.3-1.2,0.7-2.3,0.8-3.5c0.1-1.4,0.3-3.1-0.2-4.3c-1-2.3,0-3.3,1.9-4.1c-0.8,5-1,10,1.6,14.5
			c1.3,2.3,3.1,4.3,4.6,6.5c-0.4,0.4-0.8,0.8-1.1,1.3c-0.3,0.7-0.5,1.4-0.8,2.1c-0.6-0.6-1.6-1.1-1.9-1.8c-1-2.8-1.7-5.7-2.7-8.6
			c-0.2-0.5-1.3-0.7-2-1C206.4,98.7,206.4,98.4,206.3,98z"/>
		<path class="st8" d="M410.2,90.3c0.1,7.3,2.7,13.4,8.4,18c-1.7-0.1-3.5-0.2-5.5-0.3c-0.6-1.8-1.5-4.4-2.4-7
			c-0.1-0.4-0.7-0.6-1-0.8C409.8,96.9,410,93.6,410.2,90.3z"/>
		<path class="st6" d="M542.1,117.4c-0.4,0.8-0.8,1.6-1.2,2.4c-0.9-1.3-1.8-2.7-2.7-4c0-0.2-0.1-0.5-0.1-0.7
			c2.5-1.8,4.3-1.6,5.2,0.6c0,0.6,0,1.1,0,1.7C542.9,117.4,542.5,117.4,542.1,117.4z"/>
		<path class="st6" d="M146.6,78.2c-1.8,0.2-2.5-1.8-4-2.1c-0.1,0,0-0.4-0.1-0.8c0.6,0,1.2,0.1,1.7,0.1c-0.2,0.1-0.5,0.1-0.7,0.2
			c-0.1,0-0.2,0-0.3,0.1c0.1,0,0.2,0.1,0.3,0.1c0.4,0.3,0.9,0.6,1.3,0.9C145.3,77.2,145.9,77.7,146.6,78.2z"/>
		<path class="st6" d="M143.8,94.1c-0.5-0.3-1-0.6-1.5-0.9c0.5,0,0.9-0.1,1.4,0c1.1,0.1,2.1,0.2,3.2,0.3
			C145.8,93.7,144.8,93.9,143.8,94.1z"/>
		<path class="st11" d="M143.4,75.6c0.2-0.1,0.5-0.1,0.7-0.2c1-0.4,1.9-0.7,2.9-1.1c-0.1,0.3-0.2,0.9-0.4,0.9c-1,0-1.4,0.8-2,1.4
			c-0.4-0.3-0.9-0.6-1.3-0.9C143.4,75.7,143.4,75.7,143.4,75.6z"/>
		<path class="st6" d="M11.9,109.7c1.1,0.3,2.3,1.7,2.2,2.6c0,0.1-0.2,0.1-0.4,0.2C13.1,111.6,12.5,110.6,11.9,109.7z"/>
		<path class="st6" d="M147,79.6c0-0.3,0-0.6,0-1c0.4,0.3,0.8,0.6,1.3,0.9c0,0-0.1,0.1-0.1,0.1C147.8,79.6,147.4,79.6,147,79.6
			L147,79.6z"/>
		<path class="st8" d="M538,115.1c0,0.2,0.1,0.5,0.1,0.7c-0.5,0.1-1.1,0.2-1.6,0.4c-0.1-0.6-0.1-1.1-0.2-1.7
			C536.9,114.7,537.5,114.9,538,115.1z"/>
		<path class="st11" d="M515.4,39.8"/>
		<path class="st6" d="M14,112.7c0.2,0.2,0.3,0.5,0.5,0.7C14.3,113.2,14.1,113,14,112.7z"/>
		<path class="st6" d="M147.1,78.6c-0.2-0.1-0.3-0.3-0.5-0.4C146.7,78.3,146.9,78.5,147.1,78.6z"/>
		<path class="st9" d="M137.7,118.6c0.1-0.3,0.2-0.6,0.4-0.8C138,118,137.9,118.3,137.7,118.6z"/>
		<path class="st6" d="M146.8,93.4c0.1-0.1,0.2-0.1,0.3-0.2C147,93.3,146.9,93.4,146.8,93.4z"/>
		<path class="st12" d="M46.2,76c6,1.4,12,1.3,18.1,0.6c8.7-1,17.1-3.8,25.5-6.1c6.5-1.8,13-3.3,19.7-3.4
			c10.5-0.2,20.1,2.6,28.9,8.2c0.8,0.5,1.5,1.1,2.3,1.7c-0.3,0-0.7,0.1-1,0c-1-0.3-1.9-0.7-2.9-1c-2.5-0.6-5-1.1-7.5-1.6
			c-0.9-0.3-1.8-0.6-2.7-0.9c-0.2-0.1-0.3-0.2-0.5-0.2c-7-2.1-14.1-2.5-21.3-1.1c-3.2,0.6-6.4,1.5-9.6,2.3c-0.3,0.1-0.7,0.2-1,0.2
			c-0.1,0-0.2,0-0.3,0.1C88,76.3,81.9,78,75.8,79.6c-0.2,0.1-0.4,0.2-0.7,0.3c0,0.1,0,0.1-0.1,0.1c-1.9,0.4-3.9,0.8-5.8,1.1
			c-4,0.5-8.1,1-12.2,1.3c-2.8,0.2-5.7,0-8.5,0c0,0.1,0,0.1,0,0.2c1.5,0.6,3,1.3,4.5,1.9c0.4,1.3,0.5,2.7,1.2,3.8
			c5.5,9.4,18.5,12.9,28.4,7.6c0.2-0.1,0.4-0.2,0.6-0.3l0.1-0.1c0.8-0.5,1.5-0.9,2.3-1.4l0.1,0c0.8-0.6,1.5-1.3,2.3-1.9l-0.1-0.1
			l0.1,0.1c1.7-1.6,3-3.5,3.9-5.6c0.3-0.7,0-1.6,0-2.3c0.9-0.4,1.7-0.9,2.6-1c2.3-0.4,4.5-0.7,6.8-0.9c1.6-0.1,3.2,0,5,0
			c-0.4,0.4-0.5,0.7-0.8,0.8c-5.9,5-11.9,9.6-18.9,13c-3.6,1.8-7.3,3.5-11.2,4.4c-4.2,1-8.4,1.9-12.6,2.8c-4.7,1.1-9.5,1-14.3,1.1
			c-3.8,0.1-7.6-0.1-11.3-1.1c-1.6-0.5-3.2-1.3-3.7-2.8c-0.9-2.5-1.5-5.1-1.9-7.7c-0.4-2.6-0.4-5.3-0.6-7.9c0-0.1-0.1-0.3-0.2-0.4
			c0-0.4,0-0.7,0-1.1c0-11.1,0-22.2,0-33.3c0-1.7,0-3.4,0-5.2c0.4-0.1,0.7-0.2,1.1-0.2c2.3,0,4.7,0,7,0c1,0,1.6,0.2,2.3,1.1
			c3,4.1,9,4,11.8-0.1c0.6-0.8,1.1-1,2-1c14.8,0,29.6,0,44.4,0c5.3,0,10.6,0,15.8,0c-1.9,2.4-3.5,5-4.4,7.9
			c-0.4,1.2-1.1,1.9-2.2,2.3c-1.1,0.4-2.3,0.8-3.4,1.3c-2.6,1-5.3,2-7.9,3.1c-0.5,0.2-0.9,0.4-1.3,0.7c-0.1,0-0.3,0-0.4,0.1
			c-0.2,0.1-0.4,0.2-0.6,0.3c-5.1,1.8-10,4-14.8,6.7c-0.1,0.1-0.2,0.1-0.2,0.2l0,0c-1.7,0.8-3.4,1.7-5.2,2.5
			c-11.6,3.7-23.5,5-35.7,3.7c1.9,0.6,3.7,1.2,5.6,1.8C45.1,75.7,45.7,75.9,46.2,76z M44.8,54.6c-2.3,0.9-4,3.3-4,5.9
			c-0.1,2.9,1.5,5.3,4.2,6.5c2.5,1.1,5.4,0.6,7.4-1.3c2.6-2.4,3-5.9,1-8.8C51.4,54.1,47.8,53.1,44.8,54.6z"/>
		<path class="st13" d="M53,84.5c-1.5-0.6-3-1.3-4.5-1.9c0-0.1,0-0.1,0-0.2c2.8,0,5.7,0.2,8.5,0c4.1-0.3,8.1-0.8,12.2-1.3
			c2-0.2,3.9-0.7,5.8-1.1c-0.2,1.4-0.4,2.7-0.6,4.2c8.4-1.3,16.4-3.9,24.6-6.1c4.8-0.9,9.7-1.8,14.6-1.7c0.7,0,1.5,0.1,2.2,0.1
			c0,7.7,0,15.2,0,22.4c-3.3,0-6.5-0.3-9.6,0c-4.6,0.4-9,2.1-13.2,4c-7.2,3.1-14.6,6.1-22.3,7.9c-2.3,0.5-4.5,0.9-6.8,0.9
			c-8.2-0.1-16.4,0-24.5,0c-3.4,0-6.4-1.2-7.9-4.4c-0.6-1.3-0.9-2.9-0.9-4.4c-0.1-4.6,0-9.2,0-13.7c0-1.5,0-3,0.1-4.4
			c0.1,0.1,0.2,0.3,0.2,0.4c0.2,2.6,0.2,5.3,0.6,7.9c0.4,2.6,1,5.2,1.9,7.7c0.6,1.5,2.1,2.3,3.7,2.8c3.7,1.1,7.5,1.2,11.3,1.1
			c4.8-0.1,9.6,0,14.3-1.1c4.2-1,8.4-1.9,12.6-2.8c4-0.9,7.6-2.7,11.2-4.4c7-3.4,13-8.1,18.9-13c0.2-0.2,0.4-0.4,0.8-0.8
			c-1.8,0-3.5-0.1-5,0c-2.3,0.2-4.6,0.5-6.8,0.9c-0.9,0.2-1.7,0.7-2.6,1c-0.2-0.2-0.4-0.3-0.6-0.5c-1-0.6-1.9-0.2-2.6,0.5
			c-0.1,0-0.2-0.1-0.3-0.1c-2.3,0.1-4.5,0.3-6.8,0.4c-2.8,0.2-5.7,0.4-8.5,0.5c-2.6,0.1-5.3,0.4-7.9,0.3c-2.7-0.1-5.3-0.5-8-0.8
			c-0.7-0.9-1.5-1.4-2.6-1C53.9,83.9,53.5,84.3,53,84.5z"/>
		<path class="st9" d="M113,32.5c2.6,1.7,3.3,4.2,3,7.1c-0.4-0.3-0.9-0.8-1.3-0.8c-0.4,0-0.8,0.6-1.3,0.8c-0.1,0.1-0.4,0-0.6,0
			c-2.5-0.2-4.9-0.3-7.4-0.5c-0.7,0-0.7-0.5-0.7-1c0.3,0.1,0.6,0.4,0.9,0.4c0.9,0.2,1.8,0,2.2-0.8c0.4-0.9,0.4-2-0.6-2.5
			c-0.6-0.3-1.6-0.3-2.2-0.1c-0.9,0.4-1,1.4-0.6,2.3c0.1,0.2,0.2,0.4,0.3,0.6c-0.2,0.3-0.3,0.6-0.5,0.8c-0.2,0.2-0.5,0.6-0.8,0.6
			c-0.2,0-0.4-0.4-0.6-0.6c-0.2-0.2-0.4-0.5-0.7-0.9c-0.5,1.8-1,2-2.4,0.8c-0.2-0.2-0.5-0.2-0.7-0.3c0.2-0.1,0.5-0.2,0.6-0.4
			c0.3-0.7,0.7-1.4,0.6-2.1c-0.1-0.5-0.8-1.1-1.3-1.2c-0.8-0.3-1.6,0-2.1,0.9c-0.8,1.3,0,2.6,1.8,2.9c0,0.1,0.1,0.3,0.1,0.4
			c-1.1,0.2-2.3,0.4-3.4,0.4c-1.1,0-2.2-0.4-3.3-0.4c-1.2,0-2.4,0.3-3.6,0.4c-1.7,0.1-3.5,0-5.2,0c-0.4,0-0.7,0.3-1,0.4
			c-8.8,0-17.6,0-26.3,0c-0.6,0-1.4-0.2-1.6,0.7c0-3.2,0-6.4,0-9.6c3.1,0,6.1,0,9.2,0.1c0.3,0.1,0.6,0.4,1,0.4c4.4,0,8.7,0,13.1,0
			c0.3,0,0.6-0.3,1-0.4c9.2,0,18.4,0,27.6,0c1.2,0,2.3,0.2,3.5,0.4C110.7,31.9,111.8,32.2,113,32.5z M88.8,36.7c0,0.9,0.9,1.9,1.9,2
			c1.1,0,2-0.8,2-1.9c0-1-0.8-1.9-1.8-1.9C89.8,34.8,88.8,35.7,88.8,36.7z"/>
		<path class="st14" d="M90.6,111.7c-2.8,1.5-5.5,3.1-8.3,4.5c-6,3-12.4,4.6-18.9,5.9c-5.4,1-10.8,1.5-16.3,1.2
			c-2.6-0.1-5.1-0.6-7.7-0.9c-0.1-0.1-0.3-0.1-0.4-0.2c-4.7-1-8.9-2.9-12.2-6.5c-2.5-2.8-3.5-6-3.2-9.7c0.2-2.2,1-4.2,2.1-6.2
			c0.3-0.4,0.6-0.9,1-1.5c0,0.4,0,0.7,0.1,1c-0.7,2.6-0.8,5.2,0,7.8c0.9,3.4,3.1,5.7,6.2,7.3c4.7,2.4,9.7,3.3,14.9,3.6
			c9,0.4,17.7-1.2,26.4-3.4c7.3-1.9,14.2-4.9,20.9-8.2c4.5-2.2,9.2-3.9,14.4-3.6c1.5,0.1,3.1,0.3,4.6,0.4c-0.4,0.1-0.7,0.4-1.1,0.4
			c-1.5,0.1-3.1,0.1-4.7,0.2c-1.9,0-3.7,0.7-5.5,1.4c-1.3,0.5-2.6,1.2-3.8,1.8c-1.6,0.8-3.2,1.6-4.8,2.3
			C93,110.1,91.8,110.9,90.6,111.7z"/>
		<path class="st15" d="M80,67.4c4.7-2.6,9.7-4.9,14.8-6.7c0.2-0.1,0.4-0.2,0.6-0.3c0.1,0,0.3,0,0.4-0.1c0.4-0.1,0.8-0.2,1.2-0.2
			c3.1-0.7,6.1-1.5,9.2-2.1c3.2-0.6,6.5-1,9.8-1.4c0,0,0,0,0,0c0.3,0.1,0.6,0.3,1,0.3c1.4,0,2.8,0,4.2,0c0.4,0,0.8,0,1.2,0
			c0.1,0.2,0.3,0.3,0.3,0.3c-0.8,0.1-1.7,0.3-2.5,0.3c-0.9,0-1.9-0.3-2.8-0.4c-0.4,0-0.7,0.1-1.2,0.2c1.1,1.3,2.4,0.3,3.8,1
			c-1.4,0.4-2.6,0.8-3.8,1.2c0,0.1,0,0.2,0.1,0.4c1.3-0.1,2.5,0.5,3.8-0.4c0.3-0.2,1-0.3,1.4-0.1c0.3,0.1,0.3,0.7,0.5,1.1
			c-8.6-0.8-16.9,0.9-25,3.3c-5.1,1.5-10.1,3-15.2,4.4c-0.3,0.1-0.5,0.1-0.8,0.1c-0.5,0-1.1,0.1-1-0.7c0,0,0,0,0,0
			C79.9,67.5,80,67.5,80,67.4z"/>
		<path class="st15" d="M99.1,78.2c-8.1,2.1-16.2,4.8-24.6,6.1c0.2-1.5,0.4-2.9,0.6-4.2c0,0,0.1-0.1,0.1-0.1
			c0.2-0.1,0.4-0.2,0.7-0.3C81.9,78,88,76.3,94,74.7c0.1,0,0.2,0,0.3-0.1C94.8,76.4,97.2,78.2,99.1,78.2z"/>
		<path class="st7" d="M115.1,45c-5.3,0-10.6,0-15.8,0c-14.8,0-29.6,0-44.4,0c-0.9,0-1.4,0.1-2,1c-2.8,4.1-8.8,4.1-11.8,0.1
			c-0.6-0.9-1.3-1.1-2.3-1.1c-2.3,0.1-4.7,0-7,0c-0.4,0-0.7,0.2-1.1,0.2c-0.1,0.5-0.1,0.9-0.2,1.4c-0.3-0.3-0.8-0.6-0.9-1
			c-0.3-1,0.5-1.4,1.8-1.2c0.7,0.1,1.5,0,2.2-0.1c-0.1-0.7-0.2-1.1-0.3-1.5l0,0c1.1,0,2.1,0,3.2,0c0.2,0,0.4,0.3,0.6,0.4
			c-0.2,0.2-0.3,0.4-0.6,0.4c-0.4,0.1-0.9,0.1-1.4,0.1c0,0.1,0,0.3,0,0.4c1.8,0.1,3.6,0.1,5.5,0.2l0,0.1l0,0l-0.1,0
			c0.1-0.3,0.2-0.6,0.2-0.9c0.2-1.5,0.1-1.7-1.4-1.7c-2,0-4,0-6.1,0l0,0c0.5-0.2,0.9-0.4,1.4-0.5c0.8-0.2,1.6-0.3,2.4-0.4
			c0.9,0,1.8,0,2.8,0c0-3.5,0-6.7,0-9.9c0-0.4,0-0.9,0-1.4c-0.7,0-1.2,0.1-1.8,0.1c0.8-1.2,1.7-0.2,2.7-0.1c0-1.7,0-3.3,0-5
			c0.2,0,0.4,0,0.5,0c0,0.9,0,1.8,0,2.6c0,4.9,0,9.9,0,14.8c0,0.9,0.1,1.6,1.2,1.6c0.1,0.1,0.2,0.3,0.2,0.4c0,0.9,0.4,1.5,1.5,1.4
			c2.4,1.3,4.5,0.8,6.5-0.9c0.3,0.7,0.7,0.7,1,0c0.5-1.1,1-2.1,2.1-2.8c0.1,0.3,0.2,0.6,0.2,0.9c-0.3,0.3-0.6,0.7-0.9,1
			c0.2,0.2,0.2,0.3,0.2,0.3c2.2,0.2,4.4,0.5,6.6,0.5c7.6,0.1,15.3,0,22.9,0c1.5,0,3-0.2,4.5-0.2c6.4,0,12.9,0,19.3,0
			c2.4,0,4.9-0.2,7.3-0.2c0.7,0,1.4,0.4,2.1,0.7C115.7,45,115.4,45,115.1,45z"/>
		<path class="st9" d="M42.7,44.3c-0.1-0.1-0.2-0.3-0.2-0.4c0-0.1-0.1-0.3-0.1-0.4c0.1-0.4,0.3-0.7,0.3-1.1c0-4.5,0-9,0-13.5
			c0-0.3-0.1-0.6-0.1-0.8c-0.1,0-0.2,0-0.4,0c0,5,0,9.9,0,14.9c-0.1-0.5-0.2-1-0.2-1.5c0-5.5,0-11,0-16.4c0.1,0,0.1,0,0.2-0.1
			c0,0,0.1,0,0.1,0c0,0.4,0,0.8,0,1.3c0.3-0.2,0.5-0.3,0.8-0.5c0.2,1.5,0.4,3,0.6,4.4c0.1,0.5,0.2,0.7,0.7,0.5c0,0.3,0,0.6,0,0.9
			c0.1,2.1,0,4.2,0.2,6.3c0.2,1.7,1.2,2.4,2.9,2.4c1.6,0,2.9-0.8,3-2.3c0.2-2.7,0.1-5.4,0.2-8.2c0-0.1-0.2-0.2-0.3-0.3
			c0-0.9,0.1-1.9,0.1-2.8c0-0.7,0-1.4,0.1-2.1c0.3,0,0.6,0,0.9-0.1c0.1,0.2,0.2,0.5,0.3,0.7c0,0.4,0,0.7,0,1.1c0,0.3,0,0.5,0,0.8
			c0,0.4,0,0.7,0,1.1c0,0.7,0,1.4,0,2c0,0.5-0.1,1.1-0.1,1.6c0,3.7,0,7.4-0.1,11.1c-0.3,0.6-0.6,1.2-0.9,1.9c-2,1.7-4.1,2.2-6.5,0.9
			C43.7,45.2,43.2,44.7,42.7,44.3z"/>
		<path class="st16" d="M63.4,31.2c-3.1,0-6.1,0-9.2-0.1c0-0.5,0-0.9,0.1-1.4c1.8,0,3.6,0,5.4,0c2,0,3.9,0,5.9,0c2.4,0,4.9,0,7.3,0
			c0.2,0,0.5,0,0.7,0c4,0,8,0,12.1,0c7,0,14.1,0,21.1,0c1.9,0.1,3.7,0.4,5.3,1.5c0.4,0.3,0.7,0.8,1.1,1.3c-1.2-0.3-2.3-0.7-3.5-0.9
			c-1.1-0.2-2.3-0.4-3.5-0.4c-9.2,0-18.4,0-27.6,0C73.4,31.2,68.4,31.2,63.4,31.2z"/>
		<path class="st17" d="M99.1,106.9c1.3-0.6,2.5-1.3,3.8-1.8c1.8-0.7,3.5-1.3,5.5-1.4c1.6,0,3.1-0.1,4.7-0.2c0.4,0,0.7-0.3,1.1-0.4
			c3.5,0.9,7,1.6,10.3,2.7c2.5,0.9,4.9,2.4,7.3,3.6c-0.5,0.3-0.9,0.6-0.4,1.3c0.2,0.2,0.9,0.8,0.1,1.3c-4.7-2.4-9.6-4.3-14.8-5.5
			c-0.4-0.1-0.8-0.1-1.1-0.2c-2.6-0.3-5.2-1-7.7-0.9C104.9,105.6,102,106.4,99.1,106.9z"/>
		<path class="st13" d="M90.6,111.7c1.2-0.8,2.4-1.7,3.6-2.5c0.3,0,0.6,0.1,0.9,0c3.2-0.5,6.5-1.1,9.7-1.5c2.4-0.2,4.9,0,7.4,0
			c0.7,0.1,1.4,0.3,2,0.4c-0.3,1.8-2.3,3.5-4.7,3.5C103.3,111.8,97,111.7,90.6,111.7z"/>
		<path class="st13" d="M115.1,45c0.3,0,0.6,0,0.9,0c0,3.8,0,7.6,0,11.5c-3.3,0.5-6.5,0.8-9.8,1.4c-3.1,0.6-6.1,1.4-9.2,2.1
			c-0.4,0.1-0.8,0.2-1.2,0.2c0.4-0.2,0.9-0.5,1.3-0.7c2.6-1,5.3-2.1,7.9-3.1c1.1-0.4,2.2-0.9,3.4-1.3c1.1-0.4,1.9-1.2,2.2-2.3
			C111.6,50,113.1,47.4,115.1,45z"/>
		<path class="st9" d="M39.8,31.1c0,3.2,0,6.5,0,9.9c-0.9,0-1.9,0-2.8,0c-1.8,0-3.7,0-5.5-0.1c0.3-1.3,0.5-2.7,0.8-4
			C33.3,33.7,36.3,31.3,39.8,31.1z"/>
		<path class="st14" d="M68.1,21c-0.2-0.1-0.5-0.1-0.7-0.2c0.2-0.2,0.4-0.6,0.7-0.7c2.5-0.9,4.3-2.6,5.1-5.2
			c0.1-0.3,0.3-0.6,0.4-0.9c0.2,0.1,0.3,0.1,0.3,0.2c0.1,0,0.1,0.1,0.1,0.2c0.9,3.2,3.1,5.1,6.2,6c0,0.1,0,0.1,0,0.2
			c-0.3,0.1-0.6,0.3-0.9,0.4c-2,0.5-3.3,1.8-4.3,3.5c-0.4,0.8-0.8,1.6-1.2,2.5c-0.4-0.9-0.7-1.8-1.2-2.5c-0.5-0.7-1.1-1.3-1.7-2
			c-0.1,0-0.1-0.1-0.2-0.1C69.8,22,69,21.5,68.1,21z"/>
		<path class="st18" d="M108.5,42c0.3,0.2,0.7,0.4,1,0.4c1.7,0,3.4,0,5.2,0c0.4,0,0.8,0,1.1,0.3c-19.9,0-39.9,0-59.8,0
			c0-0.1,0-0.1,0-0.2c0.3,0,0.6-0.1,0.9-0.1c1.8,0,3.6,0,5.4,0c0.4,0,0.7-0.3,1-0.4c9,0,17.9,0,26.9,0c1.2,0,2.4,0.3,3.6,0.4
			c0.5,0,0.9,0,1.4,0c0.7-0.1,1.3-0.3,2-0.4c1.5-0.2,2.9,0.2,4.4,0.1C103.9,41.8,106.2,42,108.5,42z"/>
		<path class="st19" d="M129.4,74.4c2.5,0.5,5,1,7.5,1.6c1,0.2,1.9,0.7,2.9,1c0.3,0.1,0.6,0,1,0c1.3,0.9,2.7,1.7,4,2.6
			c0.1,0.1,0.2,0.3,0.3,0.4c-0.5,0.2-1.1,0.4-1.6,0.7c0.6,1,0.3,1.4-0.8,1.5c-0.4,0-0.9,0.3-1.3,0.5c-1.7-1.4-3.4-2.9-5.2-4.2
			C134,77,131.7,75.8,129.4,74.4z"/>
		<path class="st4" d="M112.3,107.8c-2.5,0-4.9-0.2-7.4,0c-3.3,0.3-6.5,1-9.7,1.5c-0.3,0-0.6,0-0.9,0c1.6-0.8,3.2-1.6,4.8-2.3
			c2.9-0.5,5.8-1.3,8.7-1.4c2.6-0.1,5.1,0.5,7.7,0.9C114.9,107.8,113.3,107.1,112.3,107.8z"/>
		<path class="st18" d="M54,42.9c-0.1-0.3-0.2-0.6-0.2-0.9c0-0.2,0-0.5,0-0.7c0.2-0.1,0.3-0.2,0.5-0.2c14.1,0,28.1,0,42.2,0
			c6.5,0,13.1,0,19.6,0c0,0.2,0,0.3,0,0.5c-20.1,0-40.1,0-60.2,0c-1.2,0.7-1.2,0.8-0.2,2.1C54.5,44.1,54.1,44,54,42.9z"/>
		<path class="st20" d="M10.3,61.5c0.1-0.2,0.1-0.5,0.2-0.6c0.9-0.6,1.7-1.2,2.6-1.8c0.5-0.3,0.9-0.6,1.6-1c0.1-1.1,0.1-2.6,1.7-3.2
			c0.8-0.3,1.8,0.1,1.7,1c-0.1,1.3,0.6,2,1.5,2.9c0.9,0.9,1.7,1.5,2.9,1.8c0.4,0.1,0.7,0.5,1,0.8c-0.7,1.1-1.1,2.4-2.8,2.5
			c-0.5,0-0.9,0.5-1.3,0.9c-1,1.2-2.1,2.4-2,4.1c0,0.2-0.4,0.4-0.7,0.7c-0.1-0.2-0.3-0.4-0.4-0.6c-0.5-0.9-0.5-2.2-1.8-2.7
			c-0.2-0.1-0.3-0.5-0.3-0.7c0.1-1.1-0.7-1.2-1.5-1.6c-1.1-0.5-2.1-1.4-3.1-2.1C10,61.8,10.2,61.6,10.3,61.5
			c0.2,0.2,0.4,0.4,0.7,0.4c2.1,0.6,3.8,1.9,4.8,3.9c0.4,0.7,0.7,1.5,1.1,2.5c1-3.5,3.1-5.7,6.6-6.6c-3.5-1-5.6-3.1-6.6-6.5
			C15.8,58.7,13.6,60.7,10.3,61.5z"/>
		<path class="st21" d="M55.8,41.5c20.1,0,40.1,0,60.2,0c-0.3,0.2-0.7,0.4-1,0.5c-2.2,0-4.3,0-6.5,0c-2.3,0-4.6-0.2-6.8,0.1
			c-1.5,0.2-2.9-0.2-4.4-0.1c-0.7,0.1-1.3,0.3-2,0.4c-0.5,0.1-0.9,0.1-1.4,0c-1.2-0.1-2.4-0.4-3.6-0.4c-9,0-17.9,0-26.9,0
			c-2.2,0-4.3,0-6.5,0C56.5,41.9,56.2,41.7,55.8,41.5z"/>
		<path class="st22" d="M116,41c-6.5,0-13.1,0-19.6,0c-14.1,0-28.1,0-42.2,0c0-0.1,0-0.2,0-0.2c0.3-0.9,1-0.7,1.6-0.7
			c0.3,0.2,0.5,0.4,0.8,0.4c1.3,0,2.6,0,3.9,0c18.5,0,36.9,0,55.4,0C116,40.7,116,40.8,116,41z"/>
		<path class="st15" d="M116,40.6c-18.5,0-36.9,0-55.4,0c-1.3,0-2.6,0-3.9,0c-0.3,0-0.5-0.3-0.8-0.4c8.8,0,17.6,0,26.3,0
			c11.3,0,22.5,0,33.8,0C116,40.2,116,40.4,116,40.6z"/>
		<path class="st14" d="M23.4,83.6c0,0.1-0.1,0.3-0.1,0.3c-2.3,0.5-3.7,2-4.3,4.2c-0.6-1-1.1-2-1.8-2.7c-0.6-0.6-1.6-0.9-2.4-1.4
			c-0.2-0.1-0.3-0.3-0.5-0.4c2.4-0.4,3.8-2,4.5-4.2c0.1,0.1,0.2,0.1,0.3,0.2C19.7,81.7,21.1,83.2,23.4,83.6z"/>
		<path class="st22" d="M116,40.1c-11.3,0-22.5,0-33.8,0c0.3-0.2,0.7-0.4,1-0.4c1.7,0,3.5,0,5.2,0c1.2-0.1,2.4-0.4,3.6-0.4
			c1.1,0,2.2,0.4,3.3,0.4c1.1,0,2.3-0.3,3.4-0.4c0-0.1-0.1-0.3-0.1-0.4c0.1,0,0.3,0,0.4,0c0.3,0.1,0.5,0.1,0.7,0.3
			c1.4,1.1,1.9,1,2.4-0.8c0.3,0.4,0.5,0.6,0.7,0.9c0.2,0.2,0.5,0.6,0.6,0.6c0.3,0,0.6-0.3,0.8-0.6c0.2-0.2,0.3-0.5,0.5-0.8l0,0
			c0,0.5,0,0.9,0.7,1c2.5,0.1,4.9,0.3,7.4,0.5c0.2,0,0.4,0.1,0.6,0c0.5-0.3,0.9-0.8,1.3-0.8c0.4,0,0.9,0.5,1.3,0.8
			C116,39.8,116,39.9,116,40.1z"/>
		<path class="st16" d="M39.8,31.1c-3.5,0.1-6.5,2.6-7.4,5.9c-0.4,1.3-0.6,2.7-0.8,4c-0.3,0-0.5,0-0.8,0c-0.4-6,1.8-9.5,7.2-11.2
			c0.6,0,1.1-0.1,1.8-0.1C39.8,30.2,39.8,30.7,39.8,31.1z"/>
		<path class="st8" d="M25.6,99.8c-1,1.9-1.9,3.9-2.1,6.2c-0.3,3.7,0.7,6.9,3.2,9.7c3.3,3.6,7.5,5.5,12.2,6.5c0.1,0,0.3,0.1,0.4,0.2
			c-1.4-0.2-2.8-0.3-4.1-0.6c-1.2-0.3-2.5-0.8-3.7-1.3c-0.6-0.3-1.3-0.6-1.8-1c-1.2-1.1-2.6-2.1-3.5-3.3c-1-1.3-2.4-2.3-2.4-4.2
			c-1.7-1.3-0.8-3.3-1.2-5c-0.3-1.5,0.7-3.3,1.1-4.9c0.1-0.4,0.5-0.8,0.5-1.3C24.3,99.7,24.9,99.7,25.6,99.8z"/>
		<path class="st7" d="M30.5,88.5C30.3,88,30,87.6,30,87.1c0-12.2,0-24.3,0-36.5c0-0.9,0-1.7,0-2.6c0-0.3,0.3-0.6,0.4-0.9
			C30.4,60.9,30.4,74.7,30.5,88.5z"/>
		<path class="st8" d="M94.2,17.1c0.6,0,1.2,0,1.1,0.8c0,0.8-0.5,1.1-1.2,1.1c-1-0.1-1.7,0-1.6,1.4c0,0.6-0.9,0.7-1.5,0.3
			c-1-0.7-2-1.3-3.1-1.9c-0.7-0.4-1.1-1.4-0.5-2c1-1,2.1-1.8,3.2-2.6c0.2-0.2,0.9-0.1,1,0c0.7,0.8,1.3,1.7,1.9,2.6
			c-0.8-0.7-1.7-1.5-2.4-2c-0.9,0.8-1.9,1.7-2.9,2.6c1.4,0.2,2.3,1.2,2.9,3C91.6,18.4,92.9,17.7,94.2,17.1z"/>
		<path class="st20" d="M95.4,74.4c3.2-0.8,6.4-1.6,9.6-2.3c7.2-1.4,14.3-1.1,21.3,1.1c0.2,0.1,0.3,0.2,0.5,0.2
			c-1.8,0.1-3.4-0.2-5.1-0.8c-1.1-0.4-2.4-0.4-3.6-0.6c-1.2-0.2-2.5-0.5-3.8-0.4c-2.1,0.1-4.1,0.6-6.2,0.8c-0.5,0.1-1,0-1.5,0.1
			c-1.3,0.2-2.6,0.5-3.9,0.8c-1.2,0.2-2.3,0.4-3.5,0.6C97.9,74.1,96.6,74.3,95.4,74.4z"/>
		<path class="st20" d="M80.2,20.4c-3.2-0.9-5.3-2.8-6.2-6c0-0.1-0.1-0.1-0.1-0.2c-0.1,0-0.1-0.1-0.3-0.2c-0.1,0.3-0.3,0.6-0.4,0.9
			c-0.8,2.6-2.6,4.3-5.1,5.2c-0.3,0.1-0.5,0.4-0.7,0.7c0.1-0.4,0-0.9,0.2-1.1c1.1-0.8,2.2-1.5,3.3-2.2c0.6-0.3,0.9-0.8,0.9-1.5
			c0-0.5-0.1-1.1,0.1-1.5c0.2-0.5,0.8-1.2,1.1-1.1c0.6,0,1.3,0.5,1.6,1c1.1,1.4,1.9,3,3,4.4c0.3,0.4,1.1,0.3,1.6,0.6
			C79.6,19.5,79.9,20,80.2,20.4z"/>
		<path class="st16" d="M125.9,83.4c0.5,1.7,1.8,2.5,3.3,3.2c-1.7,0.4-2.8,1.4-3.3,3.3c-0.6-2-1.8-2.9-3.4-3.4
			C124.2,86.1,125,84.7,125.9,83.4z"/>
		<path class="st19" d="M131.5,112c0.8-0.5,0.1-1.1-0.1-1.3c-0.5-0.7-0.1-1,0.4-1.3c0.4,0.2,0.7,0.4,1.1,0.5
			c1.6,1.2,3.3,2.5,4.9,3.7c-0.9-0.1-1.6,0.3-2.1,1C134.3,113.8,132.9,112.9,131.5,112z"/>
		<path class="st16" d="M132.5,90.9c0.9,1.2,1.6,2.6,3.4,2.9c-1.5,0.6-2.7,1.3-3.2,3c-0.2-0.3-0.3-0.4-0.4-0.6
			c-0.4-1.4-1.6-1.9-3.1-2.4C130.9,93.3,131.9,92.4,132.5,90.9z"/>
		<path class="st8" d="M70.9,22.5c0.6,0.7,1.2,1.3,1.7,2c0.5,0.7,0.8,1.6,1.2,2.5c0.4-0.9,0.8-1.7,1.2-2.5c1-1.7,2.3-3,4.3-3.5
			c0.3-0.1,0.6-0.3,0.9-0.4c0.7,0.6,0.2,0.9-0.3,1.2c-0.8,0.4-1.6,0.6-2.3,1.1c-0.9,0.6-1.8,1.3-1.9,2.6c-0.2,1.2-1.1,2-1.9,2
			c-1.1-0.1-1.8-0.8-2-2.2c0-0.2,0-0.4-0.1-0.4C70.6,24.3,70.9,23.3,70.9,22.5z"/>
		<path class="st20" d="M125.9,83.4c-0.8,1.4-1.7,2.7-3.5,3.1c1.6,0.6,2.9,1.5,3.4,3.4c0.6-1.9,1.7-2.9,3.3-3.3
			c0.1,0.6,0,1.1-0.6,1.5c-0.6,0.4-1,1-1.6,1.6c-0.9,1-2,0.6-2.6-0.6c-0.2-0.5-0.9-1.1-1.4-1.2c-0.8-0.2-1.4-0.6-1.3-1.2
			c0.1-0.5,0.9-0.9,1.4-1.3c0.2-0.1,0.5-0.1,0.9-0.1c-0.5-1.1,0.3-1.6,1-2C125.2,83,125.6,83.2,125.9,83.4z M123,85.6
			C123,85.6,123.1,85.6,123,85.6c0.1,0,0.1,0,0.1,0C123.1,85.5,123.1,85.5,123,85.6C123,85.5,123,85.6,123,85.6z"/>
		<path class="st16" d="M56.8,19.9c-0.1,0-0.4,0-0.4-0.1c-0.4-1.4-1.5-2.1-2.5-2.5c0.9-0.9,1.9-1.8,2.7-2.6c0.9,0.8,2,1.7,3.1,2.6
			C58.2,17.6,57.2,18.4,56.8,19.9z"/>
		<path class="st16" d="M94.2,17.1c-1.2,0.7-2.6,1.3-3,3.2c-0.7-1.8-1.6-2.8-2.9-3c1-0.9,2-1.7,2.9-2.6c0.7,0.6,1.5,1.3,2.4,2
			C93.7,16.8,93.9,17,94.2,17.1z"/>
		<path class="st18" d="M42,25.1c0,5.5,0,11,0,16.4c0,0.5,0.1,1,0.2,1.5c0.1,0.2,0.1,0.3,0.2,0.5c0,0.1,0.1,0.3,0.1,0.4
			c-1.1-0.1-1.2-0.8-1.2-1.6c0-4.9,0-9.9,0-14.8c1-0.6,0.2-1.6,0.5-2.3C41.8,25,41.9,25,42,25.1z"/>
		<path class="st21" d="M106.6,29.7c-7,0-14.1,0-21.1,0c-4,0-8,0-12.1,0c0.1,0,0.1-0.1,0.2-0.1c2.9-0.1,5.8-0.1,8.7-0.1
			c1.6,0,3.1,0.1,4.7,0c3.3-0.1,6.7-0.2,10-0.2c2.9,0,5.8,0.1,8.8,0.2C106.1,29.5,106.4,29.7,106.6,29.7z"/>
		<path class="st7" d="M42,25.1c-0.1,0-0.2,0-0.2,0c-0.1-0.6-0.3-1.2-0.4-1.8c-0.1-0.4-0.3-0.8-0.5-1.2c0-0.1,0.3-0.2,0.4-0.3
			c0.2,0.3,0.5,0.7,0.9,1.2c0.6-0.4,1.2-0.8,2-1.3c-0.8-0.2-1.3-0.3-2.2-0.6c0.5-0.2,0.7-0.3,0.9-0.3c1.9,0.6,3.8-0.2,5.7,0
			c0.8,0.1,1.5,0.3,2,1c0.2,0.3,0.5,0.7,0.8,1c1,0.8,0.7,1.6,0.3,2.5c-0.1-0.2-0.2-0.5-0.3-0.7c-0.1-0.3-0.1-0.7-0.3-1
			c-1-1.7-2.9-2.6-4.9-2.3c-2,0.3-3.6,1.8-4,3.7C42.1,25,42,25,42,25.1z"/>
		<path class="st16" d="M15,44.7c0.8-0.8,1.7-1.6,2.6-2.3c0.7,0.6,1.5,1.5,2.3,2.3c-0.7,0.6-1.6,1.4-2.5,2.2
			c-0.2-0.3-0.5-0.9-0.9-1.2C16,45.2,15.4,44.9,15,44.7z"/>
		<path class="st16" d="M124.8,42.7c0.7-0.7,1.6-1.5,2.3-2.2c0.8,0.7,1.7,1.6,2.4,2.3c-0.7,0.6-1.6,1.3-2.4,2
			C126.4,44.2,125.5,43.4,124.8,42.7z"/>
		<path class="st23" d="M30.5,88.5c0-13.8,0-27.6,0-41.4c0-0.2,0-0.3,0-0.5c0.1-0.5,0.1-0.9,0.2-1.4c0,1.7,0,3.4,0,5.2
			c0,11.1,0,22.2,0,33.3c0,0.4,0,0.7,0,1.1c0,1.5,0,3-0.1,4.4C30.6,89,30.5,88.7,30.5,88.5z"/>
		<path class="st16" d="M125.1,51.9c0.7-0.6,1.5-1.3,2.3-2c0.7,0.6,1.5,1.4,2.2,2.1c-0.7,0.6-1.5,1.4-2.3,2
			C126.6,53.4,125.8,52.6,125.1,51.9z"/>
		<path class="st20" d="M132.5,90.9c-0.6,1.5-1.7,2.4-3.4,3c1.5,0.4,2.7,0.9,3.1,2.4c-0.3,0-0.6,0-0.9-0.1c-0.6-0.2-1.3-0.5-1.9-0.6
			c-0.8-0.8-0.9-1.7,0-2.6c0.1-0.1,0.1-0.3,0.2-0.3c1.3,0.2,1.4-1.1,2-1.7C131.7,90.7,132.2,90.9,132.5,90.9z"/>
		<path class="st7" d="M54.2,40.8c0,0.1,0,0.2,0,0.2c-0.2,0.1-0.3,0.2-0.5,0.2c0.1-1.1,0.2-2.3,0.2-3.4c0-1.8-0.3-3.6-0.2-5.3
			c0.1-2.1,0-2.3-2-2.3c0-0.7,0-1.4,0-2c0.1,0.3,0.1,0.7,0.2,1.1c1.9,0,3.8,0,5.7,0c-0.8,0.1-1.6,0.1-2.4,0.2
			c-0.4,0-0.8,0.2-1.1,0.3c0,0.5,0,0.9-0.1,1.4C54.2,34.4,54.2,37.6,54.2,40.8z"/>
		<path class="st20" d="M18.7,79.4c-0.7,2.2-2.1,3.7-4.5,4.2c0.3-0.3,0.5-0.7,0.8-0.8c1.3-0.4,1.5-1.3,1.4-2.5
			c0-0.3,0.5-0.8,0.8-0.9C17.7,79.2,18.3,78.5,18.7,79.4z"/>
		<path class="st20" d="M23.4,83.6c-2.3-0.4-3.7-1.8-4.3-4c0.7,0.6,1.4,1.2,2,1.9c0.3,0.3,0.3,0.6,1,0.6
			C22.4,82.1,22.9,83,23.4,83.6z"/>
		<path class="st16" d="M102.8,21.5c0.4-0.4,0.8-0.8,1.3-1.2c0.4,0.4,0.8,0.8,1.3,1.2c-0.4,0.4-0.8,0.8-1.2,1.3
			C103.7,22.3,103.3,21.9,102.8,21.5z"/>
		<path class="st20" d="M26.7,107.1c-0.8-2.6-0.6-5.2,0-7.8C26.7,101.9,26.7,104.5,26.7,107.1z"/>
		<path class="st8" d="M56.8,19.9c0.4-1.4,1.4-2.2,2.8-2.6C59.3,18.4,57.8,19.8,56.8,19.9z"/>
		<path class="st16" d="M20.8,71.6c0.4-0.4,0.7-0.7,1.1-1c0.3,0.3,0.6,0.7,1,1c-0.4,0.3-0.8,0.5-1.2,0.8
			C21.5,72.3,21.2,72,20.8,71.6z"/>
		<path class="st8" d="M68.1,21c0.9,0.5,1.7,1,2.6,1.4C69.4,22.8,68.2,22.1,68.1,21z"/>
		<path class="st21" d="M54.2,29.8c0.4-0.1,0.7-0.2,1.1-0.3c0.8-0.1,1.6-0.2,2.4-0.2c0.6,0.1,1.3,0.3,1.9,0.4
			C57.8,29.7,56,29.7,54.2,29.8z"/>
		<path class="st21" d="M72.8,29.7c-2.4,0-4.9,0-7.3,0c1.5-0.1,3.1-0.2,4.6-0.2C71,29.5,71.9,29.7,72.8,29.7z"/>
		<path class="st7" d="M31.5,43.8c-0.7,0.1-1.2,0.2-1.6,0.1c-0.2-0.1-0.2-0.8-0.4-1.3C30.1,43,30.6,43.3,31.5,43.8z"/>
		<path class="st7" d="M33.3,42.9c-0.5-0.2-0.9-0.3-1.4-0.5c0.5-0.2,0.9-0.3,1.4-0.5c0,0,0,0,0,0C33.3,42.3,33.3,42.6,33.3,42.9
			L33.3,42.9z"/>
		<path class="st3" d="M121.2,56.8c-1.4,0-2.8,0-4.2,0c-0.3,0-0.6-0.2-1-0.3C117.8,56.6,119.5,56.7,121.2,56.8z"/>
		<path class="st7" d="M51.8,27.1c0-0.3,0-0.5,0-0.8C51.8,26.5,51.8,26.8,51.8,27.1z"/>
		<path class="st8" d="M91.4,13.4c-0.1,0-0.1,0-0.2,0c0-0.1,0-0.1,0-0.2c0,0,0.1,0,0.1,0C91.3,13.3,91.3,13.4,91.4,13.4z"/>
		<path class="st6" d="M46.2,76c-0.6-0.1-1.1-0.3-1.7-0.4c2.1-0.2,4.2-0.5,6.3-0.7c0.4,0,0.8,0.1,1.2,0.3c0.1,0.1,0,0.8-0.1,0.8
			c-0.4,0.1-0.9,0.1-1.3,0.1C49.1,76.1,47.7,76,46.2,76z"/>
		<path class="st5" d="M79.8,67.6c0,0.8,0.5,0.7,1,0.7c-2.1,0.6-4.1,1.2-6.2,1.8C76.4,69.3,78.1,68.4,79.8,67.6z"/>
		<path class="st6" d="M145,80c-0.1-0.1-0.2-0.3-0.3-0.4c0.8,0,1.6,0,2.3,0c0,0,0,0,0,0c-0.1,0.2-0.2,0.5-0.2,0.7
			c-0.1,0.2-0.1,0.4-0.2,0.7l-0.1,0.1C146,80.7,145.5,80.3,145,80z"/>
		<path class="st24" d="M140.7,66.6c0.3-0.2,0.6-0.5,0.9-0.6c0.3-0.1,0.7-0.1,1.2-0.1c-0.6,0.6-0.9,0.9-1.2,1.2
			C141.3,66.9,141,66.7,140.7,66.6z"/>
		<path class="st3" d="M143.9,68.4c-0.3-0.2-0.6-0.4-0.9-0.5c0,0,0.1-0.1,0.1-0.1c0.3,0.2,0.6,0.3,0.9,0.5
			C143.9,68.3,143.9,68.4,143.9,68.4z"/>
		<path class="st20" d="M236.9,109.1c1.3-1.7,2.6-3.4,3.8-4.9c1,1.8,1.6,4.2,3.1,5.5c1.5,1.3,3.8,2,5.9,2.2c3.9,0.3,5.7-1.5,6.9-5.9
			c0.2,0,0.4,0,0.6,0.1c-0.7,5-1.6,7-8,6.8c-0.8,0-1.7,0-2.5,0c-5.1,0-5.1,0-6.6-4.3C239,108.7,237.9,108.9,236.9,109.1z"/>
		<path class="st20" d="M216.6,108.3c3.5,1.3,7,2.9,10.6,3.8c3.6,0.8,6.8-0.6,9.6-3c0.5,1.3-0.1,1.7-1.2,2.7c-2.6,2.5-5.5,2.3-8.5,2
			c-2.6-0.2-5.1-0.9-7.6-1.6C217.9,111.7,216.4,110.5,216.6,108.3z"/>
		<path class="st23" d="M257.1,106c-0.2,0-0.4,0-0.6-0.1c0-11.3-0.1-22.7-0.1-34c0.4,0.6,1.2,1.2,1.2,1.8c0.1,5.6,0.1,11.2,0,16.7
			C257.6,95.7,257.3,100.9,257.1,106z"/>
		<path class="st23" d="M256.2,70.6c-0.1-0.7-0.2-1.5-0.3-2.2C256.1,69.1,256.1,69.8,256.2,70.6z"/>
		<path class="st20" d="M215.5,107.6c0.3,0.2,0.7,0.5,1,0.7C216.2,108.1,215.8,107.8,215.5,107.6z"/>
		<path class="st8" d="M553.7,106c0.3-0.6,0.6-1.1,0.9-1.7c0.3-0.6,0.7-1.1,1.1-1.7c0.4,0.3,1.1,0.7,1.1,1c0,0.8-0.2,1.9-0.7,2.2
			c-3.3,1.6-0.9,2.1,0.8,3.1c-1.9,1.7-3.8,3.4-5.7,5.1c-1.5,0.7-2.7,1.7-4.5,0.3c-2.1-1.6-5.5-0.9-7.3-3.4c-0.1-0.1-1.2,0.2-1.6,0.6
			c-0.6,0.5-0.9,1.3-1.4,2c-2.2-1.2-0.7-3-0.4-4.3c0.4-2.2,0.2-3.6-2.1-4.5c-1.6-0.6-2.4-1.6-2.2-3.7c0.1-0.9-1.7-2-2.7-2.9
			c-0.6,0.9-1.5,1.7-1.7,2.7c-0.6,2.7-0.8,5.5-1.3,8.3c-0.3,2-3.5,5.1-5.3,4.9c-3.2-0.4-4.3,0.9-3.8,4c0.1,0.4-0.1,0.9-0.2,1.3
			c-0.3,0-0.6,0-0.9,0.1c-0.1-0.8-0.4-1.6-0.2-2.3c0.4-2.1,0.5-3.9-2-4.7c-1.3-0.5-2.5-1.3-1.8-3.1c2.2,2.4,4.8,3.2,8,2.7
			c3.8-0.6,5.2-2.3,5.3-6.1c0-0.9,0.1-1.7,0-2.6c-0.7-3.8,1.1-6.3,4.4-8.5c3.1,4.4,6.3,8.7,9.3,13.2c2.4,3.5,5.7,4.8,9.8,4.3
			C552.3,111.9,554,109.9,553.7,106z"/>
		<path class="st21" d="M510.1,67.1c0.2-0.1,0.3-0.1,0.5-0.1c0,13.3,0.1,26.7,0.1,40.1c-0.2,0.4-0.4,0.8-0.6,1.2
			c-0.4-0.6-1.1-1.1-1.1-1.7c-0.1-11.3-0.1-22.5,0-33.8C509.1,70.9,509.7,69,510.1,67.1z"/>
		<path class="st20" d="M470.8,81.4c3.1,4.2,7.6,6.4,12.2,8.5c1.2,0.5,2.4,1.2,3.5,1.8c1.7,0.9,3.2,2.4,2.4,4.3
			c-0.6,1.5-2.2,3.2-3.6,3.5c-2.3,0.5-4.8-0.2-7.2-0.3c1.7,0,3.6,0.4,5.1-0.1c1.5-0.5,2.7-2,3.9-3.2c0.3-0.3,0-1.5-0.4-1.8
			c-2.3-1.4-4.7-2.8-7.2-4c-2.3-1.1-4.8-1.8-7.1-2.9c-0.6-0.3-1-1.3-1.2-2C471,83.9,471,82.6,470.8,81.4z"/>
		<path class="st25" d="M536.4,113.4c0.5-0.7,0.8-1.4,1.4-2c0.4-0.4,1.5-0.7,1.6-0.6c1.8,2.5,5.2,1.9,7.3,3.4
			c1.9,1.4,3.1,0.4,4.5-0.3c0.7,0.9,1.4,1.9,2.1,2.8c-1.4,0.2-2.7,0.5-4.1,0.5c-0.5,0-1.2-0.3-1.5-0.7c-1.3-1.7-2.8-1.7-4.5-1
			c-0.8-2.2-2.7-2.4-5.2-0.6c-0.5-0.2-1.1-0.4-1.6-0.6C536.4,114.2,536.4,113.8,536.4,113.4z"/>
		<path class="st20" d="M485,76.3c-1.9-0.9-2.3-2.7-1.5-4.2c0.6-1.2,2.4-2.6,3.6-2.5c3,0.3,5.9,1.4,8.8,2.1
			c-2.4-0.3-4.7-0.9-7.1-0.9c-1.3,0-2.6,0.8-4.1,1.3C484.8,73.4,484.9,74.9,485,76.3z"/>
		<path class="st8" d="M510.1,108.3c0.2-0.4,0.4-0.8,0.6-1.2c0.3,0.6,0.5,1.2,0.8,1.8C511.1,108.7,510.6,108.5,510.1,108.3z"/>
		<path class="st25" d="M241.4,88.4c-0.1,6.3-4.6,10.8-10.6,10.7c-4.7-0.1-7.9-3.9-7.7-9.1c0.2-6.4,4.3-10.5,10.4-10.3
			C238.6,79.8,241.5,83,241.4,88.4z"/>
		<path class="st10" d="M217.8,73.6c0-1.9-0.1-3.8-0.1-5.7c5,0,10-0.2,15.1-0.1c1.5,0,3,0.5,4.6,1.2
			C230.3,68.5,223.7,69.5,217.8,73.6z"/>
		<path class="st8" d="M208.7,86.1c0-1.5,0-3,0-4.7c0.7-0.2,1.4-0.4,2.2-0.6C210.2,82.6,209.4,84.4,208.7,86.1z"/>
		<path class="st20" d="M553.5,64.9c0.2,2.7-1,4.4-3.1,6.3c-2.4,2.1-5.3,4-6.4,7.4c-0.3,0.9-1.7,1.6-2.7,2.2c-1.4,0.9-2,3.1-0.9,4.5
			c1.2,1.6,2.6,3,3.7,4.7c0.4,0.7,0.3,1.8,0.4,2.7c-2-2.7-4-5.5-6.1-8.1c-1-1.3-0.8-2.2,0.3-3.4C543.6,75.7,548.5,70.3,553.5,64.9z"
			/>
		<path class="st23" d="M525.5,76.3c0-9.7,0-19.3,0-29c0.4,0,0.8,0,1.2,0c0,9.3,0,18.5,0,27.8C526.3,75.5,525.9,75.9,525.5,76.3z"/>
		<path class="st25" d="M443.6,88c0.1,6.2-4.6,11-10.6,11c-4.6,0-7.9-3.6-7.9-8.6c-0.1-6.2,4.1-10.7,10-10.8
			C440.5,79.6,443.6,82.7,443.6,88z"/>
		<path class="st14" d="M423.9,65.6c-3.5,0.7-3.4-1-3.6-2.6c0.2-0.2,0.5-0.4,0.7-0.7C421.9,63.3,422.7,64.2,423.9,65.6z"/>
		<path class="st21" d="M190.6,69.5c0.1,0.1,0.2,0.3,0.2,0.5c-4.4,0-8.7,0-13.4,0c0-5.3,0-10.5,0-16c8.4,0,16.9,0,25.4,0
			c-1,0.2-2,0.6-2.9,0.6c-6.2,0.1-12.4,0.1-18.6,0c-1.9,0-2.5,0.6-2.5,2.5c0.1,3.3,0.1,6.7,0,10c-0.1,1.9,0.7,2.6,2.5,2.4
			c2.3-0.3,4.6-0.6,6.9-0.7C189.1,68.7,189.9,69.2,190.6,69.5z"/>
		<path class="st21" d="M206.3,53.3c-0.3,1.7-1.2,1.5-2.3,0.6C204.8,53.7,205.5,53.5,206.3,53.3z"/>
		<path class="st21" d="M203.4,54c-0.2,0-0.4-0.1-0.5-0.1C203,54,203.2,54,203.4,54z"/>
		<path class="st21" d="M408.4,53.6c-2.5,0.3-5,0.9-7.5,0.9c-7.3,0.1-7.3,0-7.3,7.3c0,13.7-0.1,27.4,0,41c0,4.6-0.4,8.6-4.7,10.5
			c-2.3-0.2-4.3-0.4-6.2-0.5c-3.3-0.1-3.9-0.7-4-4c1.5,0.9,2.9,2.3,4.5,2.7c5.8,1.5,9.1-1.3,9.1-7.3c0-15.8,0-31.5,0-47.3
			c0-0.9,0-1.9,0-3.3C397.9,53.6,403.2,53.6,408.4,53.6z"/>
		<path class="st21" d="M334.2,68.4c0,3.3-3,2.6-4.7,3.2c-1.7,0.6-4.4,0-5.2,1c-0.9,1.2-0.3,3.6-0.4,5.5c-0.2,5.1-0.5,10.2-0.4,15.3
			c0,1.7,1,3.3,1.6,5c-0.8-1.3-1.5-2.6-2.3-3.8c-0.1-0.4-0.2-0.8-0.2-1.2c-0.1-7.4-0.1-14.9-0.2-22.3c0.1-0.2,0.3-0.3,0.4-0.5
			c1.8,0,3.6,0.2,5.3-0.1C330.2,70.1,332.2,69.1,334.2,68.4z"/>
		<path class="st10" d="M322.6,93.5c0.1,0.4,0.2,0.8,0.2,1.2C322.7,94.2,322.6,93.9,322.6,93.5z"/>
		<path class="st10" d="M322.8,70.7c-0.1,0.2-0.3,0.3-0.4,0.5C322.5,71,322.7,70.8,322.8,70.7z"/>
		<path class="st18" d="M402.8,99.1c0,2.7,0,5.3,0,8c0,3.3,0,6.6,0,9.8c-0.2,0-0.4,0.1-0.6,0.1c-0.2-0.4-0.5-0.8-0.5-1.3
			c0-4.9-0.1-9.8,0-14.7C401.7,100.4,402.4,99.8,402.8,99.1z"/>
		<path class="st18" d="M403.9,80.9c0,5.3,0.1,10.5,0,15.8c0,0.8-0.7,1.7-1.1,2.5c0-5.3,0-10.5,0.1-15.8
			C402.8,82.5,403.5,81.7,403.9,80.9z"/>
		<path class="st24" d="M144,68.3c-0.3-0.2-0.6-0.3-0.9-0.5c0.4-1.1,0.9-1.2,2.2-0.4C144.8,67.7,144.4,68,144,68.3z"/>
		<path class="st24" d="M144.5,65.9c-0.2,0-0.4-0.1-0.7-0.1c0-0.1,0-0.3,0.1-0.3c0.2,0,0.4,0,0.6,0
			C144.6,65.6,144.5,65.7,144.5,65.9z"/>
		<path class="st24" d="M145.1,63c0.1,0,0.1,0.1,0.2,0.1c0,0.1,0,0.2-0.1,0.2c0,0-0.1,0-0.2-0.1C145,63.1,145.1,63.1,145.1,63z"/>
		<path class="st25" d="M542.1,117.4c0.4,0,0.8,0,1.1,0c-0.1,0.7-0.2,1.3-0.3,2c-0.2,0-0.4,0-0.6,0
			C542.3,118.7,542.2,118.1,542.1,117.4z"/>
		<path class="st24" d="M137.1,107.2c-0.2,0.1-0.5,0.2-0.7,0.2c0-0.1-0.1-0.2-0.1-0.3c0.2-0.1,0.5-0.2,0.7-0.3
			C137,107,137,107.1,137.1,107.2z"/>
		<path class="st24" d="M138.3,106c0.1,0,0.1,0.1,0.2,0.1c0,0.1,0,0.2-0.1,0.2c0,0-0.1,0-0.2-0.1C138.2,106.1,138.3,106.1,138.3,106
			z"/>
		<path class="st7" d="M146.8,80.3c0.1-0.2,0.2-0.5,0.2-0.7c0.4,0,0.8,0,1.2,0c-0.2,0.6-0.4,1.1-1.2,0.9
			C147,80.4,146.9,80.4,146.8,80.3z"/>
		<path class="st1" d="M146.8,80.3c0.1,0.1,0.2,0.2,0.2,0.2c-0.1,0.1-0.3,0.3-0.4,0.4C146.7,80.7,146.7,80.5,146.8,80.3z"/>
		<path class="st1" d="M143.4,75.6c0,0.1,0,0.1,0,0.2c-0.1,0-0.2-0.1-0.3-0.1C143.2,75.6,143.3,75.6,143.4,75.6z"/>
		<path class="st25" d="M53,84.5c0.4-0.3,0.8-0.6,1.3-0.8c1.1-0.4,2,0.1,2.6,1c1,2.4,2.6,4.3,4.7,5.9c8.8,6.9,22.1,3.9,26.8-6.2
			c0.8-0.7,1.6-1.1,2.6-0.5c0.4,1.1,0.1,1.9-0.4,2.9c-0.3,0.7-0.3,1.5-1,2.1c-0.5,0.4-0.9,1.2-1.2,1.8c-0.3,0.5-0.4,1.1-0.6,1.6
			l-0.1-0.1c0,0,0.1,0.1,0.1,0.1c-1.1-0.1-2.1,0.7-2.3,1.9c0,0-0.1,0-0.1,0c-0.3,0-0.6-0.2-0.9-0.1c-0.8,0-1.5,0.9-1.4,1.5
			c0,0-0.1,0.1-0.1,0.1c-0.2,0.1-0.4,0.2-0.6,0.3c-9.8,5.2-22.9,1.7-28.4-7.6C53.6,87.2,53.4,85.8,53,84.5z"/>
		<path class="st0" d="M52.3,65.7c-2,1.9-4.9,2.4-7.4,1.3c-2.7-1.2-4.2-3.6-4.2-6.5c0.1-2.6,1.7-5,4-5.9c0.6-0.1,1.3-0.4,1.9-0.3
			c1.2,0.1,2.3,0.4,3.4,0.6c0.1,0,0.1,0.2,0.2,0.3c0.5,0.5,1,1,1.5,1.4c0.3,0.3,0.9,0.5,1,0.9c0.8,2,1.1,4.1,0,6.2
			C52.6,64.3,52.5,65,52.3,65.7z"/>
		<path class="st20" d="M52.3,65.7c0.2-0.7,0.2-1.5,0.5-2.1c1.1-2.1,0.8-4.2,0-6.2c-0.1-0.4-0.7-0.6-1-0.9c-0.5-0.5-1-0.9-1.5-1.4
			c-0.1-0.1-0.1-0.3-0.2-0.3c-1.1-0.2-2.3-0.5-3.4-0.6c-0.6,0-1.3,0.2-1.9,0.3c3-1.5,6.6-0.5,8.6,2.3C55.3,59.9,54.9,63.4,52.3,65.7
			z"/>
		<path class="st20" d="M87.9,92.4c0.2-0.5,0.4-1.1,0.6-1.6c0.3-0.6,0.7-1.4,1.2-1.8c0.7-0.6,0.7-1.4,1-2.1c0.5-1,0.8-1.9,0.4-2.9
			c0.2,0.2,0.4,0.3,0.6,0.5c0,0.8,0.3,1.7,0,2.3C90.9,88.9,89.7,90.8,87.9,92.4z"/>
		<path class="st20" d="M83.3,95.7c-0.2-0.6,0.6-1.4,1.4-1.5c0.3,0,0.6,0.1,0.9,0.1C84.8,94.8,84,95.2,83.3,95.7z"/>
		<path class="st20" d="M85.6,94.3c0.2-1.2,1.2-2,2.3-1.9C87.1,93,86.4,93.6,85.6,94.3z"/>
		<path class="st13" d="M95.4,60.4c-0.2,0.1-0.4,0.2-0.6,0.3C95,60.6,95.2,60.5,95.4,60.4z"/>
		<path class="st20" d="M82.6,96c0.2-0.1,0.4-0.2,0.6-0.3C83,95.8,82.8,95.9,82.6,96z"/>
		<path class="st13" d="M75.8,79.6c-0.2,0.1-0.4,0.2-0.7,0.3C75.4,79.8,75.6,79.7,75.8,79.6z"/>
		<path class="st5" d="M80,67.4c-0.1,0.1-0.2,0.1-0.2,0.2C79.9,67.5,80,67.5,80,67.4z"/>
		<path class="st26" d="M88.5,84.4c-4.8,10.1-18.1,13.2-26.8,6.2c-2-1.6-3.7-3.5-4.7-5.9c2.7,0.3,5.3,0.7,8,0.8
			c2.6,0.1,5.3-0.2,7.9-0.3c2.8-0.2,5.7-0.4,8.5-0.5c2.3-0.1,4.5-0.3,6.8-0.4C88.3,84.3,88.4,84.4,88.5,84.4z"/>
		<path class="st6" d="M88.8,36.7c0-1,1-1.9,2.1-1.8c1,0,1.8,0.9,1.8,1.9c0,1.1-0.9,1.9-2,1.9C89.7,38.6,88.7,37.6,88.8,36.7z"/>
		<path class="st6" d="M104.7,38.2c-0.1-0.2-0.2-0.4-0.3-0.6c-0.4-0.9-0.3-1.9,0.6-2.3c0.6-0.3,1.6-0.2,2.2,0.1c1,0.5,1,1.6,0.6,2.5
			c-0.4,0.8-1.3,1-2.2,0.8C105.4,38.6,105.1,38.3,104.7,38.2C104.7,38.2,104.7,38.2,104.7,38.2z"/>
		<path class="st6" d="M99,38.7c-0.1,0-0.3,0-0.4,0c-1.8-0.3-2.6-1.6-1.8-2.9c0.5-0.8,1.3-1.1,2.1-0.9c0.5,0.2,1.2,0.8,1.3,1.2
			c0.1,0.7-0.3,1.4-0.6,2.1C99.5,38.4,99.2,38.5,99,38.7z"/>
		<path class="st22" d="M63.4,31.2c5,0,10,0,15.1,0c-0.3,0.1-0.6,0.4-1,0.4c-4.4,0-8.7,0-13.1,0C64,31.6,63.7,31.3,63.4,31.2z"/>
		<path class="st0" d="M51.8,30.2c2,0,2.1,0.3,2,2.3c-0.1,1.8,0.2,3.6,0.2,5.3c0,1.1-0.1,2.2-0.2,3.4c0,0.2,0,0.5,0,0.7
			c-1.1,0.6-1.6,1.7-2.1,2.8c-0.3,0.7-0.6,0.7-1,0c0.3-0.6,0.6-1.2,0.9-1.9c0.1-0.4,0.3-0.7,0.3-1.1c0-3,0-6.1,0-9.1
			c0-0.3-0.1-0.6-0.2-0.9C51.7,31.3,51.7,30.7,51.8,30.2z"/>
		<path class="st0" d="M33.3,42.9c0-0.3,0-0.6,0-0.9c2,0,4,0,6.1,0c1.5,0,1.7,0.2,1.4,1.7c0,0.3-0.1,0.6-0.2,0.9
			c-1.8-0.1-3.6-0.1-5.5-0.2c0-0.1,0-0.3,0-0.4c0.5,0,0.9,0,1.4-0.1c0.2,0,0.4-0.3,0.6-0.4c-0.2-0.2-0.4-0.4-0.6-0.4
			C35.4,42.9,34.3,42.9,33.3,42.9z M38.2,43c0,0.1,0,0.2,0,0.4c0.4,0,0.7-0.1,1.1-0.1c0-0.1,0-0.2,0-0.3C38.9,43,38.5,43,38.2,43z
			 M40,43.5c-0.1,0-0.1-0.1-0.2-0.1c0,0-0.1,0.1-0.1,0.1c0,0.1,0.1,0.1,0.1,0.1C39.8,43.6,39.9,43.6,40,43.5z"/>
		<path class="st18" d="M42.7,44.3c0.5,0.5,1,1,1.5,1.4C43.1,45.8,42.7,45.2,42.7,44.3z"/>
		<polygon class="st0" points="40.6,44.5 40.6,44.6 40.6,44.6 		"/>
		<path class="st26" d="M42.2,25c0.4-1.9,2.1-3.4,4-3.7c2-0.3,3.9,0.6,4.9,2.3c0.2,0.3,0.2,0.7,0.3,1c-0.3,0-0.6,0-0.9,0.1
			c0,0.7,0,1.4-0.1,2.1c0,0.9-0.1,1.9-0.1,2.8c-1.8,2.1-3.7,4.1-5.5,6.2c-0.1,0-0.2,0-0.3-0.1c0-2.4,0-4.9,0-7.3c0-1,0-2,0-3
			c0-0.3,0-0.7,0-1c0,0-0.4,0-0.7,0C43.3,24.5,42.8,24.8,42.2,25L42.2,25z"/>
		<path class="st13" d="M44.5,28.3c0,2.4,0,4.9,0,7.3c0.1,0,0.2,0,0.3,0.1c1.8-2.1,3.7-4.1,5.5-6.2c0.1,0.1,0.3,0.2,0.3,0.3
			c0,2.7,0,5.5-0.2,8.2c-0.1,1.6-1.4,2.3-3,2.3c-1.7,0-2.7-0.7-2.9-2.4c-0.2-2.1-0.2-4.2-0.2-6.3c0-0.3,0-0.6,0-0.9
			C44.4,29.9,44.4,29.1,44.5,28.3z"/>
		<path class="st22" d="M44.5,28.3c-0.1,0.8-0.1,1.6-0.2,2.4c-0.5,0.3-0.7,0.1-0.7-0.5c-0.2-1.4-0.4-2.9-0.6-4.4
			c-0.3,0.2-0.5,0.3-0.8,0.5c0-0.5,0-0.9,0-1.3c0.5-0.3,1-0.5,1.6-0.8c0.2,0.3,0.4,0.7,0.7,1C44.5,26.3,44.5,27.3,44.5,28.3z"/>
		<path class="st22" d="M42.4,43.4c-0.1-0.2-0.1-0.3-0.2-0.5c0-5,0-9.9,0-14.9c0.1,0,0.2,0,0.4,0c0,0.3,0.1,0.6,0.1,0.8
			c0,4.5,0,9,0,13.5C42.7,42.7,42.5,43,42.4,43.4z"/>
		<path class="st27" d="M51.6,31.8c0.1,0.3,0.2,0.6,0.2,0.9c0,3,0,6.1,0,9.1c0,0.4-0.2,0.7-0.3,1.1C51.6,39.2,51.6,35.5,51.6,31.8z"
			/>
		<path class="st13" d="M50.4,26.7c0-0.7,0-1.4,0.1-2.1C50.4,25.3,50.4,26,50.4,26.7z"/>
		<path class="st14" d="M10.3,61.5c3.3-0.8,5.5-2.8,6.5-6.4c1.1,3.4,3.2,5.5,6.6,6.5c-3.5,0.9-5.5,3.1-6.6,6.6
			c-0.5-1-0.7-1.8-1.1-2.5c-1-2-2.6-3.2-4.8-3.9C10.7,61.9,10.5,61.7,10.3,61.5C10.3,61.5,10.3,61.5,10.3,61.5L10.3,61.5z"/>
		<path class="st0" d="M123,85.6C123,85.6,123,85.5,123,85.6c0.1-0.1,0.1-0.1,0.1,0C123.1,85.6,123.1,85.6,123,85.6
			C123.1,85.6,123,85.6,123,85.6z"/>
		<path class="st7" d="M38.2,43c0.4,0,0.7,0,1.1,0c0,0.1,0,0.2,0,0.3c-0.4,0-0.7,0.1-1.1,0.1C38.2,43.2,38.2,43.1,38.2,43z"/>
		<path class="st7" d="M40,43.5c-0.1,0-0.1,0.1-0.2,0.1c0,0-0.1-0.1-0.1-0.1c0,0,0-0.1,0.1-0.1C39.8,43.5,39.9,43.5,40,43.5z"/>
		<path class="st13" d="M44.5,25.3c-0.2-0.3-0.4-0.7-0.7-1c0.2,0,0.7,0,0.7,0C44.5,24.6,44.5,25,44.5,25.3z"/>
	</g>
</g>
</svg>
